%TF.GenerationSoftware,KiCad,Pcbnew,5.1.8*%
%TF.CreationDate,2020-11-10T00:50:46+08:00*%
%TF.ProjectId,FMESC-1-A-v0.2,464d4553-432d-4312-9d41-2d76302e322e,v0.2*%
%TF.SameCoordinates,Original*%
%TF.FileFunction,Paste,Top*%
%TF.FilePolarity,Positive*%
%FSLAX46Y46*%
G04 Gerber Fmt 4.6, Leading zero omitted, Abs format (unit mm)*
G04 Created by KiCad (PCBNEW 5.1.8) date 2020-11-10 00:50:46*
%MOMM*%
%LPD*%
G01*
G04 APERTURE LIST*
%ADD10R,3.000000X5.000000*%
%ADD11R,2.200000X0.560000*%
%ADD12R,2.000000X3.500000*%
%ADD13C,0.100000*%
%ADD14R,0.650000X0.500000*%
%ADD15R,3.000000X3.500000*%
%ADD16R,13.000000X3.000000*%
G04 APERTURE END LIST*
D10*
%TO.C,JB3*%
X120000000Y-119000000D03*
%TD*%
%TO.C,JB3*%
X70000000Y-119000000D03*
%TD*%
%TO.C,JB3*%
X120000000Y-69000000D03*
%TD*%
D11*
%TO.C,J20*%
X101500000Y-121500000D03*
X104500000Y-121500000D03*
%TD*%
%TO.C,J20*%
X51500000Y-121500000D03*
X54500000Y-121500000D03*
%TD*%
%TO.C,J20*%
X101500000Y-71500000D03*
X104500000Y-71500000D03*
%TD*%
%TO.C,J24*%
X101500000Y-135500000D03*
X104500000Y-135500000D03*
%TD*%
%TO.C,J24*%
X51500000Y-135500000D03*
X54500000Y-135500000D03*
%TD*%
%TO.C,J24*%
X101500000Y-85500000D03*
X104500000Y-85500000D03*
%TD*%
D12*
%TO.C,JG9*%
X92500000Y-110500000D03*
%TD*%
%TO.C,JG9*%
X42500000Y-110500000D03*
%TD*%
%TO.C,JG9*%
X92500000Y-60500000D03*
%TD*%
D10*
%TO.C,JB4*%
X120000000Y-112000000D03*
%TD*%
%TO.C,JB4*%
X70000000Y-112000000D03*
%TD*%
%TO.C,JB4*%
X120000000Y-62000000D03*
%TD*%
D12*
%TO.C,JG1*%
X137500000Y-133500000D03*
%TD*%
%TO.C,JG1*%
X87500000Y-133500000D03*
%TD*%
%TO.C,JG1*%
X137500000Y-83500000D03*
%TD*%
D10*
%TO.C,JB9*%
X110000000Y-111000000D03*
%TD*%
%TO.C,JB9*%
X60000000Y-111000000D03*
%TD*%
%TO.C,JB9*%
X110000000Y-61000000D03*
%TD*%
D11*
%TO.C,J21*%
X92500000Y-128500000D03*
X95500000Y-128500000D03*
%TD*%
%TO.C,J21*%
X42500000Y-128500000D03*
X45500000Y-128500000D03*
%TD*%
%TO.C,J21*%
X92500000Y-78500000D03*
X95500000Y-78500000D03*
%TD*%
D12*
%TO.C,JG3*%
X137500000Y-119500000D03*
%TD*%
%TO.C,JG3*%
X87500000Y-119500000D03*
%TD*%
%TO.C,JG3*%
X137500000Y-69500000D03*
%TD*%
D13*
%TO.C,Q6*%
G36*
X127575000Y-118115000D02*
G01*
X127575000Y-118615000D01*
X127250000Y-118615000D01*
X127250000Y-119385000D01*
X127575000Y-119385000D01*
X127575000Y-119885000D01*
X127250000Y-119885000D01*
X127250000Y-120655000D01*
X127575000Y-120655000D01*
X127575000Y-121155000D01*
X126850000Y-121155000D01*
X126850000Y-118115000D01*
X127575000Y-118115000D01*
G37*
D14*
X127250000Y-117095000D03*
D13*
G36*
X121980000Y-120655000D02*
G01*
X121980000Y-119885000D01*
X121425000Y-119885000D01*
X121425000Y-119385000D01*
X121980000Y-119385000D01*
X121980000Y-118615000D01*
X121425000Y-118615000D01*
X121425000Y-118115000D01*
X121980000Y-118115000D01*
X121980000Y-117345000D01*
X121425000Y-117345000D01*
X121425000Y-116845000D01*
X121980000Y-116845000D01*
X121980000Y-116700000D01*
X126100000Y-116700000D01*
X126100000Y-121300000D01*
X121980000Y-121300000D01*
X121980000Y-121155000D01*
X121425000Y-121155000D01*
X121425000Y-120655000D01*
X121980000Y-120655000D01*
G37*
%TD*%
%TO.C,Q6*%
G36*
X77575000Y-118115000D02*
G01*
X77575000Y-118615000D01*
X77250000Y-118615000D01*
X77250000Y-119385000D01*
X77575000Y-119385000D01*
X77575000Y-119885000D01*
X77250000Y-119885000D01*
X77250000Y-120655000D01*
X77575000Y-120655000D01*
X77575000Y-121155000D01*
X76850000Y-121155000D01*
X76850000Y-118115000D01*
X77575000Y-118115000D01*
G37*
D14*
X77250000Y-117095000D03*
D13*
G36*
X71980000Y-120655000D02*
G01*
X71980000Y-119885000D01*
X71425000Y-119885000D01*
X71425000Y-119385000D01*
X71980000Y-119385000D01*
X71980000Y-118615000D01*
X71425000Y-118615000D01*
X71425000Y-118115000D01*
X71980000Y-118115000D01*
X71980000Y-117345000D01*
X71425000Y-117345000D01*
X71425000Y-116845000D01*
X71980000Y-116845000D01*
X71980000Y-116700000D01*
X76100000Y-116700000D01*
X76100000Y-121300000D01*
X71980000Y-121300000D01*
X71980000Y-121155000D01*
X71425000Y-121155000D01*
X71425000Y-120655000D01*
X71980000Y-120655000D01*
G37*
%TD*%
%TO.C,Q6*%
G36*
X127575000Y-68115000D02*
G01*
X127575000Y-68615000D01*
X127250000Y-68615000D01*
X127250000Y-69385000D01*
X127575000Y-69385000D01*
X127575000Y-69885000D01*
X127250000Y-69885000D01*
X127250000Y-70655000D01*
X127575000Y-70655000D01*
X127575000Y-71155000D01*
X126850000Y-71155000D01*
X126850000Y-68115000D01*
X127575000Y-68115000D01*
G37*
D14*
X127250000Y-67095000D03*
D13*
G36*
X121980000Y-70655000D02*
G01*
X121980000Y-69885000D01*
X121425000Y-69885000D01*
X121425000Y-69385000D01*
X121980000Y-69385000D01*
X121980000Y-68615000D01*
X121425000Y-68615000D01*
X121425000Y-68115000D01*
X121980000Y-68115000D01*
X121980000Y-67345000D01*
X121425000Y-67345000D01*
X121425000Y-66845000D01*
X121980000Y-66845000D01*
X121980000Y-66700000D01*
X126100000Y-66700000D01*
X126100000Y-71300000D01*
X121980000Y-71300000D01*
X121980000Y-71155000D01*
X121425000Y-71155000D01*
X121425000Y-70655000D01*
X121980000Y-70655000D01*
G37*
%TD*%
D11*
%TO.C,J13*%
X92500000Y-100500000D03*
X95500000Y-100500000D03*
%TD*%
%TO.C,J13*%
X42500000Y-100500000D03*
X45500000Y-100500000D03*
%TD*%
%TO.C,J13*%
X92500000Y-50500000D03*
X95500000Y-50500000D03*
%TD*%
D10*
%TO.C,JB1*%
X120000000Y-133000000D03*
%TD*%
%TO.C,JB1*%
X70000000Y-133000000D03*
%TD*%
%TO.C,JB1*%
X120000000Y-83000000D03*
%TD*%
D11*
%TO.C,J19*%
X92500000Y-121500000D03*
X95500000Y-121500000D03*
%TD*%
%TO.C,J19*%
X42500000Y-121500000D03*
X45500000Y-121500000D03*
%TD*%
%TO.C,J19*%
X92500000Y-71500000D03*
X95500000Y-71500000D03*
%TD*%
D10*
%TO.C,JB8*%
X110000000Y-104000000D03*
%TD*%
%TO.C,JB8*%
X60000000Y-104000000D03*
%TD*%
%TO.C,JB8*%
X110000000Y-54000000D03*
%TD*%
%TO.C,JB6*%
X120000000Y-98000000D03*
%TD*%
%TO.C,JB6*%
X70000000Y-98000000D03*
%TD*%
%TO.C,JB6*%
X120000000Y-48000000D03*
%TD*%
D11*
%TO.C,J9*%
X137500000Y-101500000D03*
X134500000Y-101500000D03*
%TD*%
%TO.C,J9*%
X87500000Y-101500000D03*
X84500000Y-101500000D03*
%TD*%
%TO.C,J9*%
X137500000Y-51500000D03*
X134500000Y-51500000D03*
%TD*%
D15*
%TO.C,MB1*%
X129000000Y-126500000D03*
%TD*%
%TO.C,MB1*%
X79000000Y-126500000D03*
%TD*%
%TO.C,MB1*%
X129000000Y-76500000D03*
%TD*%
D12*
%TO.C,JG2*%
X137500000Y-126500000D03*
%TD*%
%TO.C,JG2*%
X87500000Y-126500000D03*
%TD*%
%TO.C,JG2*%
X137500000Y-76500000D03*
%TD*%
%TO.C,JG6*%
X137500000Y-98500000D03*
%TD*%
%TO.C,JG6*%
X87500000Y-98500000D03*
%TD*%
%TO.C,JG6*%
X137500000Y-48500000D03*
%TD*%
D11*
%TO.C,J7*%
X137500000Y-108500000D03*
X134500000Y-108500000D03*
%TD*%
%TO.C,J7*%
X87500000Y-108500000D03*
X84500000Y-108500000D03*
%TD*%
%TO.C,J7*%
X137500000Y-58500000D03*
X134500000Y-58500000D03*
%TD*%
D10*
%TO.C,JB11*%
X110000000Y-125000000D03*
%TD*%
%TO.C,JB11*%
X60000000Y-125000000D03*
%TD*%
%TO.C,JB11*%
X110000000Y-75000000D03*
%TD*%
D11*
%TO.C,J10*%
X128500000Y-101500000D03*
X125500000Y-101500000D03*
%TD*%
%TO.C,J10*%
X78500000Y-101500000D03*
X75500000Y-101500000D03*
%TD*%
%TO.C,J10*%
X128500000Y-51500000D03*
X125500000Y-51500000D03*
%TD*%
D15*
%TO.C,MC2*%
X129000000Y-98500000D03*
%TD*%
%TO.C,MC2*%
X79000000Y-98500000D03*
%TD*%
%TO.C,MC2*%
X129000000Y-48500000D03*
%TD*%
D11*
%TO.C,J6*%
X128500000Y-115500000D03*
X125500000Y-115500000D03*
%TD*%
%TO.C,J6*%
X78500000Y-115500000D03*
X75500000Y-115500000D03*
%TD*%
%TO.C,J6*%
X128500000Y-65500000D03*
X125500000Y-65500000D03*
%TD*%
D10*
%TO.C,JB5*%
X120000000Y-105000000D03*
%TD*%
%TO.C,JB5*%
X70000000Y-105000000D03*
%TD*%
%TO.C,JB5*%
X120000000Y-55000000D03*
%TD*%
D15*
%TO.C,MA4*%
X101000000Y-117500000D03*
%TD*%
%TO.C,MA4*%
X51000000Y-117500000D03*
%TD*%
%TO.C,MA4*%
X101000000Y-67500000D03*
%TD*%
D13*
%TO.C,Q4*%
G36*
X127575000Y-125115000D02*
G01*
X127575000Y-125615000D01*
X127250000Y-125615000D01*
X127250000Y-126385000D01*
X127575000Y-126385000D01*
X127575000Y-126885000D01*
X127250000Y-126885000D01*
X127250000Y-127655000D01*
X127575000Y-127655000D01*
X127575000Y-128155000D01*
X126850000Y-128155000D01*
X126850000Y-125115000D01*
X127575000Y-125115000D01*
G37*
D14*
X127250000Y-124095000D03*
D13*
G36*
X121980000Y-127655000D02*
G01*
X121980000Y-126885000D01*
X121425000Y-126885000D01*
X121425000Y-126385000D01*
X121980000Y-126385000D01*
X121980000Y-125615000D01*
X121425000Y-125615000D01*
X121425000Y-125115000D01*
X121980000Y-125115000D01*
X121980000Y-124345000D01*
X121425000Y-124345000D01*
X121425000Y-123845000D01*
X121980000Y-123845000D01*
X121980000Y-123700000D01*
X126100000Y-123700000D01*
X126100000Y-128300000D01*
X121980000Y-128300000D01*
X121980000Y-128155000D01*
X121425000Y-128155000D01*
X121425000Y-127655000D01*
X121980000Y-127655000D01*
G37*
%TD*%
%TO.C,Q4*%
G36*
X77575000Y-125115000D02*
G01*
X77575000Y-125615000D01*
X77250000Y-125615000D01*
X77250000Y-126385000D01*
X77575000Y-126385000D01*
X77575000Y-126885000D01*
X77250000Y-126885000D01*
X77250000Y-127655000D01*
X77575000Y-127655000D01*
X77575000Y-128155000D01*
X76850000Y-128155000D01*
X76850000Y-125115000D01*
X77575000Y-125115000D01*
G37*
D14*
X77250000Y-124095000D03*
D13*
G36*
X71980000Y-127655000D02*
G01*
X71980000Y-126885000D01*
X71425000Y-126885000D01*
X71425000Y-126385000D01*
X71980000Y-126385000D01*
X71980000Y-125615000D01*
X71425000Y-125615000D01*
X71425000Y-125115000D01*
X71980000Y-125115000D01*
X71980000Y-124345000D01*
X71425000Y-124345000D01*
X71425000Y-123845000D01*
X71980000Y-123845000D01*
X71980000Y-123700000D01*
X76100000Y-123700000D01*
X76100000Y-128300000D01*
X71980000Y-128300000D01*
X71980000Y-128155000D01*
X71425000Y-128155000D01*
X71425000Y-127655000D01*
X71980000Y-127655000D01*
G37*
%TD*%
%TO.C,Q4*%
G36*
X127575000Y-75115000D02*
G01*
X127575000Y-75615000D01*
X127250000Y-75615000D01*
X127250000Y-76385000D01*
X127575000Y-76385000D01*
X127575000Y-76885000D01*
X127250000Y-76885000D01*
X127250000Y-77655000D01*
X127575000Y-77655000D01*
X127575000Y-78155000D01*
X126850000Y-78155000D01*
X126850000Y-75115000D01*
X127575000Y-75115000D01*
G37*
D14*
X127250000Y-74095000D03*
D13*
G36*
X121980000Y-77655000D02*
G01*
X121980000Y-76885000D01*
X121425000Y-76885000D01*
X121425000Y-76385000D01*
X121980000Y-76385000D01*
X121980000Y-75615000D01*
X121425000Y-75615000D01*
X121425000Y-75115000D01*
X121980000Y-75115000D01*
X121980000Y-74345000D01*
X121425000Y-74345000D01*
X121425000Y-73845000D01*
X121980000Y-73845000D01*
X121980000Y-73700000D01*
X126100000Y-73700000D01*
X126100000Y-78300000D01*
X121980000Y-78300000D01*
X121980000Y-78155000D01*
X121425000Y-78155000D01*
X121425000Y-77655000D01*
X121980000Y-77655000D01*
G37*
%TD*%
%TO.C,Q7*%
G36*
X136575000Y-111115000D02*
G01*
X136575000Y-111615000D01*
X136250000Y-111615000D01*
X136250000Y-112385000D01*
X136575000Y-112385000D01*
X136575000Y-112885000D01*
X136250000Y-112885000D01*
X136250000Y-113655000D01*
X136575000Y-113655000D01*
X136575000Y-114155000D01*
X135850000Y-114155000D01*
X135850000Y-111115000D01*
X136575000Y-111115000D01*
G37*
D14*
X136250000Y-110095000D03*
D13*
G36*
X130980000Y-113655000D02*
G01*
X130980000Y-112885000D01*
X130425000Y-112885000D01*
X130425000Y-112385000D01*
X130980000Y-112385000D01*
X130980000Y-111615000D01*
X130425000Y-111615000D01*
X130425000Y-111115000D01*
X130980000Y-111115000D01*
X130980000Y-110345000D01*
X130425000Y-110345000D01*
X130425000Y-109845000D01*
X130980000Y-109845000D01*
X130980000Y-109700000D01*
X135100000Y-109700000D01*
X135100000Y-114300000D01*
X130980000Y-114300000D01*
X130980000Y-114155000D01*
X130425000Y-114155000D01*
X130425000Y-113655000D01*
X130980000Y-113655000D01*
G37*
%TD*%
%TO.C,Q7*%
G36*
X86575000Y-111115000D02*
G01*
X86575000Y-111615000D01*
X86250000Y-111615000D01*
X86250000Y-112385000D01*
X86575000Y-112385000D01*
X86575000Y-112885000D01*
X86250000Y-112885000D01*
X86250000Y-113655000D01*
X86575000Y-113655000D01*
X86575000Y-114155000D01*
X85850000Y-114155000D01*
X85850000Y-111115000D01*
X86575000Y-111115000D01*
G37*
D14*
X86250000Y-110095000D03*
D13*
G36*
X80980000Y-113655000D02*
G01*
X80980000Y-112885000D01*
X80425000Y-112885000D01*
X80425000Y-112385000D01*
X80980000Y-112385000D01*
X80980000Y-111615000D01*
X80425000Y-111615000D01*
X80425000Y-111115000D01*
X80980000Y-111115000D01*
X80980000Y-110345000D01*
X80425000Y-110345000D01*
X80425000Y-109845000D01*
X80980000Y-109845000D01*
X80980000Y-109700000D01*
X85100000Y-109700000D01*
X85100000Y-114300000D01*
X80980000Y-114300000D01*
X80980000Y-114155000D01*
X80425000Y-114155000D01*
X80425000Y-113655000D01*
X80980000Y-113655000D01*
G37*
%TD*%
%TO.C,Q7*%
G36*
X136575000Y-61115000D02*
G01*
X136575000Y-61615000D01*
X136250000Y-61615000D01*
X136250000Y-62385000D01*
X136575000Y-62385000D01*
X136575000Y-62885000D01*
X136250000Y-62885000D01*
X136250000Y-63655000D01*
X136575000Y-63655000D01*
X136575000Y-64155000D01*
X135850000Y-64155000D01*
X135850000Y-61115000D01*
X136575000Y-61115000D01*
G37*
D14*
X136250000Y-60095000D03*
D13*
G36*
X130980000Y-63655000D02*
G01*
X130980000Y-62885000D01*
X130425000Y-62885000D01*
X130425000Y-62385000D01*
X130980000Y-62385000D01*
X130980000Y-61615000D01*
X130425000Y-61615000D01*
X130425000Y-61115000D01*
X130980000Y-61115000D01*
X130980000Y-60345000D01*
X130425000Y-60345000D01*
X130425000Y-59845000D01*
X130980000Y-59845000D01*
X130980000Y-59700000D01*
X135100000Y-59700000D01*
X135100000Y-64300000D01*
X130980000Y-64300000D01*
X130980000Y-64155000D01*
X130425000Y-64155000D01*
X130425000Y-63655000D01*
X130980000Y-63655000D01*
G37*
%TD*%
%TO.C,Q8*%
G36*
X127575000Y-111115000D02*
G01*
X127575000Y-111615000D01*
X127250000Y-111615000D01*
X127250000Y-112385000D01*
X127575000Y-112385000D01*
X127575000Y-112885000D01*
X127250000Y-112885000D01*
X127250000Y-113655000D01*
X127575000Y-113655000D01*
X127575000Y-114155000D01*
X126850000Y-114155000D01*
X126850000Y-111115000D01*
X127575000Y-111115000D01*
G37*
D14*
X127250000Y-110095000D03*
D13*
G36*
X121980000Y-113655000D02*
G01*
X121980000Y-112885000D01*
X121425000Y-112885000D01*
X121425000Y-112385000D01*
X121980000Y-112385000D01*
X121980000Y-111615000D01*
X121425000Y-111615000D01*
X121425000Y-111115000D01*
X121980000Y-111115000D01*
X121980000Y-110345000D01*
X121425000Y-110345000D01*
X121425000Y-109845000D01*
X121980000Y-109845000D01*
X121980000Y-109700000D01*
X126100000Y-109700000D01*
X126100000Y-114300000D01*
X121980000Y-114300000D01*
X121980000Y-114155000D01*
X121425000Y-114155000D01*
X121425000Y-113655000D01*
X121980000Y-113655000D01*
G37*
%TD*%
%TO.C,Q8*%
G36*
X77575000Y-111115000D02*
G01*
X77575000Y-111615000D01*
X77250000Y-111615000D01*
X77250000Y-112385000D01*
X77575000Y-112385000D01*
X77575000Y-112885000D01*
X77250000Y-112885000D01*
X77250000Y-113655000D01*
X77575000Y-113655000D01*
X77575000Y-114155000D01*
X76850000Y-114155000D01*
X76850000Y-111115000D01*
X77575000Y-111115000D01*
G37*
D14*
X77250000Y-110095000D03*
D13*
G36*
X71980000Y-113655000D02*
G01*
X71980000Y-112885000D01*
X71425000Y-112885000D01*
X71425000Y-112385000D01*
X71980000Y-112385000D01*
X71980000Y-111615000D01*
X71425000Y-111615000D01*
X71425000Y-111115000D01*
X71980000Y-111115000D01*
X71980000Y-110345000D01*
X71425000Y-110345000D01*
X71425000Y-109845000D01*
X71980000Y-109845000D01*
X71980000Y-109700000D01*
X76100000Y-109700000D01*
X76100000Y-114300000D01*
X71980000Y-114300000D01*
X71980000Y-114155000D01*
X71425000Y-114155000D01*
X71425000Y-113655000D01*
X71980000Y-113655000D01*
G37*
%TD*%
%TO.C,Q8*%
G36*
X127575000Y-61115000D02*
G01*
X127575000Y-61615000D01*
X127250000Y-61615000D01*
X127250000Y-62385000D01*
X127575000Y-62385000D01*
X127575000Y-62885000D01*
X127250000Y-62885000D01*
X127250000Y-63655000D01*
X127575000Y-63655000D01*
X127575000Y-64155000D01*
X126850000Y-64155000D01*
X126850000Y-61115000D01*
X127575000Y-61115000D01*
G37*
D14*
X127250000Y-60095000D03*
D13*
G36*
X121980000Y-63655000D02*
G01*
X121980000Y-62885000D01*
X121425000Y-62885000D01*
X121425000Y-62385000D01*
X121980000Y-62385000D01*
X121980000Y-61615000D01*
X121425000Y-61615000D01*
X121425000Y-61115000D01*
X121980000Y-61115000D01*
X121980000Y-60345000D01*
X121425000Y-60345000D01*
X121425000Y-59845000D01*
X121980000Y-59845000D01*
X121980000Y-59700000D01*
X126100000Y-59700000D01*
X126100000Y-64300000D01*
X121980000Y-64300000D01*
X121980000Y-64155000D01*
X121425000Y-64155000D01*
X121425000Y-63655000D01*
X121980000Y-63655000D01*
G37*
%TD*%
D15*
%TO.C,MC3*%
X101000000Y-110500000D03*
%TD*%
%TO.C,MC3*%
X51000000Y-110500000D03*
%TD*%
%TO.C,MC3*%
X101000000Y-60500000D03*
%TD*%
D11*
%TO.C,J8*%
X128500000Y-108500000D03*
X125500000Y-108500000D03*
%TD*%
%TO.C,J8*%
X78500000Y-108500000D03*
X75500000Y-108500000D03*
%TD*%
%TO.C,J8*%
X128500000Y-58500000D03*
X125500000Y-58500000D03*
%TD*%
D15*
%TO.C,MB3*%
X101000000Y-103500000D03*
%TD*%
%TO.C,MB3*%
X51000000Y-103500000D03*
%TD*%
%TO.C,MB3*%
X101000000Y-53500000D03*
%TD*%
%TO.C,MA3*%
X101000000Y-96500000D03*
%TD*%
%TO.C,MA3*%
X51000000Y-96500000D03*
%TD*%
%TO.C,MA3*%
X101000000Y-46500000D03*
%TD*%
D12*
%TO.C,JG4*%
X137500000Y-112500000D03*
%TD*%
%TO.C,JG4*%
X87500000Y-112500000D03*
%TD*%
%TO.C,JG4*%
X137500000Y-62500000D03*
%TD*%
D15*
%TO.C,MA1*%
X129000000Y-133500000D03*
%TD*%
%TO.C,MA1*%
X79000000Y-133500000D03*
%TD*%
%TO.C,MA1*%
X129000000Y-83500000D03*
%TD*%
D13*
%TO.C,Q24*%
G36*
X102425000Y-132885000D02*
G01*
X102425000Y-132385000D01*
X102750000Y-132385000D01*
X102750000Y-131615000D01*
X102425000Y-131615000D01*
X102425000Y-131115000D01*
X102750000Y-131115000D01*
X102750000Y-130345000D01*
X102425000Y-130345000D01*
X102425000Y-129845000D01*
X103150000Y-129845000D01*
X103150000Y-132885000D01*
X102425000Y-132885000D01*
G37*
D14*
X102750000Y-133905000D03*
D13*
G36*
X108020000Y-130345000D02*
G01*
X108020000Y-131115000D01*
X108575000Y-131115000D01*
X108575000Y-131615000D01*
X108020000Y-131615000D01*
X108020000Y-132385000D01*
X108575000Y-132385000D01*
X108575000Y-132885000D01*
X108020000Y-132885000D01*
X108020000Y-133655000D01*
X108575000Y-133655000D01*
X108575000Y-134155000D01*
X108020000Y-134155000D01*
X108020000Y-134300000D01*
X103900000Y-134300000D01*
X103900000Y-129700000D01*
X108020000Y-129700000D01*
X108020000Y-129845000D01*
X108575000Y-129845000D01*
X108575000Y-130345000D01*
X108020000Y-130345000D01*
G37*
%TD*%
%TO.C,Q24*%
G36*
X52425000Y-132885000D02*
G01*
X52425000Y-132385000D01*
X52750000Y-132385000D01*
X52750000Y-131615000D01*
X52425000Y-131615000D01*
X52425000Y-131115000D01*
X52750000Y-131115000D01*
X52750000Y-130345000D01*
X52425000Y-130345000D01*
X52425000Y-129845000D01*
X53150000Y-129845000D01*
X53150000Y-132885000D01*
X52425000Y-132885000D01*
G37*
D14*
X52750000Y-133905000D03*
D13*
G36*
X58020000Y-130345000D02*
G01*
X58020000Y-131115000D01*
X58575000Y-131115000D01*
X58575000Y-131615000D01*
X58020000Y-131615000D01*
X58020000Y-132385000D01*
X58575000Y-132385000D01*
X58575000Y-132885000D01*
X58020000Y-132885000D01*
X58020000Y-133655000D01*
X58575000Y-133655000D01*
X58575000Y-134155000D01*
X58020000Y-134155000D01*
X58020000Y-134300000D01*
X53900000Y-134300000D01*
X53900000Y-129700000D01*
X58020000Y-129700000D01*
X58020000Y-129845000D01*
X58575000Y-129845000D01*
X58575000Y-130345000D01*
X58020000Y-130345000D01*
G37*
%TD*%
%TO.C,Q24*%
G36*
X102425000Y-82885000D02*
G01*
X102425000Y-82385000D01*
X102750000Y-82385000D01*
X102750000Y-81615000D01*
X102425000Y-81615000D01*
X102425000Y-81115000D01*
X102750000Y-81115000D01*
X102750000Y-80345000D01*
X102425000Y-80345000D01*
X102425000Y-79845000D01*
X103150000Y-79845000D01*
X103150000Y-82885000D01*
X102425000Y-82885000D01*
G37*
D14*
X102750000Y-83905000D03*
D13*
G36*
X108020000Y-80345000D02*
G01*
X108020000Y-81115000D01*
X108575000Y-81115000D01*
X108575000Y-81615000D01*
X108020000Y-81615000D01*
X108020000Y-82385000D01*
X108575000Y-82385000D01*
X108575000Y-82885000D01*
X108020000Y-82885000D01*
X108020000Y-83655000D01*
X108575000Y-83655000D01*
X108575000Y-84155000D01*
X108020000Y-84155000D01*
X108020000Y-84300000D01*
X103900000Y-84300000D01*
X103900000Y-79700000D01*
X108020000Y-79700000D01*
X108020000Y-79845000D01*
X108575000Y-79845000D01*
X108575000Y-80345000D01*
X108020000Y-80345000D01*
G37*
%TD*%
%TO.C,Q23*%
G36*
X93425000Y-132885000D02*
G01*
X93425000Y-132385000D01*
X93750000Y-132385000D01*
X93750000Y-131615000D01*
X93425000Y-131615000D01*
X93425000Y-131115000D01*
X93750000Y-131115000D01*
X93750000Y-130345000D01*
X93425000Y-130345000D01*
X93425000Y-129845000D01*
X94150000Y-129845000D01*
X94150000Y-132885000D01*
X93425000Y-132885000D01*
G37*
D14*
X93750000Y-133905000D03*
D13*
G36*
X99020000Y-130345000D02*
G01*
X99020000Y-131115000D01*
X99575000Y-131115000D01*
X99575000Y-131615000D01*
X99020000Y-131615000D01*
X99020000Y-132385000D01*
X99575000Y-132385000D01*
X99575000Y-132885000D01*
X99020000Y-132885000D01*
X99020000Y-133655000D01*
X99575000Y-133655000D01*
X99575000Y-134155000D01*
X99020000Y-134155000D01*
X99020000Y-134300000D01*
X94900000Y-134300000D01*
X94900000Y-129700000D01*
X99020000Y-129700000D01*
X99020000Y-129845000D01*
X99575000Y-129845000D01*
X99575000Y-130345000D01*
X99020000Y-130345000D01*
G37*
%TD*%
%TO.C,Q23*%
G36*
X43425000Y-132885000D02*
G01*
X43425000Y-132385000D01*
X43750000Y-132385000D01*
X43750000Y-131615000D01*
X43425000Y-131615000D01*
X43425000Y-131115000D01*
X43750000Y-131115000D01*
X43750000Y-130345000D01*
X43425000Y-130345000D01*
X43425000Y-129845000D01*
X44150000Y-129845000D01*
X44150000Y-132885000D01*
X43425000Y-132885000D01*
G37*
D14*
X43750000Y-133905000D03*
D13*
G36*
X49020000Y-130345000D02*
G01*
X49020000Y-131115000D01*
X49575000Y-131115000D01*
X49575000Y-131615000D01*
X49020000Y-131615000D01*
X49020000Y-132385000D01*
X49575000Y-132385000D01*
X49575000Y-132885000D01*
X49020000Y-132885000D01*
X49020000Y-133655000D01*
X49575000Y-133655000D01*
X49575000Y-134155000D01*
X49020000Y-134155000D01*
X49020000Y-134300000D01*
X44900000Y-134300000D01*
X44900000Y-129700000D01*
X49020000Y-129700000D01*
X49020000Y-129845000D01*
X49575000Y-129845000D01*
X49575000Y-130345000D01*
X49020000Y-130345000D01*
G37*
%TD*%
%TO.C,Q23*%
G36*
X93425000Y-82885000D02*
G01*
X93425000Y-82385000D01*
X93750000Y-82385000D01*
X93750000Y-81615000D01*
X93425000Y-81615000D01*
X93425000Y-81115000D01*
X93750000Y-81115000D01*
X93750000Y-80345000D01*
X93425000Y-80345000D01*
X93425000Y-79845000D01*
X94150000Y-79845000D01*
X94150000Y-82885000D01*
X93425000Y-82885000D01*
G37*
D14*
X93750000Y-83905000D03*
D13*
G36*
X99020000Y-80345000D02*
G01*
X99020000Y-81115000D01*
X99575000Y-81115000D01*
X99575000Y-81615000D01*
X99020000Y-81615000D01*
X99020000Y-82385000D01*
X99575000Y-82385000D01*
X99575000Y-82885000D01*
X99020000Y-82885000D01*
X99020000Y-83655000D01*
X99575000Y-83655000D01*
X99575000Y-84155000D01*
X99020000Y-84155000D01*
X99020000Y-84300000D01*
X94900000Y-84300000D01*
X94900000Y-79700000D01*
X99020000Y-79700000D01*
X99020000Y-79845000D01*
X99575000Y-79845000D01*
X99575000Y-80345000D01*
X99020000Y-80345000D01*
G37*
%TD*%
D11*
%TO.C,J4*%
X128500000Y-122500000D03*
X125500000Y-122500000D03*
%TD*%
%TO.C,J4*%
X78500000Y-122500000D03*
X75500000Y-122500000D03*
%TD*%
%TO.C,J4*%
X128500000Y-72500000D03*
X125500000Y-72500000D03*
%TD*%
D15*
%TO.C,MB2*%
X129000000Y-105500000D03*
%TD*%
%TO.C,MB2*%
X79000000Y-105500000D03*
%TD*%
%TO.C,MB2*%
X129000000Y-55500000D03*
%TD*%
%TO.C,MB4*%
X101000000Y-124500000D03*
%TD*%
%TO.C,MB4*%
X51000000Y-124500000D03*
%TD*%
%TO.C,MB4*%
X101000000Y-74500000D03*
%TD*%
D13*
%TO.C,Q9*%
G36*
X136575000Y-104115000D02*
G01*
X136575000Y-104615000D01*
X136250000Y-104615000D01*
X136250000Y-105385000D01*
X136575000Y-105385000D01*
X136575000Y-105885000D01*
X136250000Y-105885000D01*
X136250000Y-106655000D01*
X136575000Y-106655000D01*
X136575000Y-107155000D01*
X135850000Y-107155000D01*
X135850000Y-104115000D01*
X136575000Y-104115000D01*
G37*
D14*
X136250000Y-103095000D03*
D13*
G36*
X130980000Y-106655000D02*
G01*
X130980000Y-105885000D01*
X130425000Y-105885000D01*
X130425000Y-105385000D01*
X130980000Y-105385000D01*
X130980000Y-104615000D01*
X130425000Y-104615000D01*
X130425000Y-104115000D01*
X130980000Y-104115000D01*
X130980000Y-103345000D01*
X130425000Y-103345000D01*
X130425000Y-102845000D01*
X130980000Y-102845000D01*
X130980000Y-102700000D01*
X135100000Y-102700000D01*
X135100000Y-107300000D01*
X130980000Y-107300000D01*
X130980000Y-107155000D01*
X130425000Y-107155000D01*
X130425000Y-106655000D01*
X130980000Y-106655000D01*
G37*
%TD*%
%TO.C,Q9*%
G36*
X86575000Y-104115000D02*
G01*
X86575000Y-104615000D01*
X86250000Y-104615000D01*
X86250000Y-105385000D01*
X86575000Y-105385000D01*
X86575000Y-105885000D01*
X86250000Y-105885000D01*
X86250000Y-106655000D01*
X86575000Y-106655000D01*
X86575000Y-107155000D01*
X85850000Y-107155000D01*
X85850000Y-104115000D01*
X86575000Y-104115000D01*
G37*
D14*
X86250000Y-103095000D03*
D13*
G36*
X80980000Y-106655000D02*
G01*
X80980000Y-105885000D01*
X80425000Y-105885000D01*
X80425000Y-105385000D01*
X80980000Y-105385000D01*
X80980000Y-104615000D01*
X80425000Y-104615000D01*
X80425000Y-104115000D01*
X80980000Y-104115000D01*
X80980000Y-103345000D01*
X80425000Y-103345000D01*
X80425000Y-102845000D01*
X80980000Y-102845000D01*
X80980000Y-102700000D01*
X85100000Y-102700000D01*
X85100000Y-107300000D01*
X80980000Y-107300000D01*
X80980000Y-107155000D01*
X80425000Y-107155000D01*
X80425000Y-106655000D01*
X80980000Y-106655000D01*
G37*
%TD*%
%TO.C,Q9*%
G36*
X136575000Y-54115000D02*
G01*
X136575000Y-54615000D01*
X136250000Y-54615000D01*
X136250000Y-55385000D01*
X136575000Y-55385000D01*
X136575000Y-55885000D01*
X136250000Y-55885000D01*
X136250000Y-56655000D01*
X136575000Y-56655000D01*
X136575000Y-57155000D01*
X135850000Y-57155000D01*
X135850000Y-54115000D01*
X136575000Y-54115000D01*
G37*
D14*
X136250000Y-53095000D03*
D13*
G36*
X130980000Y-56655000D02*
G01*
X130980000Y-55885000D01*
X130425000Y-55885000D01*
X130425000Y-55385000D01*
X130980000Y-55385000D01*
X130980000Y-54615000D01*
X130425000Y-54615000D01*
X130425000Y-54115000D01*
X130980000Y-54115000D01*
X130980000Y-53345000D01*
X130425000Y-53345000D01*
X130425000Y-52845000D01*
X130980000Y-52845000D01*
X130980000Y-52700000D01*
X135100000Y-52700000D01*
X135100000Y-57300000D01*
X130980000Y-57300000D01*
X130980000Y-57155000D01*
X130425000Y-57155000D01*
X130425000Y-56655000D01*
X130980000Y-56655000D01*
G37*
%TD*%
D11*
%TO.C,J18*%
X101500000Y-114500000D03*
X104500000Y-114500000D03*
%TD*%
%TO.C,J18*%
X51500000Y-114500000D03*
X54500000Y-114500000D03*
%TD*%
%TO.C,J18*%
X101500000Y-64500000D03*
X104500000Y-64500000D03*
%TD*%
D12*
%TO.C,JG7*%
X92500000Y-96500000D03*
%TD*%
%TO.C,JG7*%
X42500000Y-96500000D03*
%TD*%
%TO.C,JG7*%
X92500000Y-46500000D03*
%TD*%
%TO.C,JG8*%
X92500000Y-103500000D03*
%TD*%
%TO.C,JG8*%
X42500000Y-103500000D03*
%TD*%
%TO.C,JG8*%
X92500000Y-53500000D03*
%TD*%
D11*
%TO.C,J1*%
X137500000Y-129500000D03*
X134500000Y-129500000D03*
%TD*%
%TO.C,J1*%
X87500000Y-129500000D03*
X84500000Y-129500000D03*
%TD*%
%TO.C,J1*%
X137500000Y-79500000D03*
X134500000Y-79500000D03*
%TD*%
D10*
%TO.C,JB7*%
X110000000Y-97000000D03*
%TD*%
%TO.C,JB7*%
X60000000Y-97000000D03*
%TD*%
%TO.C,JB7*%
X110000000Y-47000000D03*
%TD*%
D11*
%TO.C,J14*%
X101500000Y-100500000D03*
X104500000Y-100500000D03*
%TD*%
%TO.C,J14*%
X51500000Y-100500000D03*
X54500000Y-100500000D03*
%TD*%
%TO.C,J14*%
X101500000Y-50500000D03*
X104500000Y-50500000D03*
%TD*%
%TO.C,J23*%
X92500000Y-135500000D03*
X95500000Y-135500000D03*
%TD*%
%TO.C,J23*%
X42500000Y-135500000D03*
X45500000Y-135500000D03*
%TD*%
%TO.C,J23*%
X92500000Y-85500000D03*
X95500000Y-85500000D03*
%TD*%
%TO.C,JT3*%
X113500000Y-133500000D03*
X116500000Y-133500000D03*
%TD*%
%TO.C,JT3*%
X63500000Y-133500000D03*
X66500000Y-133500000D03*
%TD*%
%TO.C,JT3*%
X113500000Y-83500000D03*
X116500000Y-83500000D03*
%TD*%
D13*
%TO.C,Q20*%
G36*
X102425000Y-118885000D02*
G01*
X102425000Y-118385000D01*
X102750000Y-118385000D01*
X102750000Y-117615000D01*
X102425000Y-117615000D01*
X102425000Y-117115000D01*
X102750000Y-117115000D01*
X102750000Y-116345000D01*
X102425000Y-116345000D01*
X102425000Y-115845000D01*
X103150000Y-115845000D01*
X103150000Y-118885000D01*
X102425000Y-118885000D01*
G37*
D14*
X102750000Y-119905000D03*
D13*
G36*
X108020000Y-116345000D02*
G01*
X108020000Y-117115000D01*
X108575000Y-117115000D01*
X108575000Y-117615000D01*
X108020000Y-117615000D01*
X108020000Y-118385000D01*
X108575000Y-118385000D01*
X108575000Y-118885000D01*
X108020000Y-118885000D01*
X108020000Y-119655000D01*
X108575000Y-119655000D01*
X108575000Y-120155000D01*
X108020000Y-120155000D01*
X108020000Y-120300000D01*
X103900000Y-120300000D01*
X103900000Y-115700000D01*
X108020000Y-115700000D01*
X108020000Y-115845000D01*
X108575000Y-115845000D01*
X108575000Y-116345000D01*
X108020000Y-116345000D01*
G37*
%TD*%
%TO.C,Q20*%
G36*
X52425000Y-118885000D02*
G01*
X52425000Y-118385000D01*
X52750000Y-118385000D01*
X52750000Y-117615000D01*
X52425000Y-117615000D01*
X52425000Y-117115000D01*
X52750000Y-117115000D01*
X52750000Y-116345000D01*
X52425000Y-116345000D01*
X52425000Y-115845000D01*
X53150000Y-115845000D01*
X53150000Y-118885000D01*
X52425000Y-118885000D01*
G37*
D14*
X52750000Y-119905000D03*
D13*
G36*
X58020000Y-116345000D02*
G01*
X58020000Y-117115000D01*
X58575000Y-117115000D01*
X58575000Y-117615000D01*
X58020000Y-117615000D01*
X58020000Y-118385000D01*
X58575000Y-118385000D01*
X58575000Y-118885000D01*
X58020000Y-118885000D01*
X58020000Y-119655000D01*
X58575000Y-119655000D01*
X58575000Y-120155000D01*
X58020000Y-120155000D01*
X58020000Y-120300000D01*
X53900000Y-120300000D01*
X53900000Y-115700000D01*
X58020000Y-115700000D01*
X58020000Y-115845000D01*
X58575000Y-115845000D01*
X58575000Y-116345000D01*
X58020000Y-116345000D01*
G37*
%TD*%
%TO.C,Q20*%
G36*
X102425000Y-68885000D02*
G01*
X102425000Y-68385000D01*
X102750000Y-68385000D01*
X102750000Y-67615000D01*
X102425000Y-67615000D01*
X102425000Y-67115000D01*
X102750000Y-67115000D01*
X102750000Y-66345000D01*
X102425000Y-66345000D01*
X102425000Y-65845000D01*
X103150000Y-65845000D01*
X103150000Y-68885000D01*
X102425000Y-68885000D01*
G37*
D14*
X102750000Y-69905000D03*
D13*
G36*
X108020000Y-66345000D02*
G01*
X108020000Y-67115000D01*
X108575000Y-67115000D01*
X108575000Y-67615000D01*
X108020000Y-67615000D01*
X108020000Y-68385000D01*
X108575000Y-68385000D01*
X108575000Y-68885000D01*
X108020000Y-68885000D01*
X108020000Y-69655000D01*
X108575000Y-69655000D01*
X108575000Y-70155000D01*
X108020000Y-70155000D01*
X108020000Y-70300000D01*
X103900000Y-70300000D01*
X103900000Y-65700000D01*
X108020000Y-65700000D01*
X108020000Y-65845000D01*
X108575000Y-65845000D01*
X108575000Y-66345000D01*
X108020000Y-66345000D01*
G37*
%TD*%
%TO.C,Q21*%
G36*
X93425000Y-125885000D02*
G01*
X93425000Y-125385000D01*
X93750000Y-125385000D01*
X93750000Y-124615000D01*
X93425000Y-124615000D01*
X93425000Y-124115000D01*
X93750000Y-124115000D01*
X93750000Y-123345000D01*
X93425000Y-123345000D01*
X93425000Y-122845000D01*
X94150000Y-122845000D01*
X94150000Y-125885000D01*
X93425000Y-125885000D01*
G37*
D14*
X93750000Y-126905000D03*
D13*
G36*
X99020000Y-123345000D02*
G01*
X99020000Y-124115000D01*
X99575000Y-124115000D01*
X99575000Y-124615000D01*
X99020000Y-124615000D01*
X99020000Y-125385000D01*
X99575000Y-125385000D01*
X99575000Y-125885000D01*
X99020000Y-125885000D01*
X99020000Y-126655000D01*
X99575000Y-126655000D01*
X99575000Y-127155000D01*
X99020000Y-127155000D01*
X99020000Y-127300000D01*
X94900000Y-127300000D01*
X94900000Y-122700000D01*
X99020000Y-122700000D01*
X99020000Y-122845000D01*
X99575000Y-122845000D01*
X99575000Y-123345000D01*
X99020000Y-123345000D01*
G37*
%TD*%
%TO.C,Q21*%
G36*
X43425000Y-125885000D02*
G01*
X43425000Y-125385000D01*
X43750000Y-125385000D01*
X43750000Y-124615000D01*
X43425000Y-124615000D01*
X43425000Y-124115000D01*
X43750000Y-124115000D01*
X43750000Y-123345000D01*
X43425000Y-123345000D01*
X43425000Y-122845000D01*
X44150000Y-122845000D01*
X44150000Y-125885000D01*
X43425000Y-125885000D01*
G37*
D14*
X43750000Y-126905000D03*
D13*
G36*
X49020000Y-123345000D02*
G01*
X49020000Y-124115000D01*
X49575000Y-124115000D01*
X49575000Y-124615000D01*
X49020000Y-124615000D01*
X49020000Y-125385000D01*
X49575000Y-125385000D01*
X49575000Y-125885000D01*
X49020000Y-125885000D01*
X49020000Y-126655000D01*
X49575000Y-126655000D01*
X49575000Y-127155000D01*
X49020000Y-127155000D01*
X49020000Y-127300000D01*
X44900000Y-127300000D01*
X44900000Y-122700000D01*
X49020000Y-122700000D01*
X49020000Y-122845000D01*
X49575000Y-122845000D01*
X49575000Y-123345000D01*
X49020000Y-123345000D01*
G37*
%TD*%
%TO.C,Q21*%
G36*
X93425000Y-75885000D02*
G01*
X93425000Y-75385000D01*
X93750000Y-75385000D01*
X93750000Y-74615000D01*
X93425000Y-74615000D01*
X93425000Y-74115000D01*
X93750000Y-74115000D01*
X93750000Y-73345000D01*
X93425000Y-73345000D01*
X93425000Y-72845000D01*
X94150000Y-72845000D01*
X94150000Y-75885000D01*
X93425000Y-75885000D01*
G37*
D14*
X93750000Y-76905000D03*
D13*
G36*
X99020000Y-73345000D02*
G01*
X99020000Y-74115000D01*
X99575000Y-74115000D01*
X99575000Y-74615000D01*
X99020000Y-74615000D01*
X99020000Y-75385000D01*
X99575000Y-75385000D01*
X99575000Y-75885000D01*
X99020000Y-75885000D01*
X99020000Y-76655000D01*
X99575000Y-76655000D01*
X99575000Y-77155000D01*
X99020000Y-77155000D01*
X99020000Y-77300000D01*
X94900000Y-77300000D01*
X94900000Y-72700000D01*
X99020000Y-72700000D01*
X99020000Y-72845000D01*
X99575000Y-72845000D01*
X99575000Y-73345000D01*
X99020000Y-73345000D01*
G37*
%TD*%
%TO.C,Q22*%
G36*
X102425000Y-125885000D02*
G01*
X102425000Y-125385000D01*
X102750000Y-125385000D01*
X102750000Y-124615000D01*
X102425000Y-124615000D01*
X102425000Y-124115000D01*
X102750000Y-124115000D01*
X102750000Y-123345000D01*
X102425000Y-123345000D01*
X102425000Y-122845000D01*
X103150000Y-122845000D01*
X103150000Y-125885000D01*
X102425000Y-125885000D01*
G37*
D14*
X102750000Y-126905000D03*
D13*
G36*
X108020000Y-123345000D02*
G01*
X108020000Y-124115000D01*
X108575000Y-124115000D01*
X108575000Y-124615000D01*
X108020000Y-124615000D01*
X108020000Y-125385000D01*
X108575000Y-125385000D01*
X108575000Y-125885000D01*
X108020000Y-125885000D01*
X108020000Y-126655000D01*
X108575000Y-126655000D01*
X108575000Y-127155000D01*
X108020000Y-127155000D01*
X108020000Y-127300000D01*
X103900000Y-127300000D01*
X103900000Y-122700000D01*
X108020000Y-122700000D01*
X108020000Y-122845000D01*
X108575000Y-122845000D01*
X108575000Y-123345000D01*
X108020000Y-123345000D01*
G37*
%TD*%
%TO.C,Q22*%
G36*
X52425000Y-125885000D02*
G01*
X52425000Y-125385000D01*
X52750000Y-125385000D01*
X52750000Y-124615000D01*
X52425000Y-124615000D01*
X52425000Y-124115000D01*
X52750000Y-124115000D01*
X52750000Y-123345000D01*
X52425000Y-123345000D01*
X52425000Y-122845000D01*
X53150000Y-122845000D01*
X53150000Y-125885000D01*
X52425000Y-125885000D01*
G37*
D14*
X52750000Y-126905000D03*
D13*
G36*
X58020000Y-123345000D02*
G01*
X58020000Y-124115000D01*
X58575000Y-124115000D01*
X58575000Y-124615000D01*
X58020000Y-124615000D01*
X58020000Y-125385000D01*
X58575000Y-125385000D01*
X58575000Y-125885000D01*
X58020000Y-125885000D01*
X58020000Y-126655000D01*
X58575000Y-126655000D01*
X58575000Y-127155000D01*
X58020000Y-127155000D01*
X58020000Y-127300000D01*
X53900000Y-127300000D01*
X53900000Y-122700000D01*
X58020000Y-122700000D01*
X58020000Y-122845000D01*
X58575000Y-122845000D01*
X58575000Y-123345000D01*
X58020000Y-123345000D01*
G37*
%TD*%
%TO.C,Q22*%
G36*
X102425000Y-75885000D02*
G01*
X102425000Y-75385000D01*
X102750000Y-75385000D01*
X102750000Y-74615000D01*
X102425000Y-74615000D01*
X102425000Y-74115000D01*
X102750000Y-74115000D01*
X102750000Y-73345000D01*
X102425000Y-73345000D01*
X102425000Y-72845000D01*
X103150000Y-72845000D01*
X103150000Y-75885000D01*
X102425000Y-75885000D01*
G37*
D14*
X102750000Y-76905000D03*
D13*
G36*
X108020000Y-73345000D02*
G01*
X108020000Y-74115000D01*
X108575000Y-74115000D01*
X108575000Y-74615000D01*
X108020000Y-74615000D01*
X108020000Y-75385000D01*
X108575000Y-75385000D01*
X108575000Y-75885000D01*
X108020000Y-75885000D01*
X108020000Y-76655000D01*
X108575000Y-76655000D01*
X108575000Y-77155000D01*
X108020000Y-77155000D01*
X108020000Y-77300000D01*
X103900000Y-77300000D01*
X103900000Y-72700000D01*
X108020000Y-72700000D01*
X108020000Y-72845000D01*
X108575000Y-72845000D01*
X108575000Y-73345000D01*
X108020000Y-73345000D01*
G37*
%TD*%
%TO.C,Q5*%
G36*
X136575000Y-118115000D02*
G01*
X136575000Y-118615000D01*
X136250000Y-118615000D01*
X136250000Y-119385000D01*
X136575000Y-119385000D01*
X136575000Y-119885000D01*
X136250000Y-119885000D01*
X136250000Y-120655000D01*
X136575000Y-120655000D01*
X136575000Y-121155000D01*
X135850000Y-121155000D01*
X135850000Y-118115000D01*
X136575000Y-118115000D01*
G37*
D14*
X136250000Y-117095000D03*
D13*
G36*
X130980000Y-120655000D02*
G01*
X130980000Y-119885000D01*
X130425000Y-119885000D01*
X130425000Y-119385000D01*
X130980000Y-119385000D01*
X130980000Y-118615000D01*
X130425000Y-118615000D01*
X130425000Y-118115000D01*
X130980000Y-118115000D01*
X130980000Y-117345000D01*
X130425000Y-117345000D01*
X130425000Y-116845000D01*
X130980000Y-116845000D01*
X130980000Y-116700000D01*
X135100000Y-116700000D01*
X135100000Y-121300000D01*
X130980000Y-121300000D01*
X130980000Y-121155000D01*
X130425000Y-121155000D01*
X130425000Y-120655000D01*
X130980000Y-120655000D01*
G37*
%TD*%
%TO.C,Q5*%
G36*
X86575000Y-118115000D02*
G01*
X86575000Y-118615000D01*
X86250000Y-118615000D01*
X86250000Y-119385000D01*
X86575000Y-119385000D01*
X86575000Y-119885000D01*
X86250000Y-119885000D01*
X86250000Y-120655000D01*
X86575000Y-120655000D01*
X86575000Y-121155000D01*
X85850000Y-121155000D01*
X85850000Y-118115000D01*
X86575000Y-118115000D01*
G37*
D14*
X86250000Y-117095000D03*
D13*
G36*
X80980000Y-120655000D02*
G01*
X80980000Y-119885000D01*
X80425000Y-119885000D01*
X80425000Y-119385000D01*
X80980000Y-119385000D01*
X80980000Y-118615000D01*
X80425000Y-118615000D01*
X80425000Y-118115000D01*
X80980000Y-118115000D01*
X80980000Y-117345000D01*
X80425000Y-117345000D01*
X80425000Y-116845000D01*
X80980000Y-116845000D01*
X80980000Y-116700000D01*
X85100000Y-116700000D01*
X85100000Y-121300000D01*
X80980000Y-121300000D01*
X80980000Y-121155000D01*
X80425000Y-121155000D01*
X80425000Y-120655000D01*
X80980000Y-120655000D01*
G37*
%TD*%
%TO.C,Q5*%
G36*
X136575000Y-68115000D02*
G01*
X136575000Y-68615000D01*
X136250000Y-68615000D01*
X136250000Y-69385000D01*
X136575000Y-69385000D01*
X136575000Y-69885000D01*
X136250000Y-69885000D01*
X136250000Y-70655000D01*
X136575000Y-70655000D01*
X136575000Y-71155000D01*
X135850000Y-71155000D01*
X135850000Y-68115000D01*
X136575000Y-68115000D01*
G37*
D14*
X136250000Y-67095000D03*
D13*
G36*
X130980000Y-70655000D02*
G01*
X130980000Y-69885000D01*
X130425000Y-69885000D01*
X130425000Y-69385000D01*
X130980000Y-69385000D01*
X130980000Y-68615000D01*
X130425000Y-68615000D01*
X130425000Y-68115000D01*
X130980000Y-68115000D01*
X130980000Y-67345000D01*
X130425000Y-67345000D01*
X130425000Y-66845000D01*
X130980000Y-66845000D01*
X130980000Y-66700000D01*
X135100000Y-66700000D01*
X135100000Y-71300000D01*
X130980000Y-71300000D01*
X130980000Y-71155000D01*
X130425000Y-71155000D01*
X130425000Y-70655000D01*
X130980000Y-70655000D01*
G37*
%TD*%
%TO.C,Q15*%
G36*
X93425000Y-104885000D02*
G01*
X93425000Y-104385000D01*
X93750000Y-104385000D01*
X93750000Y-103615000D01*
X93425000Y-103615000D01*
X93425000Y-103115000D01*
X93750000Y-103115000D01*
X93750000Y-102345000D01*
X93425000Y-102345000D01*
X93425000Y-101845000D01*
X94150000Y-101845000D01*
X94150000Y-104885000D01*
X93425000Y-104885000D01*
G37*
D14*
X93750000Y-105905000D03*
D13*
G36*
X99020000Y-102345000D02*
G01*
X99020000Y-103115000D01*
X99575000Y-103115000D01*
X99575000Y-103615000D01*
X99020000Y-103615000D01*
X99020000Y-104385000D01*
X99575000Y-104385000D01*
X99575000Y-104885000D01*
X99020000Y-104885000D01*
X99020000Y-105655000D01*
X99575000Y-105655000D01*
X99575000Y-106155000D01*
X99020000Y-106155000D01*
X99020000Y-106300000D01*
X94900000Y-106300000D01*
X94900000Y-101700000D01*
X99020000Y-101700000D01*
X99020000Y-101845000D01*
X99575000Y-101845000D01*
X99575000Y-102345000D01*
X99020000Y-102345000D01*
G37*
%TD*%
%TO.C,Q15*%
G36*
X43425000Y-104885000D02*
G01*
X43425000Y-104385000D01*
X43750000Y-104385000D01*
X43750000Y-103615000D01*
X43425000Y-103615000D01*
X43425000Y-103115000D01*
X43750000Y-103115000D01*
X43750000Y-102345000D01*
X43425000Y-102345000D01*
X43425000Y-101845000D01*
X44150000Y-101845000D01*
X44150000Y-104885000D01*
X43425000Y-104885000D01*
G37*
D14*
X43750000Y-105905000D03*
D13*
G36*
X49020000Y-102345000D02*
G01*
X49020000Y-103115000D01*
X49575000Y-103115000D01*
X49575000Y-103615000D01*
X49020000Y-103615000D01*
X49020000Y-104385000D01*
X49575000Y-104385000D01*
X49575000Y-104885000D01*
X49020000Y-104885000D01*
X49020000Y-105655000D01*
X49575000Y-105655000D01*
X49575000Y-106155000D01*
X49020000Y-106155000D01*
X49020000Y-106300000D01*
X44900000Y-106300000D01*
X44900000Y-101700000D01*
X49020000Y-101700000D01*
X49020000Y-101845000D01*
X49575000Y-101845000D01*
X49575000Y-102345000D01*
X49020000Y-102345000D01*
G37*
%TD*%
%TO.C,Q15*%
G36*
X93425000Y-54885000D02*
G01*
X93425000Y-54385000D01*
X93750000Y-54385000D01*
X93750000Y-53615000D01*
X93425000Y-53615000D01*
X93425000Y-53115000D01*
X93750000Y-53115000D01*
X93750000Y-52345000D01*
X93425000Y-52345000D01*
X93425000Y-51845000D01*
X94150000Y-51845000D01*
X94150000Y-54885000D01*
X93425000Y-54885000D01*
G37*
D14*
X93750000Y-55905000D03*
D13*
G36*
X99020000Y-52345000D02*
G01*
X99020000Y-53115000D01*
X99575000Y-53115000D01*
X99575000Y-53615000D01*
X99020000Y-53615000D01*
X99020000Y-54385000D01*
X99575000Y-54385000D01*
X99575000Y-54885000D01*
X99020000Y-54885000D01*
X99020000Y-55655000D01*
X99575000Y-55655000D01*
X99575000Y-56155000D01*
X99020000Y-56155000D01*
X99020000Y-56300000D01*
X94900000Y-56300000D01*
X94900000Y-51700000D01*
X99020000Y-51700000D01*
X99020000Y-51845000D01*
X99575000Y-51845000D01*
X99575000Y-52345000D01*
X99020000Y-52345000D01*
G37*
%TD*%
%TO.C,Q10*%
G36*
X127575000Y-104115000D02*
G01*
X127575000Y-104615000D01*
X127250000Y-104615000D01*
X127250000Y-105385000D01*
X127575000Y-105385000D01*
X127575000Y-105885000D01*
X127250000Y-105885000D01*
X127250000Y-106655000D01*
X127575000Y-106655000D01*
X127575000Y-107155000D01*
X126850000Y-107155000D01*
X126850000Y-104115000D01*
X127575000Y-104115000D01*
G37*
D14*
X127250000Y-103095000D03*
D13*
G36*
X121980000Y-106655000D02*
G01*
X121980000Y-105885000D01*
X121425000Y-105885000D01*
X121425000Y-105385000D01*
X121980000Y-105385000D01*
X121980000Y-104615000D01*
X121425000Y-104615000D01*
X121425000Y-104115000D01*
X121980000Y-104115000D01*
X121980000Y-103345000D01*
X121425000Y-103345000D01*
X121425000Y-102845000D01*
X121980000Y-102845000D01*
X121980000Y-102700000D01*
X126100000Y-102700000D01*
X126100000Y-107300000D01*
X121980000Y-107300000D01*
X121980000Y-107155000D01*
X121425000Y-107155000D01*
X121425000Y-106655000D01*
X121980000Y-106655000D01*
G37*
%TD*%
%TO.C,Q10*%
G36*
X77575000Y-104115000D02*
G01*
X77575000Y-104615000D01*
X77250000Y-104615000D01*
X77250000Y-105385000D01*
X77575000Y-105385000D01*
X77575000Y-105885000D01*
X77250000Y-105885000D01*
X77250000Y-106655000D01*
X77575000Y-106655000D01*
X77575000Y-107155000D01*
X76850000Y-107155000D01*
X76850000Y-104115000D01*
X77575000Y-104115000D01*
G37*
D14*
X77250000Y-103095000D03*
D13*
G36*
X71980000Y-106655000D02*
G01*
X71980000Y-105885000D01*
X71425000Y-105885000D01*
X71425000Y-105385000D01*
X71980000Y-105385000D01*
X71980000Y-104615000D01*
X71425000Y-104615000D01*
X71425000Y-104115000D01*
X71980000Y-104115000D01*
X71980000Y-103345000D01*
X71425000Y-103345000D01*
X71425000Y-102845000D01*
X71980000Y-102845000D01*
X71980000Y-102700000D01*
X76100000Y-102700000D01*
X76100000Y-107300000D01*
X71980000Y-107300000D01*
X71980000Y-107155000D01*
X71425000Y-107155000D01*
X71425000Y-106655000D01*
X71980000Y-106655000D01*
G37*
%TD*%
%TO.C,Q10*%
G36*
X127575000Y-54115000D02*
G01*
X127575000Y-54615000D01*
X127250000Y-54615000D01*
X127250000Y-55385000D01*
X127575000Y-55385000D01*
X127575000Y-55885000D01*
X127250000Y-55885000D01*
X127250000Y-56655000D01*
X127575000Y-56655000D01*
X127575000Y-57155000D01*
X126850000Y-57155000D01*
X126850000Y-54115000D01*
X127575000Y-54115000D01*
G37*
D14*
X127250000Y-53095000D03*
D13*
G36*
X121980000Y-56655000D02*
G01*
X121980000Y-55885000D01*
X121425000Y-55885000D01*
X121425000Y-55385000D01*
X121980000Y-55385000D01*
X121980000Y-54615000D01*
X121425000Y-54615000D01*
X121425000Y-54115000D01*
X121980000Y-54115000D01*
X121980000Y-53345000D01*
X121425000Y-53345000D01*
X121425000Y-52845000D01*
X121980000Y-52845000D01*
X121980000Y-52700000D01*
X126100000Y-52700000D01*
X126100000Y-57300000D01*
X121980000Y-57300000D01*
X121980000Y-57155000D01*
X121425000Y-57155000D01*
X121425000Y-56655000D01*
X121980000Y-56655000D01*
G37*
%TD*%
D11*
%TO.C,JT2*%
X119500000Y-94500000D03*
X122500000Y-94500000D03*
%TD*%
%TO.C,JT2*%
X69500000Y-94500000D03*
X72500000Y-94500000D03*
%TD*%
%TO.C,JT2*%
X119500000Y-44500000D03*
X122500000Y-44500000D03*
%TD*%
D16*
%TO.C,JB0*%
X115000000Y-137000000D03*
%TD*%
%TO.C,JB0*%
X65000000Y-137000000D03*
%TD*%
%TO.C,JB0*%
X115000000Y-87000000D03*
%TD*%
D12*
%TO.C,JG12*%
X92500000Y-131500000D03*
%TD*%
%TO.C,JG12*%
X42500000Y-131500000D03*
%TD*%
%TO.C,JG12*%
X92500000Y-81500000D03*
%TD*%
D13*
%TO.C,Q19*%
G36*
X93425000Y-118885000D02*
G01*
X93425000Y-118385000D01*
X93750000Y-118385000D01*
X93750000Y-117615000D01*
X93425000Y-117615000D01*
X93425000Y-117115000D01*
X93750000Y-117115000D01*
X93750000Y-116345000D01*
X93425000Y-116345000D01*
X93425000Y-115845000D01*
X94150000Y-115845000D01*
X94150000Y-118885000D01*
X93425000Y-118885000D01*
G37*
D14*
X93750000Y-119905000D03*
D13*
G36*
X99020000Y-116345000D02*
G01*
X99020000Y-117115000D01*
X99575000Y-117115000D01*
X99575000Y-117615000D01*
X99020000Y-117615000D01*
X99020000Y-118385000D01*
X99575000Y-118385000D01*
X99575000Y-118885000D01*
X99020000Y-118885000D01*
X99020000Y-119655000D01*
X99575000Y-119655000D01*
X99575000Y-120155000D01*
X99020000Y-120155000D01*
X99020000Y-120300000D01*
X94900000Y-120300000D01*
X94900000Y-115700000D01*
X99020000Y-115700000D01*
X99020000Y-115845000D01*
X99575000Y-115845000D01*
X99575000Y-116345000D01*
X99020000Y-116345000D01*
G37*
%TD*%
%TO.C,Q19*%
G36*
X43425000Y-118885000D02*
G01*
X43425000Y-118385000D01*
X43750000Y-118385000D01*
X43750000Y-117615000D01*
X43425000Y-117615000D01*
X43425000Y-117115000D01*
X43750000Y-117115000D01*
X43750000Y-116345000D01*
X43425000Y-116345000D01*
X43425000Y-115845000D01*
X44150000Y-115845000D01*
X44150000Y-118885000D01*
X43425000Y-118885000D01*
G37*
D14*
X43750000Y-119905000D03*
D13*
G36*
X49020000Y-116345000D02*
G01*
X49020000Y-117115000D01*
X49575000Y-117115000D01*
X49575000Y-117615000D01*
X49020000Y-117615000D01*
X49020000Y-118385000D01*
X49575000Y-118385000D01*
X49575000Y-118885000D01*
X49020000Y-118885000D01*
X49020000Y-119655000D01*
X49575000Y-119655000D01*
X49575000Y-120155000D01*
X49020000Y-120155000D01*
X49020000Y-120300000D01*
X44900000Y-120300000D01*
X44900000Y-115700000D01*
X49020000Y-115700000D01*
X49020000Y-115845000D01*
X49575000Y-115845000D01*
X49575000Y-116345000D01*
X49020000Y-116345000D01*
G37*
%TD*%
%TO.C,Q19*%
G36*
X93425000Y-68885000D02*
G01*
X93425000Y-68385000D01*
X93750000Y-68385000D01*
X93750000Y-67615000D01*
X93425000Y-67615000D01*
X93425000Y-67115000D01*
X93750000Y-67115000D01*
X93750000Y-66345000D01*
X93425000Y-66345000D01*
X93425000Y-65845000D01*
X94150000Y-65845000D01*
X94150000Y-68885000D01*
X93425000Y-68885000D01*
G37*
D14*
X93750000Y-69905000D03*
D13*
G36*
X99020000Y-66345000D02*
G01*
X99020000Y-67115000D01*
X99575000Y-67115000D01*
X99575000Y-67615000D01*
X99020000Y-67615000D01*
X99020000Y-68385000D01*
X99575000Y-68385000D01*
X99575000Y-68885000D01*
X99020000Y-68885000D01*
X99020000Y-69655000D01*
X99575000Y-69655000D01*
X99575000Y-70155000D01*
X99020000Y-70155000D01*
X99020000Y-70300000D01*
X94900000Y-70300000D01*
X94900000Y-65700000D01*
X99020000Y-65700000D01*
X99020000Y-65845000D01*
X99575000Y-65845000D01*
X99575000Y-66345000D01*
X99020000Y-66345000D01*
G37*
%TD*%
D15*
%TO.C,MC1*%
X129000000Y-119500000D03*
%TD*%
%TO.C,MC1*%
X79000000Y-119500000D03*
%TD*%
%TO.C,MC1*%
X129000000Y-69500000D03*
%TD*%
D11*
%TO.C,J2*%
X128500000Y-129500000D03*
X125500000Y-129500000D03*
%TD*%
%TO.C,J2*%
X78500000Y-129500000D03*
X75500000Y-129500000D03*
%TD*%
%TO.C,J2*%
X128500000Y-79500000D03*
X125500000Y-79500000D03*
%TD*%
D13*
%TO.C,Q12*%
G36*
X127575000Y-97115000D02*
G01*
X127575000Y-97615000D01*
X127250000Y-97615000D01*
X127250000Y-98385000D01*
X127575000Y-98385000D01*
X127575000Y-98885000D01*
X127250000Y-98885000D01*
X127250000Y-99655000D01*
X127575000Y-99655000D01*
X127575000Y-100155000D01*
X126850000Y-100155000D01*
X126850000Y-97115000D01*
X127575000Y-97115000D01*
G37*
D14*
X127250000Y-96095000D03*
D13*
G36*
X121980000Y-99655000D02*
G01*
X121980000Y-98885000D01*
X121425000Y-98885000D01*
X121425000Y-98385000D01*
X121980000Y-98385000D01*
X121980000Y-97615000D01*
X121425000Y-97615000D01*
X121425000Y-97115000D01*
X121980000Y-97115000D01*
X121980000Y-96345000D01*
X121425000Y-96345000D01*
X121425000Y-95845000D01*
X121980000Y-95845000D01*
X121980000Y-95700000D01*
X126100000Y-95700000D01*
X126100000Y-100300000D01*
X121980000Y-100300000D01*
X121980000Y-100155000D01*
X121425000Y-100155000D01*
X121425000Y-99655000D01*
X121980000Y-99655000D01*
G37*
%TD*%
%TO.C,Q12*%
G36*
X77575000Y-97115000D02*
G01*
X77575000Y-97615000D01*
X77250000Y-97615000D01*
X77250000Y-98385000D01*
X77575000Y-98385000D01*
X77575000Y-98885000D01*
X77250000Y-98885000D01*
X77250000Y-99655000D01*
X77575000Y-99655000D01*
X77575000Y-100155000D01*
X76850000Y-100155000D01*
X76850000Y-97115000D01*
X77575000Y-97115000D01*
G37*
D14*
X77250000Y-96095000D03*
D13*
G36*
X71980000Y-99655000D02*
G01*
X71980000Y-98885000D01*
X71425000Y-98885000D01*
X71425000Y-98385000D01*
X71980000Y-98385000D01*
X71980000Y-97615000D01*
X71425000Y-97615000D01*
X71425000Y-97115000D01*
X71980000Y-97115000D01*
X71980000Y-96345000D01*
X71425000Y-96345000D01*
X71425000Y-95845000D01*
X71980000Y-95845000D01*
X71980000Y-95700000D01*
X76100000Y-95700000D01*
X76100000Y-100300000D01*
X71980000Y-100300000D01*
X71980000Y-100155000D01*
X71425000Y-100155000D01*
X71425000Y-99655000D01*
X71980000Y-99655000D01*
G37*
%TD*%
%TO.C,Q12*%
G36*
X127575000Y-47115000D02*
G01*
X127575000Y-47615000D01*
X127250000Y-47615000D01*
X127250000Y-48385000D01*
X127575000Y-48385000D01*
X127575000Y-48885000D01*
X127250000Y-48885000D01*
X127250000Y-49655000D01*
X127575000Y-49655000D01*
X127575000Y-50155000D01*
X126850000Y-50155000D01*
X126850000Y-47115000D01*
X127575000Y-47115000D01*
G37*
D14*
X127250000Y-46095000D03*
D13*
G36*
X121980000Y-49655000D02*
G01*
X121980000Y-48885000D01*
X121425000Y-48885000D01*
X121425000Y-48385000D01*
X121980000Y-48385000D01*
X121980000Y-47615000D01*
X121425000Y-47615000D01*
X121425000Y-47115000D01*
X121980000Y-47115000D01*
X121980000Y-46345000D01*
X121425000Y-46345000D01*
X121425000Y-45845000D01*
X121980000Y-45845000D01*
X121980000Y-45700000D01*
X126100000Y-45700000D01*
X126100000Y-50300000D01*
X121980000Y-50300000D01*
X121980000Y-50155000D01*
X121425000Y-50155000D01*
X121425000Y-49655000D01*
X121980000Y-49655000D01*
G37*
%TD*%
%TO.C,Q14*%
G36*
X102425000Y-97885000D02*
G01*
X102425000Y-97385000D01*
X102750000Y-97385000D01*
X102750000Y-96615000D01*
X102425000Y-96615000D01*
X102425000Y-96115000D01*
X102750000Y-96115000D01*
X102750000Y-95345000D01*
X102425000Y-95345000D01*
X102425000Y-94845000D01*
X103150000Y-94845000D01*
X103150000Y-97885000D01*
X102425000Y-97885000D01*
G37*
D14*
X102750000Y-98905000D03*
D13*
G36*
X108020000Y-95345000D02*
G01*
X108020000Y-96115000D01*
X108575000Y-96115000D01*
X108575000Y-96615000D01*
X108020000Y-96615000D01*
X108020000Y-97385000D01*
X108575000Y-97385000D01*
X108575000Y-97885000D01*
X108020000Y-97885000D01*
X108020000Y-98655000D01*
X108575000Y-98655000D01*
X108575000Y-99155000D01*
X108020000Y-99155000D01*
X108020000Y-99300000D01*
X103900000Y-99300000D01*
X103900000Y-94700000D01*
X108020000Y-94700000D01*
X108020000Y-94845000D01*
X108575000Y-94845000D01*
X108575000Y-95345000D01*
X108020000Y-95345000D01*
G37*
%TD*%
%TO.C,Q14*%
G36*
X52425000Y-97885000D02*
G01*
X52425000Y-97385000D01*
X52750000Y-97385000D01*
X52750000Y-96615000D01*
X52425000Y-96615000D01*
X52425000Y-96115000D01*
X52750000Y-96115000D01*
X52750000Y-95345000D01*
X52425000Y-95345000D01*
X52425000Y-94845000D01*
X53150000Y-94845000D01*
X53150000Y-97885000D01*
X52425000Y-97885000D01*
G37*
D14*
X52750000Y-98905000D03*
D13*
G36*
X58020000Y-95345000D02*
G01*
X58020000Y-96115000D01*
X58575000Y-96115000D01*
X58575000Y-96615000D01*
X58020000Y-96615000D01*
X58020000Y-97385000D01*
X58575000Y-97385000D01*
X58575000Y-97885000D01*
X58020000Y-97885000D01*
X58020000Y-98655000D01*
X58575000Y-98655000D01*
X58575000Y-99155000D01*
X58020000Y-99155000D01*
X58020000Y-99300000D01*
X53900000Y-99300000D01*
X53900000Y-94700000D01*
X58020000Y-94700000D01*
X58020000Y-94845000D01*
X58575000Y-94845000D01*
X58575000Y-95345000D01*
X58020000Y-95345000D01*
G37*
%TD*%
%TO.C,Q14*%
G36*
X102425000Y-47885000D02*
G01*
X102425000Y-47385000D01*
X102750000Y-47385000D01*
X102750000Y-46615000D01*
X102425000Y-46615000D01*
X102425000Y-46115000D01*
X102750000Y-46115000D01*
X102750000Y-45345000D01*
X102425000Y-45345000D01*
X102425000Y-44845000D01*
X103150000Y-44845000D01*
X103150000Y-47885000D01*
X102425000Y-47885000D01*
G37*
D14*
X102750000Y-48905000D03*
D13*
G36*
X108020000Y-45345000D02*
G01*
X108020000Y-46115000D01*
X108575000Y-46115000D01*
X108575000Y-46615000D01*
X108020000Y-46615000D01*
X108020000Y-47385000D01*
X108575000Y-47385000D01*
X108575000Y-47885000D01*
X108020000Y-47885000D01*
X108020000Y-48655000D01*
X108575000Y-48655000D01*
X108575000Y-49155000D01*
X108020000Y-49155000D01*
X108020000Y-49300000D01*
X103900000Y-49300000D01*
X103900000Y-44700000D01*
X108020000Y-44700000D01*
X108020000Y-44845000D01*
X108575000Y-44845000D01*
X108575000Y-45345000D01*
X108020000Y-45345000D01*
G37*
%TD*%
%TO.C,Q18*%
G36*
X102425000Y-111885000D02*
G01*
X102425000Y-111385000D01*
X102750000Y-111385000D01*
X102750000Y-110615000D01*
X102425000Y-110615000D01*
X102425000Y-110115000D01*
X102750000Y-110115000D01*
X102750000Y-109345000D01*
X102425000Y-109345000D01*
X102425000Y-108845000D01*
X103150000Y-108845000D01*
X103150000Y-111885000D01*
X102425000Y-111885000D01*
G37*
D14*
X102750000Y-112905000D03*
D13*
G36*
X108020000Y-109345000D02*
G01*
X108020000Y-110115000D01*
X108575000Y-110115000D01*
X108575000Y-110615000D01*
X108020000Y-110615000D01*
X108020000Y-111385000D01*
X108575000Y-111385000D01*
X108575000Y-111885000D01*
X108020000Y-111885000D01*
X108020000Y-112655000D01*
X108575000Y-112655000D01*
X108575000Y-113155000D01*
X108020000Y-113155000D01*
X108020000Y-113300000D01*
X103900000Y-113300000D01*
X103900000Y-108700000D01*
X108020000Y-108700000D01*
X108020000Y-108845000D01*
X108575000Y-108845000D01*
X108575000Y-109345000D01*
X108020000Y-109345000D01*
G37*
%TD*%
%TO.C,Q18*%
G36*
X52425000Y-111885000D02*
G01*
X52425000Y-111385000D01*
X52750000Y-111385000D01*
X52750000Y-110615000D01*
X52425000Y-110615000D01*
X52425000Y-110115000D01*
X52750000Y-110115000D01*
X52750000Y-109345000D01*
X52425000Y-109345000D01*
X52425000Y-108845000D01*
X53150000Y-108845000D01*
X53150000Y-111885000D01*
X52425000Y-111885000D01*
G37*
D14*
X52750000Y-112905000D03*
D13*
G36*
X58020000Y-109345000D02*
G01*
X58020000Y-110115000D01*
X58575000Y-110115000D01*
X58575000Y-110615000D01*
X58020000Y-110615000D01*
X58020000Y-111385000D01*
X58575000Y-111385000D01*
X58575000Y-111885000D01*
X58020000Y-111885000D01*
X58020000Y-112655000D01*
X58575000Y-112655000D01*
X58575000Y-113155000D01*
X58020000Y-113155000D01*
X58020000Y-113300000D01*
X53900000Y-113300000D01*
X53900000Y-108700000D01*
X58020000Y-108700000D01*
X58020000Y-108845000D01*
X58575000Y-108845000D01*
X58575000Y-109345000D01*
X58020000Y-109345000D01*
G37*
%TD*%
%TO.C,Q18*%
G36*
X102425000Y-61885000D02*
G01*
X102425000Y-61385000D01*
X102750000Y-61385000D01*
X102750000Y-60615000D01*
X102425000Y-60615000D01*
X102425000Y-60115000D01*
X102750000Y-60115000D01*
X102750000Y-59345000D01*
X102425000Y-59345000D01*
X102425000Y-58845000D01*
X103150000Y-58845000D01*
X103150000Y-61885000D01*
X102425000Y-61885000D01*
G37*
D14*
X102750000Y-62905000D03*
D13*
G36*
X108020000Y-59345000D02*
G01*
X108020000Y-60115000D01*
X108575000Y-60115000D01*
X108575000Y-60615000D01*
X108020000Y-60615000D01*
X108020000Y-61385000D01*
X108575000Y-61385000D01*
X108575000Y-61885000D01*
X108020000Y-61885000D01*
X108020000Y-62655000D01*
X108575000Y-62655000D01*
X108575000Y-63155000D01*
X108020000Y-63155000D01*
X108020000Y-63300000D01*
X103900000Y-63300000D01*
X103900000Y-58700000D01*
X108020000Y-58700000D01*
X108020000Y-58845000D01*
X108575000Y-58845000D01*
X108575000Y-59345000D01*
X108020000Y-59345000D01*
G37*
%TD*%
%TO.C,Q13*%
G36*
X93425000Y-97885000D02*
G01*
X93425000Y-97385000D01*
X93750000Y-97385000D01*
X93750000Y-96615000D01*
X93425000Y-96615000D01*
X93425000Y-96115000D01*
X93750000Y-96115000D01*
X93750000Y-95345000D01*
X93425000Y-95345000D01*
X93425000Y-94845000D01*
X94150000Y-94845000D01*
X94150000Y-97885000D01*
X93425000Y-97885000D01*
G37*
D14*
X93750000Y-98905000D03*
D13*
G36*
X99020000Y-95345000D02*
G01*
X99020000Y-96115000D01*
X99575000Y-96115000D01*
X99575000Y-96615000D01*
X99020000Y-96615000D01*
X99020000Y-97385000D01*
X99575000Y-97385000D01*
X99575000Y-97885000D01*
X99020000Y-97885000D01*
X99020000Y-98655000D01*
X99575000Y-98655000D01*
X99575000Y-99155000D01*
X99020000Y-99155000D01*
X99020000Y-99300000D01*
X94900000Y-99300000D01*
X94900000Y-94700000D01*
X99020000Y-94700000D01*
X99020000Y-94845000D01*
X99575000Y-94845000D01*
X99575000Y-95345000D01*
X99020000Y-95345000D01*
G37*
%TD*%
%TO.C,Q13*%
G36*
X43425000Y-97885000D02*
G01*
X43425000Y-97385000D01*
X43750000Y-97385000D01*
X43750000Y-96615000D01*
X43425000Y-96615000D01*
X43425000Y-96115000D01*
X43750000Y-96115000D01*
X43750000Y-95345000D01*
X43425000Y-95345000D01*
X43425000Y-94845000D01*
X44150000Y-94845000D01*
X44150000Y-97885000D01*
X43425000Y-97885000D01*
G37*
D14*
X43750000Y-98905000D03*
D13*
G36*
X49020000Y-95345000D02*
G01*
X49020000Y-96115000D01*
X49575000Y-96115000D01*
X49575000Y-96615000D01*
X49020000Y-96615000D01*
X49020000Y-97385000D01*
X49575000Y-97385000D01*
X49575000Y-97885000D01*
X49020000Y-97885000D01*
X49020000Y-98655000D01*
X49575000Y-98655000D01*
X49575000Y-99155000D01*
X49020000Y-99155000D01*
X49020000Y-99300000D01*
X44900000Y-99300000D01*
X44900000Y-94700000D01*
X49020000Y-94700000D01*
X49020000Y-94845000D01*
X49575000Y-94845000D01*
X49575000Y-95345000D01*
X49020000Y-95345000D01*
G37*
%TD*%
%TO.C,Q13*%
G36*
X93425000Y-47885000D02*
G01*
X93425000Y-47385000D01*
X93750000Y-47385000D01*
X93750000Y-46615000D01*
X93425000Y-46615000D01*
X93425000Y-46115000D01*
X93750000Y-46115000D01*
X93750000Y-45345000D01*
X93425000Y-45345000D01*
X93425000Y-44845000D01*
X94150000Y-44845000D01*
X94150000Y-47885000D01*
X93425000Y-47885000D01*
G37*
D14*
X93750000Y-48905000D03*
D13*
G36*
X99020000Y-45345000D02*
G01*
X99020000Y-46115000D01*
X99575000Y-46115000D01*
X99575000Y-46615000D01*
X99020000Y-46615000D01*
X99020000Y-47385000D01*
X99575000Y-47385000D01*
X99575000Y-47885000D01*
X99020000Y-47885000D01*
X99020000Y-48655000D01*
X99575000Y-48655000D01*
X99575000Y-49155000D01*
X99020000Y-49155000D01*
X99020000Y-49300000D01*
X94900000Y-49300000D01*
X94900000Y-44700000D01*
X99020000Y-44700000D01*
X99020000Y-44845000D01*
X99575000Y-44845000D01*
X99575000Y-45345000D01*
X99020000Y-45345000D01*
G37*
%TD*%
%TO.C,Q1*%
G36*
X136575000Y-132115000D02*
G01*
X136575000Y-132615000D01*
X136250000Y-132615000D01*
X136250000Y-133385000D01*
X136575000Y-133385000D01*
X136575000Y-133885000D01*
X136250000Y-133885000D01*
X136250000Y-134655000D01*
X136575000Y-134655000D01*
X136575000Y-135155000D01*
X135850000Y-135155000D01*
X135850000Y-132115000D01*
X136575000Y-132115000D01*
G37*
D14*
X136250000Y-131095000D03*
D13*
G36*
X130980000Y-134655000D02*
G01*
X130980000Y-133885000D01*
X130425000Y-133885000D01*
X130425000Y-133385000D01*
X130980000Y-133385000D01*
X130980000Y-132615000D01*
X130425000Y-132615000D01*
X130425000Y-132115000D01*
X130980000Y-132115000D01*
X130980000Y-131345000D01*
X130425000Y-131345000D01*
X130425000Y-130845000D01*
X130980000Y-130845000D01*
X130980000Y-130700000D01*
X135100000Y-130700000D01*
X135100000Y-135300000D01*
X130980000Y-135300000D01*
X130980000Y-135155000D01*
X130425000Y-135155000D01*
X130425000Y-134655000D01*
X130980000Y-134655000D01*
G37*
%TD*%
%TO.C,Q1*%
G36*
X86575000Y-132115000D02*
G01*
X86575000Y-132615000D01*
X86250000Y-132615000D01*
X86250000Y-133385000D01*
X86575000Y-133385000D01*
X86575000Y-133885000D01*
X86250000Y-133885000D01*
X86250000Y-134655000D01*
X86575000Y-134655000D01*
X86575000Y-135155000D01*
X85850000Y-135155000D01*
X85850000Y-132115000D01*
X86575000Y-132115000D01*
G37*
D14*
X86250000Y-131095000D03*
D13*
G36*
X80980000Y-134655000D02*
G01*
X80980000Y-133885000D01*
X80425000Y-133885000D01*
X80425000Y-133385000D01*
X80980000Y-133385000D01*
X80980000Y-132615000D01*
X80425000Y-132615000D01*
X80425000Y-132115000D01*
X80980000Y-132115000D01*
X80980000Y-131345000D01*
X80425000Y-131345000D01*
X80425000Y-130845000D01*
X80980000Y-130845000D01*
X80980000Y-130700000D01*
X85100000Y-130700000D01*
X85100000Y-135300000D01*
X80980000Y-135300000D01*
X80980000Y-135155000D01*
X80425000Y-135155000D01*
X80425000Y-134655000D01*
X80980000Y-134655000D01*
G37*
%TD*%
%TO.C,Q1*%
G36*
X136575000Y-82115000D02*
G01*
X136575000Y-82615000D01*
X136250000Y-82615000D01*
X136250000Y-83385000D01*
X136575000Y-83385000D01*
X136575000Y-83885000D01*
X136250000Y-83885000D01*
X136250000Y-84655000D01*
X136575000Y-84655000D01*
X136575000Y-85155000D01*
X135850000Y-85155000D01*
X135850000Y-82115000D01*
X136575000Y-82115000D01*
G37*
D14*
X136250000Y-81095000D03*
D13*
G36*
X130980000Y-84655000D02*
G01*
X130980000Y-83885000D01*
X130425000Y-83885000D01*
X130425000Y-83385000D01*
X130980000Y-83385000D01*
X130980000Y-82615000D01*
X130425000Y-82615000D01*
X130425000Y-82115000D01*
X130980000Y-82115000D01*
X130980000Y-81345000D01*
X130425000Y-81345000D01*
X130425000Y-80845000D01*
X130980000Y-80845000D01*
X130980000Y-80700000D01*
X135100000Y-80700000D01*
X135100000Y-85300000D01*
X130980000Y-85300000D01*
X130980000Y-85155000D01*
X130425000Y-85155000D01*
X130425000Y-84655000D01*
X130980000Y-84655000D01*
G37*
%TD*%
%TO.C,Q2*%
G36*
X127575000Y-132115000D02*
G01*
X127575000Y-132615000D01*
X127250000Y-132615000D01*
X127250000Y-133385000D01*
X127575000Y-133385000D01*
X127575000Y-133885000D01*
X127250000Y-133885000D01*
X127250000Y-134655000D01*
X127575000Y-134655000D01*
X127575000Y-135155000D01*
X126850000Y-135155000D01*
X126850000Y-132115000D01*
X127575000Y-132115000D01*
G37*
D14*
X127250000Y-131095000D03*
D13*
G36*
X121980000Y-134655000D02*
G01*
X121980000Y-133885000D01*
X121425000Y-133885000D01*
X121425000Y-133385000D01*
X121980000Y-133385000D01*
X121980000Y-132615000D01*
X121425000Y-132615000D01*
X121425000Y-132115000D01*
X121980000Y-132115000D01*
X121980000Y-131345000D01*
X121425000Y-131345000D01*
X121425000Y-130845000D01*
X121980000Y-130845000D01*
X121980000Y-130700000D01*
X126100000Y-130700000D01*
X126100000Y-135300000D01*
X121980000Y-135300000D01*
X121980000Y-135155000D01*
X121425000Y-135155000D01*
X121425000Y-134655000D01*
X121980000Y-134655000D01*
G37*
%TD*%
%TO.C,Q2*%
G36*
X77575000Y-132115000D02*
G01*
X77575000Y-132615000D01*
X77250000Y-132615000D01*
X77250000Y-133385000D01*
X77575000Y-133385000D01*
X77575000Y-133885000D01*
X77250000Y-133885000D01*
X77250000Y-134655000D01*
X77575000Y-134655000D01*
X77575000Y-135155000D01*
X76850000Y-135155000D01*
X76850000Y-132115000D01*
X77575000Y-132115000D01*
G37*
D14*
X77250000Y-131095000D03*
D13*
G36*
X71980000Y-134655000D02*
G01*
X71980000Y-133885000D01*
X71425000Y-133885000D01*
X71425000Y-133385000D01*
X71980000Y-133385000D01*
X71980000Y-132615000D01*
X71425000Y-132615000D01*
X71425000Y-132115000D01*
X71980000Y-132115000D01*
X71980000Y-131345000D01*
X71425000Y-131345000D01*
X71425000Y-130845000D01*
X71980000Y-130845000D01*
X71980000Y-130700000D01*
X76100000Y-130700000D01*
X76100000Y-135300000D01*
X71980000Y-135300000D01*
X71980000Y-135155000D01*
X71425000Y-135155000D01*
X71425000Y-134655000D01*
X71980000Y-134655000D01*
G37*
%TD*%
%TO.C,Q2*%
G36*
X127575000Y-82115000D02*
G01*
X127575000Y-82615000D01*
X127250000Y-82615000D01*
X127250000Y-83385000D01*
X127575000Y-83385000D01*
X127575000Y-83885000D01*
X127250000Y-83885000D01*
X127250000Y-84655000D01*
X127575000Y-84655000D01*
X127575000Y-85155000D01*
X126850000Y-85155000D01*
X126850000Y-82115000D01*
X127575000Y-82115000D01*
G37*
D14*
X127250000Y-81095000D03*
D13*
G36*
X121980000Y-84655000D02*
G01*
X121980000Y-83885000D01*
X121425000Y-83885000D01*
X121425000Y-83385000D01*
X121980000Y-83385000D01*
X121980000Y-82615000D01*
X121425000Y-82615000D01*
X121425000Y-82115000D01*
X121980000Y-82115000D01*
X121980000Y-81345000D01*
X121425000Y-81345000D01*
X121425000Y-80845000D01*
X121980000Y-80845000D01*
X121980000Y-80700000D01*
X126100000Y-80700000D01*
X126100000Y-85300000D01*
X121980000Y-85300000D01*
X121980000Y-85155000D01*
X121425000Y-85155000D01*
X121425000Y-84655000D01*
X121980000Y-84655000D01*
G37*
%TD*%
D15*
%TO.C,MA2*%
X129000000Y-112500000D03*
%TD*%
%TO.C,MA2*%
X79000000Y-112500000D03*
%TD*%
%TO.C,MA2*%
X129000000Y-62500000D03*
%TD*%
D11*
%TO.C,J11*%
X137500000Y-94500000D03*
X134500000Y-94500000D03*
%TD*%
%TO.C,J11*%
X87500000Y-94500000D03*
X84500000Y-94500000D03*
%TD*%
%TO.C,J11*%
X137500000Y-44500000D03*
X134500000Y-44500000D03*
%TD*%
D10*
%TO.C,JB2*%
X120000000Y-126000000D03*
%TD*%
%TO.C,JB2*%
X70000000Y-126000000D03*
%TD*%
%TO.C,JB2*%
X120000000Y-76000000D03*
%TD*%
%TO.C,JB10*%
X110000000Y-118000000D03*
%TD*%
%TO.C,JB10*%
X60000000Y-118000000D03*
%TD*%
%TO.C,JB10*%
X110000000Y-68000000D03*
%TD*%
D11*
%TO.C,J22*%
X101500000Y-128500000D03*
X104500000Y-128500000D03*
%TD*%
%TO.C,J22*%
X51500000Y-128500000D03*
X54500000Y-128500000D03*
%TD*%
%TO.C,J22*%
X101500000Y-78500000D03*
X104500000Y-78500000D03*
%TD*%
D15*
%TO.C,MC4*%
X101000000Y-131500000D03*
%TD*%
%TO.C,MC4*%
X51000000Y-131500000D03*
%TD*%
%TO.C,MC4*%
X101000000Y-81500000D03*
%TD*%
D11*
%TO.C,J12*%
X128500000Y-94500000D03*
X125500000Y-94500000D03*
%TD*%
%TO.C,J12*%
X78500000Y-94500000D03*
X75500000Y-94500000D03*
%TD*%
%TO.C,J12*%
X128500000Y-44500000D03*
X125500000Y-44500000D03*
%TD*%
%TO.C,J3*%
X137500000Y-122500000D03*
X134500000Y-122500000D03*
%TD*%
%TO.C,J3*%
X87500000Y-122500000D03*
X84500000Y-122500000D03*
%TD*%
%TO.C,J3*%
X137500000Y-72500000D03*
X134500000Y-72500000D03*
%TD*%
%TO.C,J17*%
X92500000Y-114500000D03*
X95500000Y-114500000D03*
%TD*%
%TO.C,J17*%
X42500000Y-114500000D03*
X45500000Y-114500000D03*
%TD*%
%TO.C,J17*%
X92500000Y-64500000D03*
X95500000Y-64500000D03*
%TD*%
%TO.C,J15*%
X92500000Y-107500000D03*
X95500000Y-107500000D03*
%TD*%
%TO.C,J15*%
X42500000Y-107500000D03*
X45500000Y-107500000D03*
%TD*%
%TO.C,J15*%
X92500000Y-57500000D03*
X95500000Y-57500000D03*
%TD*%
%TO.C,J5*%
X137500000Y-115500000D03*
X134500000Y-115500000D03*
%TD*%
%TO.C,J5*%
X87500000Y-115500000D03*
X84500000Y-115500000D03*
%TD*%
%TO.C,J5*%
X137500000Y-65500000D03*
X134500000Y-65500000D03*
%TD*%
%TO.C,J16*%
X101500000Y-107500000D03*
X104500000Y-107500000D03*
%TD*%
%TO.C,J16*%
X51500000Y-107500000D03*
X54500000Y-107500000D03*
%TD*%
%TO.C,J16*%
X101500000Y-57500000D03*
X104500000Y-57500000D03*
%TD*%
D13*
%TO.C,Q17*%
G36*
X93425000Y-111885000D02*
G01*
X93425000Y-111385000D01*
X93750000Y-111385000D01*
X93750000Y-110615000D01*
X93425000Y-110615000D01*
X93425000Y-110115000D01*
X93750000Y-110115000D01*
X93750000Y-109345000D01*
X93425000Y-109345000D01*
X93425000Y-108845000D01*
X94150000Y-108845000D01*
X94150000Y-111885000D01*
X93425000Y-111885000D01*
G37*
D14*
X93750000Y-112905000D03*
D13*
G36*
X99020000Y-109345000D02*
G01*
X99020000Y-110115000D01*
X99575000Y-110115000D01*
X99575000Y-110615000D01*
X99020000Y-110615000D01*
X99020000Y-111385000D01*
X99575000Y-111385000D01*
X99575000Y-111885000D01*
X99020000Y-111885000D01*
X99020000Y-112655000D01*
X99575000Y-112655000D01*
X99575000Y-113155000D01*
X99020000Y-113155000D01*
X99020000Y-113300000D01*
X94900000Y-113300000D01*
X94900000Y-108700000D01*
X99020000Y-108700000D01*
X99020000Y-108845000D01*
X99575000Y-108845000D01*
X99575000Y-109345000D01*
X99020000Y-109345000D01*
G37*
%TD*%
%TO.C,Q17*%
G36*
X43425000Y-111885000D02*
G01*
X43425000Y-111385000D01*
X43750000Y-111385000D01*
X43750000Y-110615000D01*
X43425000Y-110615000D01*
X43425000Y-110115000D01*
X43750000Y-110115000D01*
X43750000Y-109345000D01*
X43425000Y-109345000D01*
X43425000Y-108845000D01*
X44150000Y-108845000D01*
X44150000Y-111885000D01*
X43425000Y-111885000D01*
G37*
D14*
X43750000Y-112905000D03*
D13*
G36*
X49020000Y-109345000D02*
G01*
X49020000Y-110115000D01*
X49575000Y-110115000D01*
X49575000Y-110615000D01*
X49020000Y-110615000D01*
X49020000Y-111385000D01*
X49575000Y-111385000D01*
X49575000Y-111885000D01*
X49020000Y-111885000D01*
X49020000Y-112655000D01*
X49575000Y-112655000D01*
X49575000Y-113155000D01*
X49020000Y-113155000D01*
X49020000Y-113300000D01*
X44900000Y-113300000D01*
X44900000Y-108700000D01*
X49020000Y-108700000D01*
X49020000Y-108845000D01*
X49575000Y-108845000D01*
X49575000Y-109345000D01*
X49020000Y-109345000D01*
G37*
%TD*%
%TO.C,Q17*%
G36*
X93425000Y-61885000D02*
G01*
X93425000Y-61385000D01*
X93750000Y-61385000D01*
X93750000Y-60615000D01*
X93425000Y-60615000D01*
X93425000Y-60115000D01*
X93750000Y-60115000D01*
X93750000Y-59345000D01*
X93425000Y-59345000D01*
X93425000Y-58845000D01*
X94150000Y-58845000D01*
X94150000Y-61885000D01*
X93425000Y-61885000D01*
G37*
D14*
X93750000Y-62905000D03*
D13*
G36*
X99020000Y-59345000D02*
G01*
X99020000Y-60115000D01*
X99575000Y-60115000D01*
X99575000Y-60615000D01*
X99020000Y-60615000D01*
X99020000Y-61385000D01*
X99575000Y-61385000D01*
X99575000Y-61885000D01*
X99020000Y-61885000D01*
X99020000Y-62655000D01*
X99575000Y-62655000D01*
X99575000Y-63155000D01*
X99020000Y-63155000D01*
X99020000Y-63300000D01*
X94900000Y-63300000D01*
X94900000Y-58700000D01*
X99020000Y-58700000D01*
X99020000Y-58845000D01*
X99575000Y-58845000D01*
X99575000Y-59345000D01*
X99020000Y-59345000D01*
G37*
%TD*%
%TO.C,Q16*%
G36*
X102425000Y-104885000D02*
G01*
X102425000Y-104385000D01*
X102750000Y-104385000D01*
X102750000Y-103615000D01*
X102425000Y-103615000D01*
X102425000Y-103115000D01*
X102750000Y-103115000D01*
X102750000Y-102345000D01*
X102425000Y-102345000D01*
X102425000Y-101845000D01*
X103150000Y-101845000D01*
X103150000Y-104885000D01*
X102425000Y-104885000D01*
G37*
D14*
X102750000Y-105905000D03*
D13*
G36*
X108020000Y-102345000D02*
G01*
X108020000Y-103115000D01*
X108575000Y-103115000D01*
X108575000Y-103615000D01*
X108020000Y-103615000D01*
X108020000Y-104385000D01*
X108575000Y-104385000D01*
X108575000Y-104885000D01*
X108020000Y-104885000D01*
X108020000Y-105655000D01*
X108575000Y-105655000D01*
X108575000Y-106155000D01*
X108020000Y-106155000D01*
X108020000Y-106300000D01*
X103900000Y-106300000D01*
X103900000Y-101700000D01*
X108020000Y-101700000D01*
X108020000Y-101845000D01*
X108575000Y-101845000D01*
X108575000Y-102345000D01*
X108020000Y-102345000D01*
G37*
%TD*%
%TO.C,Q16*%
G36*
X52425000Y-104885000D02*
G01*
X52425000Y-104385000D01*
X52750000Y-104385000D01*
X52750000Y-103615000D01*
X52425000Y-103615000D01*
X52425000Y-103115000D01*
X52750000Y-103115000D01*
X52750000Y-102345000D01*
X52425000Y-102345000D01*
X52425000Y-101845000D01*
X53150000Y-101845000D01*
X53150000Y-104885000D01*
X52425000Y-104885000D01*
G37*
D14*
X52750000Y-105905000D03*
D13*
G36*
X58020000Y-102345000D02*
G01*
X58020000Y-103115000D01*
X58575000Y-103115000D01*
X58575000Y-103615000D01*
X58020000Y-103615000D01*
X58020000Y-104385000D01*
X58575000Y-104385000D01*
X58575000Y-104885000D01*
X58020000Y-104885000D01*
X58020000Y-105655000D01*
X58575000Y-105655000D01*
X58575000Y-106155000D01*
X58020000Y-106155000D01*
X58020000Y-106300000D01*
X53900000Y-106300000D01*
X53900000Y-101700000D01*
X58020000Y-101700000D01*
X58020000Y-101845000D01*
X58575000Y-101845000D01*
X58575000Y-102345000D01*
X58020000Y-102345000D01*
G37*
%TD*%
%TO.C,Q16*%
G36*
X102425000Y-54885000D02*
G01*
X102425000Y-54385000D01*
X102750000Y-54385000D01*
X102750000Y-53615000D01*
X102425000Y-53615000D01*
X102425000Y-53115000D01*
X102750000Y-53115000D01*
X102750000Y-52345000D01*
X102425000Y-52345000D01*
X102425000Y-51845000D01*
X103150000Y-51845000D01*
X103150000Y-54885000D01*
X102425000Y-54885000D01*
G37*
D14*
X102750000Y-55905000D03*
D13*
G36*
X108020000Y-52345000D02*
G01*
X108020000Y-53115000D01*
X108575000Y-53115000D01*
X108575000Y-53615000D01*
X108020000Y-53615000D01*
X108020000Y-54385000D01*
X108575000Y-54385000D01*
X108575000Y-54885000D01*
X108020000Y-54885000D01*
X108020000Y-55655000D01*
X108575000Y-55655000D01*
X108575000Y-56155000D01*
X108020000Y-56155000D01*
X108020000Y-56300000D01*
X103900000Y-56300000D01*
X103900000Y-51700000D01*
X108020000Y-51700000D01*
X108020000Y-51845000D01*
X108575000Y-51845000D01*
X108575000Y-52345000D01*
X108020000Y-52345000D01*
G37*
%TD*%
%TO.C,Q3*%
G36*
X136575000Y-125115000D02*
G01*
X136575000Y-125615000D01*
X136250000Y-125615000D01*
X136250000Y-126385000D01*
X136575000Y-126385000D01*
X136575000Y-126885000D01*
X136250000Y-126885000D01*
X136250000Y-127655000D01*
X136575000Y-127655000D01*
X136575000Y-128155000D01*
X135850000Y-128155000D01*
X135850000Y-125115000D01*
X136575000Y-125115000D01*
G37*
D14*
X136250000Y-124095000D03*
D13*
G36*
X130980000Y-127655000D02*
G01*
X130980000Y-126885000D01*
X130425000Y-126885000D01*
X130425000Y-126385000D01*
X130980000Y-126385000D01*
X130980000Y-125615000D01*
X130425000Y-125615000D01*
X130425000Y-125115000D01*
X130980000Y-125115000D01*
X130980000Y-124345000D01*
X130425000Y-124345000D01*
X130425000Y-123845000D01*
X130980000Y-123845000D01*
X130980000Y-123700000D01*
X135100000Y-123700000D01*
X135100000Y-128300000D01*
X130980000Y-128300000D01*
X130980000Y-128155000D01*
X130425000Y-128155000D01*
X130425000Y-127655000D01*
X130980000Y-127655000D01*
G37*
%TD*%
%TO.C,Q3*%
G36*
X86575000Y-125115000D02*
G01*
X86575000Y-125615000D01*
X86250000Y-125615000D01*
X86250000Y-126385000D01*
X86575000Y-126385000D01*
X86575000Y-126885000D01*
X86250000Y-126885000D01*
X86250000Y-127655000D01*
X86575000Y-127655000D01*
X86575000Y-128155000D01*
X85850000Y-128155000D01*
X85850000Y-125115000D01*
X86575000Y-125115000D01*
G37*
D14*
X86250000Y-124095000D03*
D13*
G36*
X80980000Y-127655000D02*
G01*
X80980000Y-126885000D01*
X80425000Y-126885000D01*
X80425000Y-126385000D01*
X80980000Y-126385000D01*
X80980000Y-125615000D01*
X80425000Y-125615000D01*
X80425000Y-125115000D01*
X80980000Y-125115000D01*
X80980000Y-124345000D01*
X80425000Y-124345000D01*
X80425000Y-123845000D01*
X80980000Y-123845000D01*
X80980000Y-123700000D01*
X85100000Y-123700000D01*
X85100000Y-128300000D01*
X80980000Y-128300000D01*
X80980000Y-128155000D01*
X80425000Y-128155000D01*
X80425000Y-127655000D01*
X80980000Y-127655000D01*
G37*
%TD*%
%TO.C,Q3*%
G36*
X136575000Y-75115000D02*
G01*
X136575000Y-75615000D01*
X136250000Y-75615000D01*
X136250000Y-76385000D01*
X136575000Y-76385000D01*
X136575000Y-76885000D01*
X136250000Y-76885000D01*
X136250000Y-77655000D01*
X136575000Y-77655000D01*
X136575000Y-78155000D01*
X135850000Y-78155000D01*
X135850000Y-75115000D01*
X136575000Y-75115000D01*
G37*
D14*
X136250000Y-74095000D03*
D13*
G36*
X130980000Y-77655000D02*
G01*
X130980000Y-76885000D01*
X130425000Y-76885000D01*
X130425000Y-76385000D01*
X130980000Y-76385000D01*
X130980000Y-75615000D01*
X130425000Y-75615000D01*
X130425000Y-75115000D01*
X130980000Y-75115000D01*
X130980000Y-74345000D01*
X130425000Y-74345000D01*
X130425000Y-73845000D01*
X130980000Y-73845000D01*
X130980000Y-73700000D01*
X135100000Y-73700000D01*
X135100000Y-78300000D01*
X130980000Y-78300000D01*
X130980000Y-78155000D01*
X130425000Y-78155000D01*
X130425000Y-77655000D01*
X130980000Y-77655000D01*
G37*
%TD*%
D12*
%TO.C,JG5*%
X137500000Y-105500000D03*
%TD*%
%TO.C,JG5*%
X87500000Y-105500000D03*
%TD*%
%TO.C,JG5*%
X137500000Y-55500000D03*
%TD*%
D10*
%TO.C,JB12*%
X110000000Y-132000000D03*
%TD*%
%TO.C,JB12*%
X60000000Y-132000000D03*
%TD*%
%TO.C,JB12*%
X110000000Y-82000000D03*
%TD*%
D13*
%TO.C,Q11*%
G36*
X136575000Y-97115000D02*
G01*
X136575000Y-97615000D01*
X136250000Y-97615000D01*
X136250000Y-98385000D01*
X136575000Y-98385000D01*
X136575000Y-98885000D01*
X136250000Y-98885000D01*
X136250000Y-99655000D01*
X136575000Y-99655000D01*
X136575000Y-100155000D01*
X135850000Y-100155000D01*
X135850000Y-97115000D01*
X136575000Y-97115000D01*
G37*
D14*
X136250000Y-96095000D03*
D13*
G36*
X130980000Y-99655000D02*
G01*
X130980000Y-98885000D01*
X130425000Y-98885000D01*
X130425000Y-98385000D01*
X130980000Y-98385000D01*
X130980000Y-97615000D01*
X130425000Y-97615000D01*
X130425000Y-97115000D01*
X130980000Y-97115000D01*
X130980000Y-96345000D01*
X130425000Y-96345000D01*
X130425000Y-95845000D01*
X130980000Y-95845000D01*
X130980000Y-95700000D01*
X135100000Y-95700000D01*
X135100000Y-100300000D01*
X130980000Y-100300000D01*
X130980000Y-100155000D01*
X130425000Y-100155000D01*
X130425000Y-99655000D01*
X130980000Y-99655000D01*
G37*
%TD*%
%TO.C,Q11*%
G36*
X86575000Y-97115000D02*
G01*
X86575000Y-97615000D01*
X86250000Y-97615000D01*
X86250000Y-98385000D01*
X86575000Y-98385000D01*
X86575000Y-98885000D01*
X86250000Y-98885000D01*
X86250000Y-99655000D01*
X86575000Y-99655000D01*
X86575000Y-100155000D01*
X85850000Y-100155000D01*
X85850000Y-97115000D01*
X86575000Y-97115000D01*
G37*
D14*
X86250000Y-96095000D03*
D13*
G36*
X80980000Y-99655000D02*
G01*
X80980000Y-98885000D01*
X80425000Y-98885000D01*
X80425000Y-98385000D01*
X80980000Y-98385000D01*
X80980000Y-97615000D01*
X80425000Y-97615000D01*
X80425000Y-97115000D01*
X80980000Y-97115000D01*
X80980000Y-96345000D01*
X80425000Y-96345000D01*
X80425000Y-95845000D01*
X80980000Y-95845000D01*
X80980000Y-95700000D01*
X85100000Y-95700000D01*
X85100000Y-100300000D01*
X80980000Y-100300000D01*
X80980000Y-100155000D01*
X80425000Y-100155000D01*
X80425000Y-99655000D01*
X80980000Y-99655000D01*
G37*
%TD*%
%TO.C,Q11*%
G36*
X136575000Y-47115000D02*
G01*
X136575000Y-47615000D01*
X136250000Y-47615000D01*
X136250000Y-48385000D01*
X136575000Y-48385000D01*
X136575000Y-48885000D01*
X136250000Y-48885000D01*
X136250000Y-49655000D01*
X136575000Y-49655000D01*
X136575000Y-50155000D01*
X135850000Y-50155000D01*
X135850000Y-47115000D01*
X136575000Y-47115000D01*
G37*
D14*
X136250000Y-46095000D03*
D13*
G36*
X130980000Y-49655000D02*
G01*
X130980000Y-48885000D01*
X130425000Y-48885000D01*
X130425000Y-48385000D01*
X130980000Y-48385000D01*
X130980000Y-47615000D01*
X130425000Y-47615000D01*
X130425000Y-47115000D01*
X130980000Y-47115000D01*
X130980000Y-46345000D01*
X130425000Y-46345000D01*
X130425000Y-45845000D01*
X130980000Y-45845000D01*
X130980000Y-45700000D01*
X135100000Y-45700000D01*
X135100000Y-50300000D01*
X130980000Y-50300000D01*
X130980000Y-50155000D01*
X130425000Y-50155000D01*
X130425000Y-49655000D01*
X130980000Y-49655000D01*
G37*
%TD*%
D11*
%TO.C,JT1*%
X107500000Y-93500000D03*
X110500000Y-93500000D03*
%TD*%
%TO.C,JT1*%
X57500000Y-93500000D03*
X60500000Y-93500000D03*
%TD*%
%TO.C,JT1*%
X107500000Y-43500000D03*
X110500000Y-43500000D03*
%TD*%
D12*
%TO.C,JG11*%
X92500000Y-124500000D03*
%TD*%
%TO.C,JG11*%
X42500000Y-124500000D03*
%TD*%
%TO.C,JG11*%
X92500000Y-74500000D03*
%TD*%
%TO.C,JG10*%
X92500000Y-117500000D03*
%TD*%
%TO.C,JG10*%
X42500000Y-117500000D03*
%TD*%
%TO.C,JG10*%
X92500000Y-67500000D03*
%TD*%
D11*
%TO.C,JT3*%
X66500000Y-83500000D03*
X63500000Y-83500000D03*
%TD*%
%TO.C,JT2*%
X72500000Y-44500000D03*
X69500000Y-44500000D03*
%TD*%
%TO.C,JT1*%
X60500000Y-43500000D03*
X57500000Y-43500000D03*
%TD*%
D16*
%TO.C,JB0*%
X65000000Y-87000000D03*
%TD*%
D12*
%TO.C,JG12*%
X42500000Y-81500000D03*
%TD*%
%TO.C,JG11*%
X42500000Y-74500000D03*
%TD*%
%TO.C,JG10*%
X42500000Y-67500000D03*
%TD*%
%TO.C,JG9*%
X42500000Y-60500000D03*
%TD*%
%TO.C,JG8*%
X42500000Y-53500000D03*
%TD*%
%TO.C,JG7*%
X42500000Y-46500000D03*
%TD*%
%TO.C,JG6*%
X87500000Y-48500000D03*
%TD*%
%TO.C,JG5*%
X87500000Y-55500000D03*
%TD*%
%TO.C,JG4*%
X87500000Y-62500000D03*
%TD*%
%TO.C,JG3*%
X87500000Y-69500000D03*
%TD*%
%TO.C,JG2*%
X87500000Y-76500000D03*
%TD*%
%TO.C,JG1*%
X87500000Y-83500000D03*
%TD*%
D15*
%TO.C,MC4*%
X51000000Y-81500000D03*
%TD*%
%TO.C,MC3*%
X51000000Y-60500000D03*
%TD*%
%TO.C,MC2*%
X79000000Y-48500000D03*
%TD*%
%TO.C,MC1*%
X79000000Y-69500000D03*
%TD*%
%TO.C,MB4*%
X51000000Y-74500000D03*
%TD*%
%TO.C,MB3*%
X51000000Y-53500000D03*
%TD*%
%TO.C,MB2*%
X79000000Y-55500000D03*
%TD*%
%TO.C,MB1*%
X79000000Y-76500000D03*
%TD*%
%TO.C,MA4*%
X51000000Y-67500000D03*
%TD*%
%TO.C,MA3*%
X51000000Y-46500000D03*
%TD*%
%TO.C,MA2*%
X79000000Y-62500000D03*
%TD*%
%TO.C,MA1*%
X79000000Y-83500000D03*
%TD*%
D11*
%TO.C,J24*%
X54500000Y-85500000D03*
X51500000Y-85500000D03*
%TD*%
%TO.C,J23*%
X45500000Y-85500000D03*
X42500000Y-85500000D03*
%TD*%
%TO.C,J22*%
X54500000Y-78500000D03*
X51500000Y-78500000D03*
%TD*%
%TO.C,J21*%
X45500000Y-78500000D03*
X42500000Y-78500000D03*
%TD*%
%TO.C,J20*%
X54500000Y-71500000D03*
X51500000Y-71500000D03*
%TD*%
%TO.C,J19*%
X45500000Y-71500000D03*
X42500000Y-71500000D03*
%TD*%
%TO.C,J18*%
X54500000Y-64500000D03*
X51500000Y-64500000D03*
%TD*%
%TO.C,J17*%
X45500000Y-64500000D03*
X42500000Y-64500000D03*
%TD*%
%TO.C,J16*%
X54500000Y-57500000D03*
X51500000Y-57500000D03*
%TD*%
%TO.C,J15*%
X45500000Y-57500000D03*
X42500000Y-57500000D03*
%TD*%
%TO.C,J14*%
X54500000Y-50500000D03*
X51500000Y-50500000D03*
%TD*%
%TO.C,J13*%
X45500000Y-50500000D03*
X42500000Y-50500000D03*
%TD*%
%TO.C,J12*%
X75500000Y-44500000D03*
X78500000Y-44500000D03*
%TD*%
%TO.C,J11*%
X84500000Y-44500000D03*
X87500000Y-44500000D03*
%TD*%
%TO.C,J10*%
X75500000Y-51500000D03*
X78500000Y-51500000D03*
%TD*%
%TO.C,J9*%
X84500000Y-51500000D03*
X87500000Y-51500000D03*
%TD*%
%TO.C,J8*%
X75500000Y-58500000D03*
X78500000Y-58500000D03*
%TD*%
%TO.C,J7*%
X84500000Y-58500000D03*
X87500000Y-58500000D03*
%TD*%
%TO.C,J6*%
X75500000Y-65500000D03*
X78500000Y-65500000D03*
%TD*%
%TO.C,J5*%
X84500000Y-65500000D03*
X87500000Y-65500000D03*
%TD*%
%TO.C,J4*%
X75500000Y-72500000D03*
X78500000Y-72500000D03*
%TD*%
%TO.C,J3*%
X84500000Y-72500000D03*
X87500000Y-72500000D03*
%TD*%
%TO.C,J2*%
X75500000Y-79500000D03*
X78500000Y-79500000D03*
%TD*%
%TO.C,J1*%
X84500000Y-79500000D03*
X87500000Y-79500000D03*
%TD*%
D10*
%TO.C,JB12*%
X60000000Y-82000000D03*
%TD*%
%TO.C,JB11*%
X60000000Y-75000000D03*
%TD*%
%TO.C,JB10*%
X60000000Y-68000000D03*
%TD*%
%TO.C,JB9*%
X60000000Y-61000000D03*
%TD*%
%TO.C,JB8*%
X60000000Y-54000000D03*
%TD*%
%TO.C,JB7*%
X60000000Y-47000000D03*
%TD*%
%TO.C,JB6*%
X70000000Y-48000000D03*
%TD*%
%TO.C,JB5*%
X70000000Y-55000000D03*
%TD*%
%TO.C,JB4*%
X70000000Y-62000000D03*
%TD*%
%TO.C,JB3*%
X70000000Y-69000000D03*
%TD*%
%TO.C,JB2*%
X70000000Y-76000000D03*
%TD*%
%TO.C,JB1*%
X70000000Y-83000000D03*
%TD*%
D13*
%TO.C,Q24*%
G36*
X58020000Y-80345000D02*
G01*
X58020000Y-81115000D01*
X58575000Y-81115000D01*
X58575000Y-81615000D01*
X58020000Y-81615000D01*
X58020000Y-82385000D01*
X58575000Y-82385000D01*
X58575000Y-82885000D01*
X58020000Y-82885000D01*
X58020000Y-83655000D01*
X58575000Y-83655000D01*
X58575000Y-84155000D01*
X58020000Y-84155000D01*
X58020000Y-84300000D01*
X53900000Y-84300000D01*
X53900000Y-79700000D01*
X58020000Y-79700000D01*
X58020000Y-79845000D01*
X58575000Y-79845000D01*
X58575000Y-80345000D01*
X58020000Y-80345000D01*
G37*
D14*
X52750000Y-83905000D03*
D13*
G36*
X52425000Y-82885000D02*
G01*
X52425000Y-82385000D01*
X52750000Y-82385000D01*
X52750000Y-81615000D01*
X52425000Y-81615000D01*
X52425000Y-81115000D01*
X52750000Y-81115000D01*
X52750000Y-80345000D01*
X52425000Y-80345000D01*
X52425000Y-79845000D01*
X53150000Y-79845000D01*
X53150000Y-82885000D01*
X52425000Y-82885000D01*
G37*
%TD*%
%TO.C,Q23*%
G36*
X49020000Y-80345000D02*
G01*
X49020000Y-81115000D01*
X49575000Y-81115000D01*
X49575000Y-81615000D01*
X49020000Y-81615000D01*
X49020000Y-82385000D01*
X49575000Y-82385000D01*
X49575000Y-82885000D01*
X49020000Y-82885000D01*
X49020000Y-83655000D01*
X49575000Y-83655000D01*
X49575000Y-84155000D01*
X49020000Y-84155000D01*
X49020000Y-84300000D01*
X44900000Y-84300000D01*
X44900000Y-79700000D01*
X49020000Y-79700000D01*
X49020000Y-79845000D01*
X49575000Y-79845000D01*
X49575000Y-80345000D01*
X49020000Y-80345000D01*
G37*
D14*
X43750000Y-83905000D03*
D13*
G36*
X43425000Y-82885000D02*
G01*
X43425000Y-82385000D01*
X43750000Y-82385000D01*
X43750000Y-81615000D01*
X43425000Y-81615000D01*
X43425000Y-81115000D01*
X43750000Y-81115000D01*
X43750000Y-80345000D01*
X43425000Y-80345000D01*
X43425000Y-79845000D01*
X44150000Y-79845000D01*
X44150000Y-82885000D01*
X43425000Y-82885000D01*
G37*
%TD*%
%TO.C,Q22*%
G36*
X58020000Y-73345000D02*
G01*
X58020000Y-74115000D01*
X58575000Y-74115000D01*
X58575000Y-74615000D01*
X58020000Y-74615000D01*
X58020000Y-75385000D01*
X58575000Y-75385000D01*
X58575000Y-75885000D01*
X58020000Y-75885000D01*
X58020000Y-76655000D01*
X58575000Y-76655000D01*
X58575000Y-77155000D01*
X58020000Y-77155000D01*
X58020000Y-77300000D01*
X53900000Y-77300000D01*
X53900000Y-72700000D01*
X58020000Y-72700000D01*
X58020000Y-72845000D01*
X58575000Y-72845000D01*
X58575000Y-73345000D01*
X58020000Y-73345000D01*
G37*
D14*
X52750000Y-76905000D03*
D13*
G36*
X52425000Y-75885000D02*
G01*
X52425000Y-75385000D01*
X52750000Y-75385000D01*
X52750000Y-74615000D01*
X52425000Y-74615000D01*
X52425000Y-74115000D01*
X52750000Y-74115000D01*
X52750000Y-73345000D01*
X52425000Y-73345000D01*
X52425000Y-72845000D01*
X53150000Y-72845000D01*
X53150000Y-75885000D01*
X52425000Y-75885000D01*
G37*
%TD*%
%TO.C,Q21*%
G36*
X49020000Y-73345000D02*
G01*
X49020000Y-74115000D01*
X49575000Y-74115000D01*
X49575000Y-74615000D01*
X49020000Y-74615000D01*
X49020000Y-75385000D01*
X49575000Y-75385000D01*
X49575000Y-75885000D01*
X49020000Y-75885000D01*
X49020000Y-76655000D01*
X49575000Y-76655000D01*
X49575000Y-77155000D01*
X49020000Y-77155000D01*
X49020000Y-77300000D01*
X44900000Y-77300000D01*
X44900000Y-72700000D01*
X49020000Y-72700000D01*
X49020000Y-72845000D01*
X49575000Y-72845000D01*
X49575000Y-73345000D01*
X49020000Y-73345000D01*
G37*
D14*
X43750000Y-76905000D03*
D13*
G36*
X43425000Y-75885000D02*
G01*
X43425000Y-75385000D01*
X43750000Y-75385000D01*
X43750000Y-74615000D01*
X43425000Y-74615000D01*
X43425000Y-74115000D01*
X43750000Y-74115000D01*
X43750000Y-73345000D01*
X43425000Y-73345000D01*
X43425000Y-72845000D01*
X44150000Y-72845000D01*
X44150000Y-75885000D01*
X43425000Y-75885000D01*
G37*
%TD*%
%TO.C,Q20*%
G36*
X58020000Y-66345000D02*
G01*
X58020000Y-67115000D01*
X58575000Y-67115000D01*
X58575000Y-67615000D01*
X58020000Y-67615000D01*
X58020000Y-68385000D01*
X58575000Y-68385000D01*
X58575000Y-68885000D01*
X58020000Y-68885000D01*
X58020000Y-69655000D01*
X58575000Y-69655000D01*
X58575000Y-70155000D01*
X58020000Y-70155000D01*
X58020000Y-70300000D01*
X53900000Y-70300000D01*
X53900000Y-65700000D01*
X58020000Y-65700000D01*
X58020000Y-65845000D01*
X58575000Y-65845000D01*
X58575000Y-66345000D01*
X58020000Y-66345000D01*
G37*
D14*
X52750000Y-69905000D03*
D13*
G36*
X52425000Y-68885000D02*
G01*
X52425000Y-68385000D01*
X52750000Y-68385000D01*
X52750000Y-67615000D01*
X52425000Y-67615000D01*
X52425000Y-67115000D01*
X52750000Y-67115000D01*
X52750000Y-66345000D01*
X52425000Y-66345000D01*
X52425000Y-65845000D01*
X53150000Y-65845000D01*
X53150000Y-68885000D01*
X52425000Y-68885000D01*
G37*
%TD*%
%TO.C,Q19*%
G36*
X49020000Y-66345000D02*
G01*
X49020000Y-67115000D01*
X49575000Y-67115000D01*
X49575000Y-67615000D01*
X49020000Y-67615000D01*
X49020000Y-68385000D01*
X49575000Y-68385000D01*
X49575000Y-68885000D01*
X49020000Y-68885000D01*
X49020000Y-69655000D01*
X49575000Y-69655000D01*
X49575000Y-70155000D01*
X49020000Y-70155000D01*
X49020000Y-70300000D01*
X44900000Y-70300000D01*
X44900000Y-65700000D01*
X49020000Y-65700000D01*
X49020000Y-65845000D01*
X49575000Y-65845000D01*
X49575000Y-66345000D01*
X49020000Y-66345000D01*
G37*
D14*
X43750000Y-69905000D03*
D13*
G36*
X43425000Y-68885000D02*
G01*
X43425000Y-68385000D01*
X43750000Y-68385000D01*
X43750000Y-67615000D01*
X43425000Y-67615000D01*
X43425000Y-67115000D01*
X43750000Y-67115000D01*
X43750000Y-66345000D01*
X43425000Y-66345000D01*
X43425000Y-65845000D01*
X44150000Y-65845000D01*
X44150000Y-68885000D01*
X43425000Y-68885000D01*
G37*
%TD*%
%TO.C,Q18*%
G36*
X58020000Y-59345000D02*
G01*
X58020000Y-60115000D01*
X58575000Y-60115000D01*
X58575000Y-60615000D01*
X58020000Y-60615000D01*
X58020000Y-61385000D01*
X58575000Y-61385000D01*
X58575000Y-61885000D01*
X58020000Y-61885000D01*
X58020000Y-62655000D01*
X58575000Y-62655000D01*
X58575000Y-63155000D01*
X58020000Y-63155000D01*
X58020000Y-63300000D01*
X53900000Y-63300000D01*
X53900000Y-58700000D01*
X58020000Y-58700000D01*
X58020000Y-58845000D01*
X58575000Y-58845000D01*
X58575000Y-59345000D01*
X58020000Y-59345000D01*
G37*
D14*
X52750000Y-62905000D03*
D13*
G36*
X52425000Y-61885000D02*
G01*
X52425000Y-61385000D01*
X52750000Y-61385000D01*
X52750000Y-60615000D01*
X52425000Y-60615000D01*
X52425000Y-60115000D01*
X52750000Y-60115000D01*
X52750000Y-59345000D01*
X52425000Y-59345000D01*
X52425000Y-58845000D01*
X53150000Y-58845000D01*
X53150000Y-61885000D01*
X52425000Y-61885000D01*
G37*
%TD*%
%TO.C,Q17*%
G36*
X49020000Y-59345000D02*
G01*
X49020000Y-60115000D01*
X49575000Y-60115000D01*
X49575000Y-60615000D01*
X49020000Y-60615000D01*
X49020000Y-61385000D01*
X49575000Y-61385000D01*
X49575000Y-61885000D01*
X49020000Y-61885000D01*
X49020000Y-62655000D01*
X49575000Y-62655000D01*
X49575000Y-63155000D01*
X49020000Y-63155000D01*
X49020000Y-63300000D01*
X44900000Y-63300000D01*
X44900000Y-58700000D01*
X49020000Y-58700000D01*
X49020000Y-58845000D01*
X49575000Y-58845000D01*
X49575000Y-59345000D01*
X49020000Y-59345000D01*
G37*
D14*
X43750000Y-62905000D03*
D13*
G36*
X43425000Y-61885000D02*
G01*
X43425000Y-61385000D01*
X43750000Y-61385000D01*
X43750000Y-60615000D01*
X43425000Y-60615000D01*
X43425000Y-60115000D01*
X43750000Y-60115000D01*
X43750000Y-59345000D01*
X43425000Y-59345000D01*
X43425000Y-58845000D01*
X44150000Y-58845000D01*
X44150000Y-61885000D01*
X43425000Y-61885000D01*
G37*
%TD*%
%TO.C,Q16*%
G36*
X58020000Y-52345000D02*
G01*
X58020000Y-53115000D01*
X58575000Y-53115000D01*
X58575000Y-53615000D01*
X58020000Y-53615000D01*
X58020000Y-54385000D01*
X58575000Y-54385000D01*
X58575000Y-54885000D01*
X58020000Y-54885000D01*
X58020000Y-55655000D01*
X58575000Y-55655000D01*
X58575000Y-56155000D01*
X58020000Y-56155000D01*
X58020000Y-56300000D01*
X53900000Y-56300000D01*
X53900000Y-51700000D01*
X58020000Y-51700000D01*
X58020000Y-51845000D01*
X58575000Y-51845000D01*
X58575000Y-52345000D01*
X58020000Y-52345000D01*
G37*
D14*
X52750000Y-55905000D03*
D13*
G36*
X52425000Y-54885000D02*
G01*
X52425000Y-54385000D01*
X52750000Y-54385000D01*
X52750000Y-53615000D01*
X52425000Y-53615000D01*
X52425000Y-53115000D01*
X52750000Y-53115000D01*
X52750000Y-52345000D01*
X52425000Y-52345000D01*
X52425000Y-51845000D01*
X53150000Y-51845000D01*
X53150000Y-54885000D01*
X52425000Y-54885000D01*
G37*
%TD*%
%TO.C,Q15*%
G36*
X49020000Y-52345000D02*
G01*
X49020000Y-53115000D01*
X49575000Y-53115000D01*
X49575000Y-53615000D01*
X49020000Y-53615000D01*
X49020000Y-54385000D01*
X49575000Y-54385000D01*
X49575000Y-54885000D01*
X49020000Y-54885000D01*
X49020000Y-55655000D01*
X49575000Y-55655000D01*
X49575000Y-56155000D01*
X49020000Y-56155000D01*
X49020000Y-56300000D01*
X44900000Y-56300000D01*
X44900000Y-51700000D01*
X49020000Y-51700000D01*
X49020000Y-51845000D01*
X49575000Y-51845000D01*
X49575000Y-52345000D01*
X49020000Y-52345000D01*
G37*
D14*
X43750000Y-55905000D03*
D13*
G36*
X43425000Y-54885000D02*
G01*
X43425000Y-54385000D01*
X43750000Y-54385000D01*
X43750000Y-53615000D01*
X43425000Y-53615000D01*
X43425000Y-53115000D01*
X43750000Y-53115000D01*
X43750000Y-52345000D01*
X43425000Y-52345000D01*
X43425000Y-51845000D01*
X44150000Y-51845000D01*
X44150000Y-54885000D01*
X43425000Y-54885000D01*
G37*
%TD*%
%TO.C,Q14*%
G36*
X58020000Y-45345000D02*
G01*
X58020000Y-46115000D01*
X58575000Y-46115000D01*
X58575000Y-46615000D01*
X58020000Y-46615000D01*
X58020000Y-47385000D01*
X58575000Y-47385000D01*
X58575000Y-47885000D01*
X58020000Y-47885000D01*
X58020000Y-48655000D01*
X58575000Y-48655000D01*
X58575000Y-49155000D01*
X58020000Y-49155000D01*
X58020000Y-49300000D01*
X53900000Y-49300000D01*
X53900000Y-44700000D01*
X58020000Y-44700000D01*
X58020000Y-44845000D01*
X58575000Y-44845000D01*
X58575000Y-45345000D01*
X58020000Y-45345000D01*
G37*
D14*
X52750000Y-48905000D03*
D13*
G36*
X52425000Y-47885000D02*
G01*
X52425000Y-47385000D01*
X52750000Y-47385000D01*
X52750000Y-46615000D01*
X52425000Y-46615000D01*
X52425000Y-46115000D01*
X52750000Y-46115000D01*
X52750000Y-45345000D01*
X52425000Y-45345000D01*
X52425000Y-44845000D01*
X53150000Y-44845000D01*
X53150000Y-47885000D01*
X52425000Y-47885000D01*
G37*
%TD*%
%TO.C,Q13*%
G36*
X49020000Y-45345000D02*
G01*
X49020000Y-46115000D01*
X49575000Y-46115000D01*
X49575000Y-46615000D01*
X49020000Y-46615000D01*
X49020000Y-47385000D01*
X49575000Y-47385000D01*
X49575000Y-47885000D01*
X49020000Y-47885000D01*
X49020000Y-48655000D01*
X49575000Y-48655000D01*
X49575000Y-49155000D01*
X49020000Y-49155000D01*
X49020000Y-49300000D01*
X44900000Y-49300000D01*
X44900000Y-44700000D01*
X49020000Y-44700000D01*
X49020000Y-44845000D01*
X49575000Y-44845000D01*
X49575000Y-45345000D01*
X49020000Y-45345000D01*
G37*
D14*
X43750000Y-48905000D03*
D13*
G36*
X43425000Y-47885000D02*
G01*
X43425000Y-47385000D01*
X43750000Y-47385000D01*
X43750000Y-46615000D01*
X43425000Y-46615000D01*
X43425000Y-46115000D01*
X43750000Y-46115000D01*
X43750000Y-45345000D01*
X43425000Y-45345000D01*
X43425000Y-44845000D01*
X44150000Y-44845000D01*
X44150000Y-47885000D01*
X43425000Y-47885000D01*
G37*
%TD*%
%TO.C,Q12*%
G36*
X71980000Y-49655000D02*
G01*
X71980000Y-48885000D01*
X71425000Y-48885000D01*
X71425000Y-48385000D01*
X71980000Y-48385000D01*
X71980000Y-47615000D01*
X71425000Y-47615000D01*
X71425000Y-47115000D01*
X71980000Y-47115000D01*
X71980000Y-46345000D01*
X71425000Y-46345000D01*
X71425000Y-45845000D01*
X71980000Y-45845000D01*
X71980000Y-45700000D01*
X76100000Y-45700000D01*
X76100000Y-50300000D01*
X71980000Y-50300000D01*
X71980000Y-50155000D01*
X71425000Y-50155000D01*
X71425000Y-49655000D01*
X71980000Y-49655000D01*
G37*
D14*
X77250000Y-46095000D03*
D13*
G36*
X77575000Y-47115000D02*
G01*
X77575000Y-47615000D01*
X77250000Y-47615000D01*
X77250000Y-48385000D01*
X77575000Y-48385000D01*
X77575000Y-48885000D01*
X77250000Y-48885000D01*
X77250000Y-49655000D01*
X77575000Y-49655000D01*
X77575000Y-50155000D01*
X76850000Y-50155000D01*
X76850000Y-47115000D01*
X77575000Y-47115000D01*
G37*
%TD*%
%TO.C,Q11*%
G36*
X80980000Y-49655000D02*
G01*
X80980000Y-48885000D01*
X80425000Y-48885000D01*
X80425000Y-48385000D01*
X80980000Y-48385000D01*
X80980000Y-47615000D01*
X80425000Y-47615000D01*
X80425000Y-47115000D01*
X80980000Y-47115000D01*
X80980000Y-46345000D01*
X80425000Y-46345000D01*
X80425000Y-45845000D01*
X80980000Y-45845000D01*
X80980000Y-45700000D01*
X85100000Y-45700000D01*
X85100000Y-50300000D01*
X80980000Y-50300000D01*
X80980000Y-50155000D01*
X80425000Y-50155000D01*
X80425000Y-49655000D01*
X80980000Y-49655000D01*
G37*
D14*
X86250000Y-46095000D03*
D13*
G36*
X86575000Y-47115000D02*
G01*
X86575000Y-47615000D01*
X86250000Y-47615000D01*
X86250000Y-48385000D01*
X86575000Y-48385000D01*
X86575000Y-48885000D01*
X86250000Y-48885000D01*
X86250000Y-49655000D01*
X86575000Y-49655000D01*
X86575000Y-50155000D01*
X85850000Y-50155000D01*
X85850000Y-47115000D01*
X86575000Y-47115000D01*
G37*
%TD*%
%TO.C,Q10*%
G36*
X71980000Y-56655000D02*
G01*
X71980000Y-55885000D01*
X71425000Y-55885000D01*
X71425000Y-55385000D01*
X71980000Y-55385000D01*
X71980000Y-54615000D01*
X71425000Y-54615000D01*
X71425000Y-54115000D01*
X71980000Y-54115000D01*
X71980000Y-53345000D01*
X71425000Y-53345000D01*
X71425000Y-52845000D01*
X71980000Y-52845000D01*
X71980000Y-52700000D01*
X76100000Y-52700000D01*
X76100000Y-57300000D01*
X71980000Y-57300000D01*
X71980000Y-57155000D01*
X71425000Y-57155000D01*
X71425000Y-56655000D01*
X71980000Y-56655000D01*
G37*
D14*
X77250000Y-53095000D03*
D13*
G36*
X77575000Y-54115000D02*
G01*
X77575000Y-54615000D01*
X77250000Y-54615000D01*
X77250000Y-55385000D01*
X77575000Y-55385000D01*
X77575000Y-55885000D01*
X77250000Y-55885000D01*
X77250000Y-56655000D01*
X77575000Y-56655000D01*
X77575000Y-57155000D01*
X76850000Y-57155000D01*
X76850000Y-54115000D01*
X77575000Y-54115000D01*
G37*
%TD*%
%TO.C,Q9*%
G36*
X80980000Y-56655000D02*
G01*
X80980000Y-55885000D01*
X80425000Y-55885000D01*
X80425000Y-55385000D01*
X80980000Y-55385000D01*
X80980000Y-54615000D01*
X80425000Y-54615000D01*
X80425000Y-54115000D01*
X80980000Y-54115000D01*
X80980000Y-53345000D01*
X80425000Y-53345000D01*
X80425000Y-52845000D01*
X80980000Y-52845000D01*
X80980000Y-52700000D01*
X85100000Y-52700000D01*
X85100000Y-57300000D01*
X80980000Y-57300000D01*
X80980000Y-57155000D01*
X80425000Y-57155000D01*
X80425000Y-56655000D01*
X80980000Y-56655000D01*
G37*
D14*
X86250000Y-53095000D03*
D13*
G36*
X86575000Y-54115000D02*
G01*
X86575000Y-54615000D01*
X86250000Y-54615000D01*
X86250000Y-55385000D01*
X86575000Y-55385000D01*
X86575000Y-55885000D01*
X86250000Y-55885000D01*
X86250000Y-56655000D01*
X86575000Y-56655000D01*
X86575000Y-57155000D01*
X85850000Y-57155000D01*
X85850000Y-54115000D01*
X86575000Y-54115000D01*
G37*
%TD*%
%TO.C,Q8*%
G36*
X71980000Y-63655000D02*
G01*
X71980000Y-62885000D01*
X71425000Y-62885000D01*
X71425000Y-62385000D01*
X71980000Y-62385000D01*
X71980000Y-61615000D01*
X71425000Y-61615000D01*
X71425000Y-61115000D01*
X71980000Y-61115000D01*
X71980000Y-60345000D01*
X71425000Y-60345000D01*
X71425000Y-59845000D01*
X71980000Y-59845000D01*
X71980000Y-59700000D01*
X76100000Y-59700000D01*
X76100000Y-64300000D01*
X71980000Y-64300000D01*
X71980000Y-64155000D01*
X71425000Y-64155000D01*
X71425000Y-63655000D01*
X71980000Y-63655000D01*
G37*
D14*
X77250000Y-60095000D03*
D13*
G36*
X77575000Y-61115000D02*
G01*
X77575000Y-61615000D01*
X77250000Y-61615000D01*
X77250000Y-62385000D01*
X77575000Y-62385000D01*
X77575000Y-62885000D01*
X77250000Y-62885000D01*
X77250000Y-63655000D01*
X77575000Y-63655000D01*
X77575000Y-64155000D01*
X76850000Y-64155000D01*
X76850000Y-61115000D01*
X77575000Y-61115000D01*
G37*
%TD*%
%TO.C,Q7*%
G36*
X80980000Y-63655000D02*
G01*
X80980000Y-62885000D01*
X80425000Y-62885000D01*
X80425000Y-62385000D01*
X80980000Y-62385000D01*
X80980000Y-61615000D01*
X80425000Y-61615000D01*
X80425000Y-61115000D01*
X80980000Y-61115000D01*
X80980000Y-60345000D01*
X80425000Y-60345000D01*
X80425000Y-59845000D01*
X80980000Y-59845000D01*
X80980000Y-59700000D01*
X85100000Y-59700000D01*
X85100000Y-64300000D01*
X80980000Y-64300000D01*
X80980000Y-64155000D01*
X80425000Y-64155000D01*
X80425000Y-63655000D01*
X80980000Y-63655000D01*
G37*
D14*
X86250000Y-60095000D03*
D13*
G36*
X86575000Y-61115000D02*
G01*
X86575000Y-61615000D01*
X86250000Y-61615000D01*
X86250000Y-62385000D01*
X86575000Y-62385000D01*
X86575000Y-62885000D01*
X86250000Y-62885000D01*
X86250000Y-63655000D01*
X86575000Y-63655000D01*
X86575000Y-64155000D01*
X85850000Y-64155000D01*
X85850000Y-61115000D01*
X86575000Y-61115000D01*
G37*
%TD*%
%TO.C,Q6*%
G36*
X71980000Y-70655000D02*
G01*
X71980000Y-69885000D01*
X71425000Y-69885000D01*
X71425000Y-69385000D01*
X71980000Y-69385000D01*
X71980000Y-68615000D01*
X71425000Y-68615000D01*
X71425000Y-68115000D01*
X71980000Y-68115000D01*
X71980000Y-67345000D01*
X71425000Y-67345000D01*
X71425000Y-66845000D01*
X71980000Y-66845000D01*
X71980000Y-66700000D01*
X76100000Y-66700000D01*
X76100000Y-71300000D01*
X71980000Y-71300000D01*
X71980000Y-71155000D01*
X71425000Y-71155000D01*
X71425000Y-70655000D01*
X71980000Y-70655000D01*
G37*
D14*
X77250000Y-67095000D03*
D13*
G36*
X77575000Y-68115000D02*
G01*
X77575000Y-68615000D01*
X77250000Y-68615000D01*
X77250000Y-69385000D01*
X77575000Y-69385000D01*
X77575000Y-69885000D01*
X77250000Y-69885000D01*
X77250000Y-70655000D01*
X77575000Y-70655000D01*
X77575000Y-71155000D01*
X76850000Y-71155000D01*
X76850000Y-68115000D01*
X77575000Y-68115000D01*
G37*
%TD*%
%TO.C,Q5*%
G36*
X80980000Y-70655000D02*
G01*
X80980000Y-69885000D01*
X80425000Y-69885000D01*
X80425000Y-69385000D01*
X80980000Y-69385000D01*
X80980000Y-68615000D01*
X80425000Y-68615000D01*
X80425000Y-68115000D01*
X80980000Y-68115000D01*
X80980000Y-67345000D01*
X80425000Y-67345000D01*
X80425000Y-66845000D01*
X80980000Y-66845000D01*
X80980000Y-66700000D01*
X85100000Y-66700000D01*
X85100000Y-71300000D01*
X80980000Y-71300000D01*
X80980000Y-71155000D01*
X80425000Y-71155000D01*
X80425000Y-70655000D01*
X80980000Y-70655000D01*
G37*
D14*
X86250000Y-67095000D03*
D13*
G36*
X86575000Y-68115000D02*
G01*
X86575000Y-68615000D01*
X86250000Y-68615000D01*
X86250000Y-69385000D01*
X86575000Y-69385000D01*
X86575000Y-69885000D01*
X86250000Y-69885000D01*
X86250000Y-70655000D01*
X86575000Y-70655000D01*
X86575000Y-71155000D01*
X85850000Y-71155000D01*
X85850000Y-68115000D01*
X86575000Y-68115000D01*
G37*
%TD*%
%TO.C,Q4*%
G36*
X71980000Y-77655000D02*
G01*
X71980000Y-76885000D01*
X71425000Y-76885000D01*
X71425000Y-76385000D01*
X71980000Y-76385000D01*
X71980000Y-75615000D01*
X71425000Y-75615000D01*
X71425000Y-75115000D01*
X71980000Y-75115000D01*
X71980000Y-74345000D01*
X71425000Y-74345000D01*
X71425000Y-73845000D01*
X71980000Y-73845000D01*
X71980000Y-73700000D01*
X76100000Y-73700000D01*
X76100000Y-78300000D01*
X71980000Y-78300000D01*
X71980000Y-78155000D01*
X71425000Y-78155000D01*
X71425000Y-77655000D01*
X71980000Y-77655000D01*
G37*
D14*
X77250000Y-74095000D03*
D13*
G36*
X77575000Y-75115000D02*
G01*
X77575000Y-75615000D01*
X77250000Y-75615000D01*
X77250000Y-76385000D01*
X77575000Y-76385000D01*
X77575000Y-76885000D01*
X77250000Y-76885000D01*
X77250000Y-77655000D01*
X77575000Y-77655000D01*
X77575000Y-78155000D01*
X76850000Y-78155000D01*
X76850000Y-75115000D01*
X77575000Y-75115000D01*
G37*
%TD*%
%TO.C,Q3*%
G36*
X80980000Y-77655000D02*
G01*
X80980000Y-76885000D01*
X80425000Y-76885000D01*
X80425000Y-76385000D01*
X80980000Y-76385000D01*
X80980000Y-75615000D01*
X80425000Y-75615000D01*
X80425000Y-75115000D01*
X80980000Y-75115000D01*
X80980000Y-74345000D01*
X80425000Y-74345000D01*
X80425000Y-73845000D01*
X80980000Y-73845000D01*
X80980000Y-73700000D01*
X85100000Y-73700000D01*
X85100000Y-78300000D01*
X80980000Y-78300000D01*
X80980000Y-78155000D01*
X80425000Y-78155000D01*
X80425000Y-77655000D01*
X80980000Y-77655000D01*
G37*
D14*
X86250000Y-74095000D03*
D13*
G36*
X86575000Y-75115000D02*
G01*
X86575000Y-75615000D01*
X86250000Y-75615000D01*
X86250000Y-76385000D01*
X86575000Y-76385000D01*
X86575000Y-76885000D01*
X86250000Y-76885000D01*
X86250000Y-77655000D01*
X86575000Y-77655000D01*
X86575000Y-78155000D01*
X85850000Y-78155000D01*
X85850000Y-75115000D01*
X86575000Y-75115000D01*
G37*
%TD*%
%TO.C,Q2*%
G36*
X71980000Y-84655000D02*
G01*
X71980000Y-83885000D01*
X71425000Y-83885000D01*
X71425000Y-83385000D01*
X71980000Y-83385000D01*
X71980000Y-82615000D01*
X71425000Y-82615000D01*
X71425000Y-82115000D01*
X71980000Y-82115000D01*
X71980000Y-81345000D01*
X71425000Y-81345000D01*
X71425000Y-80845000D01*
X71980000Y-80845000D01*
X71980000Y-80700000D01*
X76100000Y-80700000D01*
X76100000Y-85300000D01*
X71980000Y-85300000D01*
X71980000Y-85155000D01*
X71425000Y-85155000D01*
X71425000Y-84655000D01*
X71980000Y-84655000D01*
G37*
D14*
X77250000Y-81095000D03*
D13*
G36*
X77575000Y-82115000D02*
G01*
X77575000Y-82615000D01*
X77250000Y-82615000D01*
X77250000Y-83385000D01*
X77575000Y-83385000D01*
X77575000Y-83885000D01*
X77250000Y-83885000D01*
X77250000Y-84655000D01*
X77575000Y-84655000D01*
X77575000Y-85155000D01*
X76850000Y-85155000D01*
X76850000Y-82115000D01*
X77575000Y-82115000D01*
G37*
%TD*%
%TO.C,Q1*%
G36*
X80980000Y-84655000D02*
G01*
X80980000Y-83885000D01*
X80425000Y-83885000D01*
X80425000Y-83385000D01*
X80980000Y-83385000D01*
X80980000Y-82615000D01*
X80425000Y-82615000D01*
X80425000Y-82115000D01*
X80980000Y-82115000D01*
X80980000Y-81345000D01*
X80425000Y-81345000D01*
X80425000Y-80845000D01*
X80980000Y-80845000D01*
X80980000Y-80700000D01*
X85100000Y-80700000D01*
X85100000Y-85300000D01*
X80980000Y-85300000D01*
X80980000Y-85155000D01*
X80425000Y-85155000D01*
X80425000Y-84655000D01*
X80980000Y-84655000D01*
G37*
D14*
X86250000Y-81095000D03*
D13*
G36*
X86575000Y-82115000D02*
G01*
X86575000Y-82615000D01*
X86250000Y-82615000D01*
X86250000Y-83385000D01*
X86575000Y-83385000D01*
X86575000Y-83885000D01*
X86250000Y-83885000D01*
X86250000Y-84655000D01*
X86575000Y-84655000D01*
X86575000Y-85155000D01*
X85850000Y-85155000D01*
X85850000Y-82115000D01*
X86575000Y-82115000D01*
G37*
%TD*%
M02*
