%TF.GenerationSoftware,KiCad,Pcbnew,5.1.8*%
%TF.CreationDate,2020-11-10T00:50:46+08:00*%
%TF.ProjectId,FMESC-1-A-v0.2,464d4553-432d-4312-9d41-2d76302e322e,v0.2*%
%TF.SameCoordinates,Original*%
%TF.FileFunction,Soldermask,Bot*%
%TF.FilePolarity,Negative*%
%FSLAX46Y46*%
G04 Gerber Fmt 4.6, Leading zero omitted, Abs format (unit mm)*
G04 Created by KiCad (PCBNEW 5.1.8) date 2020-11-10 00:50:46*
%MOMM*%
%LPD*%
G01*
G04 APERTURE LIST*
%ADD10C,0.100000*%
%ADD11R,16.000000X4.000000*%
G04 APERTURE END LIST*
D10*
G36*
X96000000Y-139000000D02*
G01*
X91000000Y-139000000D01*
X91000000Y-91000000D01*
X96000000Y-91000000D01*
X96000000Y-139000000D01*
G37*
X96000000Y-139000000D02*
X91000000Y-139000000D01*
X91000000Y-91000000D01*
X96000000Y-91000000D01*
X96000000Y-139000000D01*
G36*
X46000000Y-139000000D02*
G01*
X41000000Y-139000000D01*
X41000000Y-91000000D01*
X46000000Y-91000000D01*
X46000000Y-139000000D01*
G37*
X46000000Y-139000000D02*
X41000000Y-139000000D01*
X41000000Y-91000000D01*
X46000000Y-91000000D01*
X46000000Y-139000000D01*
G36*
X96000000Y-89000000D02*
G01*
X91000000Y-89000000D01*
X91000000Y-41000000D01*
X96000000Y-41000000D01*
X96000000Y-89000000D01*
G37*
X96000000Y-89000000D02*
X91000000Y-89000000D01*
X91000000Y-41000000D01*
X96000000Y-41000000D01*
X96000000Y-89000000D01*
G36*
X139000000Y-139000000D02*
G01*
X134000000Y-139000000D01*
X134000000Y-91000000D01*
X139000000Y-91000000D01*
X139000000Y-139000000D01*
G37*
X139000000Y-139000000D02*
X134000000Y-139000000D01*
X134000000Y-91000000D01*
X139000000Y-91000000D01*
X139000000Y-139000000D01*
G36*
X89000000Y-139000000D02*
G01*
X84000000Y-139000000D01*
X84000000Y-91000000D01*
X89000000Y-91000000D01*
X89000000Y-139000000D01*
G37*
X89000000Y-139000000D02*
X84000000Y-139000000D01*
X84000000Y-91000000D01*
X89000000Y-91000000D01*
X89000000Y-139000000D01*
G36*
X139000000Y-89000000D02*
G01*
X134000000Y-89000000D01*
X134000000Y-41000000D01*
X139000000Y-41000000D01*
X139000000Y-89000000D01*
G37*
X139000000Y-89000000D02*
X134000000Y-89000000D01*
X134000000Y-41000000D01*
X139000000Y-41000000D01*
X139000000Y-89000000D01*
G36*
X89000000Y-89000000D02*
G01*
X84000000Y-89000000D01*
X84000000Y-41000000D01*
X89000000Y-41000000D01*
X89000000Y-89000000D01*
G37*
X89000000Y-89000000D02*
X84000000Y-89000000D01*
X84000000Y-41000000D01*
X89000000Y-41000000D01*
X89000000Y-89000000D01*
G36*
X46000000Y-89000000D02*
G01*
X41000000Y-89000000D01*
X41000000Y-41000000D01*
X46000000Y-41000000D01*
X46000000Y-89000000D01*
G37*
X46000000Y-89000000D02*
X41000000Y-89000000D01*
X41000000Y-41000000D01*
X46000000Y-41000000D01*
X46000000Y-89000000D01*
D11*
%TO.C,JG0*%
X115000000Y-136500000D03*
%TD*%
%TO.C,JG0*%
X65000000Y-136500000D03*
%TD*%
%TO.C,JG0*%
X115000000Y-86500000D03*
%TD*%
%TO.C,JG0*%
X65000000Y-86500000D03*
%TD*%
M02*
