M48
; DRILL file {KiCad 5.1.8} date Tue Nov 10 00:51:32 2020
; FORMAT={-:-/ absolute / metric / decimal}
; #@! TF.CreationDate,2020-11-10T00:51:32+08:00
; #@! TF.GenerationSoftware,Kicad,Pcbnew,5.1.8
; #@! TF.FileFunction,Plated,1,2,PTH
FMAT,2
METRIC
T1C0.500
%
G90
G05
T1
X42.16Y-43.013
X42.16Y-45.34
X42.16Y-46.34
X42.16Y-47.34
X42.16Y-52.34
X42.16Y-53.34
X42.16Y-54.34
X42.16Y-59.34
X42.16Y-60.34
X42.16Y-61.34
X42.16Y-66.34
X42.16Y-67.34
X42.16Y-68.34
X42.16Y-73.34
X42.16Y-74.34
X42.16Y-75.34
X42.16Y-80.34
X42.16Y-81.34
X42.16Y-82.34
X42.16Y-86.0
X42.16Y-93.013
X42.16Y-95.34
X42.16Y-96.34
X42.16Y-97.34
X42.16Y-102.34
X42.16Y-103.34
X42.16Y-104.34
X42.16Y-109.34
X42.16Y-110.34
X42.16Y-111.34
X42.16Y-116.34
X42.16Y-117.34
X42.16Y-118.34
X42.16Y-123.34
X42.16Y-124.34
X42.16Y-125.34
X42.16Y-130.34
X42.16Y-131.34
X42.16Y-132.34
X42.16Y-136.0
X67.5Y-44.5
X67.5Y-94.5
X87.84Y-43.013
X87.84Y-47.66
X87.84Y-48.66
X87.84Y-49.66
X87.84Y-54.66
X87.84Y-55.66
X87.84Y-56.66
X87.84Y-61.66
X87.84Y-62.66
X87.84Y-63.66
X87.84Y-68.66
X87.84Y-69.66
X87.84Y-70.66
X87.84Y-75.66
X87.84Y-76.66
X87.84Y-77.66
X87.84Y-82.66
X87.84Y-83.66
X87.84Y-84.66
X87.84Y-86.0
X87.84Y-93.013
X87.84Y-97.66
X87.84Y-98.66
X87.84Y-99.66
X87.84Y-104.66
X87.84Y-105.66
X87.84Y-106.66
X87.84Y-111.66
X87.84Y-112.66
X87.84Y-113.66
X87.84Y-118.66
X87.84Y-119.66
X87.84Y-120.66
X87.84Y-125.66
X87.84Y-126.66
X87.84Y-127.66
X87.84Y-132.66
X87.84Y-133.66
X87.84Y-134.66
X87.84Y-136.0
X92.16Y-43.013
X92.16Y-45.34
X92.16Y-46.34
X92.16Y-47.34
X92.16Y-52.34
X92.16Y-53.34
X92.16Y-54.34
X92.16Y-59.34
X92.16Y-60.34
X92.16Y-61.34
X92.16Y-66.34
X92.16Y-67.34
X92.16Y-68.34
X92.16Y-73.34
X92.16Y-74.34
X92.16Y-75.34
X92.16Y-80.34
X92.16Y-81.34
X92.16Y-82.34
X92.16Y-86.0
X92.16Y-93.013
X92.16Y-95.34
X92.16Y-96.34
X92.16Y-97.34
X92.16Y-102.34
X92.16Y-103.34
X92.16Y-104.34
X92.16Y-109.34
X92.16Y-110.34
X92.16Y-111.34
X92.16Y-116.34
X92.16Y-117.34
X92.16Y-118.34
X92.16Y-123.34
X92.16Y-124.34
X92.16Y-125.34
X92.16Y-130.34
X92.16Y-131.34
X92.16Y-132.34
X92.16Y-136.0
X117.5Y-44.5
X117.5Y-94.5
X137.84Y-43.013
X137.84Y-47.66
X137.84Y-48.66
X137.84Y-49.66
X137.84Y-54.66
X137.84Y-55.66
X137.84Y-56.66
X137.84Y-61.66
X137.84Y-62.66
X137.84Y-63.66
X137.84Y-68.66
X137.84Y-69.66
X137.84Y-70.66
X137.84Y-75.66
X137.84Y-76.66
X137.84Y-77.66
X137.84Y-82.66
X137.84Y-83.66
X137.84Y-84.66
X137.84Y-86.0
X137.84Y-93.013
X137.84Y-97.66
X137.84Y-98.66
X137.84Y-99.66
X137.84Y-104.66
X137.84Y-105.66
X137.84Y-106.66
X137.84Y-111.66
X137.84Y-112.66
X137.84Y-113.66
X137.84Y-118.66
X137.84Y-119.66
X137.84Y-120.66
X137.84Y-125.66
X137.84Y-126.66
X137.84Y-127.66
X137.84Y-132.66
X137.84Y-133.66
X137.84Y-134.66
X137.84Y-136.0
T0
M30
