%TF.GenerationSoftware,KiCad,Pcbnew,5.1.8*%
%TF.CreationDate,2020-11-10T00:50:46+08:00*%
%TF.ProjectId,FMESC-1-A-v0.2,464d4553-432d-4312-9d41-2d76302e322e,v0.2*%
%TF.SameCoordinates,Original*%
%TF.FileFunction,Profile,NP*%
%FSLAX46Y46*%
G04 Gerber Fmt 4.6, Leading zero omitted, Abs format (unit mm)*
G04 Created by KiCad (PCBNEW 5.1.8) date 2020-11-10 00:50:46*
%MOMM*%
%LPD*%
G01*
G04 APERTURE LIST*
%TA.AperFunction,Profile*%
%ADD10C,0.400000*%
%TD*%
G04 APERTURE END LIST*
D10*
X91666666Y-90000000D02*
G75*
G03*
X91666666Y-90000000I-1666666J0D01*
G01*
X87500000Y-90000000D02*
X92500000Y-90000000D01*
X90000000Y-87500000D02*
X90000000Y-92500000D01*
X41000000Y-85000000D02*
X41000000Y-45000000D01*
X41000000Y-135000000D02*
X41000000Y-95000000D01*
X49000000Y-139000000D02*
X45000000Y-139000000D01*
X73000000Y-139000000D02*
X57000000Y-139000000D01*
X85000000Y-139000000D02*
X81000000Y-139000000D01*
X99000000Y-139000000D02*
X95000000Y-139000000D01*
X123000000Y-139000000D02*
X107000000Y-139000000D01*
X135000000Y-139000000D02*
X131000000Y-139000000D01*
X139000000Y-95000000D02*
X139000000Y-135000000D01*
X139000000Y-45000000D02*
X139000000Y-85000000D01*
X131000000Y-41000000D02*
X135000000Y-41000000D01*
X107000000Y-41000000D02*
X123000000Y-41000000D01*
X95000000Y-41000000D02*
X99000000Y-41000000D01*
X81000000Y-41000000D02*
X85000000Y-41000000D01*
X57000000Y-41000000D02*
X73000000Y-41000000D01*
X45000000Y-41000000D02*
X49000000Y-41000000D01*
X89000000Y-135000000D02*
X91000000Y-135000000D01*
X139000000Y-93000000D02*
X139000000Y-95000000D01*
X89000000Y-93000000D02*
X89000000Y-95000000D01*
X139000000Y-43000000D02*
X139000000Y-45000000D01*
X131000000Y-89000000D02*
X131000000Y-91000000D01*
X95000000Y-89000000D02*
X95000000Y-91000000D01*
X99000000Y-89000000D02*
X99000000Y-91000000D01*
X101900000Y-91000000D02*
X99000000Y-91000000D01*
X51900000Y-91000000D02*
X49000000Y-91000000D01*
X101900000Y-41000000D02*
X99000000Y-41000000D01*
X104100000Y-139000000D02*
X107000000Y-139000000D01*
X54100000Y-139000000D02*
X57000000Y-139000000D01*
X104100000Y-89000000D02*
X107000000Y-89000000D01*
X128100000Y-139000000D02*
X131000000Y-139000000D01*
X78100000Y-139000000D02*
X81000000Y-139000000D01*
X128100000Y-89000000D02*
X131000000Y-89000000D01*
X91000000Y-93000000D02*
X91000000Y-95000000D01*
X41000000Y-93000000D02*
X41000000Y-95000000D01*
X91000000Y-43000000D02*
X91000000Y-45000000D01*
X89000000Y-95000000D02*
X91000000Y-95000000D01*
X128100000Y-91000000D02*
X131000000Y-91000000D01*
X78100000Y-91000000D02*
X81000000Y-91000000D01*
X128100000Y-41000000D02*
X131000000Y-41000000D01*
X139000000Y-137000000D02*
X139000000Y-135000000D01*
X89000000Y-137000000D02*
X89000000Y-135000000D01*
X139000000Y-87000000D02*
X139000000Y-85000000D01*
X123000000Y-91000000D02*
X125900000Y-91000000D01*
X73000000Y-91000000D02*
X75900000Y-91000000D01*
X123000000Y-41000000D02*
X125900000Y-41000000D01*
X125900000Y-139000000D02*
X123000000Y-139000000D01*
X75900000Y-139000000D02*
X73000000Y-139000000D01*
X125900000Y-89000000D02*
X123000000Y-89000000D01*
X91000000Y-93000000D02*
G75*
G02*
X93000000Y-91000000I2000000J0D01*
G01*
X41000000Y-93000000D02*
G75*
G02*
X43000000Y-91000000I2000000J0D01*
G01*
X91000000Y-43000000D02*
G75*
G02*
X93000000Y-41000000I2000000J0D01*
G01*
X137000000Y-91000000D02*
G75*
G02*
X139000000Y-93000000I0J-2000000D01*
G01*
X87000000Y-91000000D02*
G75*
G02*
X89000000Y-93000000I0J-2000000D01*
G01*
X137000000Y-41000000D02*
G75*
G02*
X139000000Y-43000000I0J-2000000D01*
G01*
X93000000Y-139000000D02*
G75*
G02*
X91000000Y-137000000I0J2000000D01*
G01*
X43000000Y-139000000D02*
G75*
G02*
X41000000Y-137000000I0J2000000D01*
G01*
X93000000Y-89000000D02*
G75*
G02*
X91000000Y-87000000I0J2000000D01*
G01*
X139000000Y-137000000D02*
G75*
G02*
X137000000Y-139000000I-2000000J0D01*
G01*
X89000000Y-137000000D02*
G75*
G02*
X87000000Y-139000000I-2000000J0D01*
G01*
X139000000Y-87000000D02*
G75*
G02*
X137000000Y-89000000I-2000000J0D01*
G01*
X93000000Y-139000000D02*
X95000000Y-139000000D01*
X43000000Y-139000000D02*
X45000000Y-139000000D01*
X93000000Y-89000000D02*
X95000000Y-89000000D01*
X137000000Y-139000000D02*
X135000000Y-139000000D01*
X87000000Y-139000000D02*
X85000000Y-139000000D01*
X137000000Y-89000000D02*
X135000000Y-89000000D01*
X93000000Y-91000000D02*
X95000000Y-91000000D01*
X43000000Y-91000000D02*
X45000000Y-91000000D01*
X93000000Y-41000000D02*
X95000000Y-41000000D01*
X137000000Y-91000000D02*
X135000000Y-91000000D01*
X87000000Y-91000000D02*
X85000000Y-91000000D01*
X137000000Y-41000000D02*
X135000000Y-41000000D01*
X104100000Y-91000000D02*
G75*
G02*
X101900000Y-91000000I-1100000J0D01*
G01*
X54100000Y-91000000D02*
G75*
G02*
X51900000Y-91000000I-1100000J0D01*
G01*
X104100000Y-41000000D02*
G75*
G02*
X101900000Y-41000000I-1100000J0D01*
G01*
X128100000Y-91000000D02*
G75*
G02*
X125900000Y-91000000I-1100000J0D01*
G01*
X78100000Y-91000000D02*
G75*
G02*
X75900000Y-91000000I-1100000J0D01*
G01*
X128100000Y-41000000D02*
G75*
G02*
X125900000Y-41000000I-1100000J0D01*
G01*
X101900000Y-139000000D02*
G75*
G02*
X104100000Y-139000000I1100000J0D01*
G01*
X51900000Y-139000000D02*
G75*
G02*
X54100000Y-139000000I1100000J0D01*
G01*
X101900000Y-89000000D02*
G75*
G02*
X104100000Y-89000000I1100000J0D01*
G01*
X125900000Y-139000000D02*
G75*
G02*
X128100000Y-139000000I1100000J0D01*
G01*
X75900000Y-139000000D02*
G75*
G02*
X78100000Y-139000000I1100000J0D01*
G01*
X125900000Y-89000000D02*
G75*
G02*
X128100000Y-89000000I1100000J0D01*
G01*
X135000000Y-89000000D02*
X135000000Y-91000000D01*
X107000000Y-89000000D02*
X107000000Y-91000000D01*
X123000000Y-89000000D02*
X123000000Y-91000000D01*
X91000000Y-137000000D02*
X91000000Y-135000000D01*
X41000000Y-137000000D02*
X41000000Y-135000000D01*
X91000000Y-87000000D02*
X91000000Y-85000000D01*
X104100000Y-91000000D02*
X107000000Y-91000000D01*
X54100000Y-91000000D02*
X57000000Y-91000000D01*
X104100000Y-41000000D02*
X107000000Y-41000000D01*
X101900000Y-139000000D02*
X99000000Y-139000000D01*
X51900000Y-139000000D02*
X49000000Y-139000000D01*
X101900000Y-89000000D02*
X99000000Y-89000000D01*
X89000000Y-85000000D02*
X91000000Y-85000000D01*
X89000000Y-45000000D02*
X91000000Y-45000000D01*
X89000000Y-43000000D02*
X89000000Y-45000000D01*
X41000000Y-43000000D02*
X41000000Y-45000000D01*
X89000000Y-87000000D02*
X89000000Y-85000000D01*
X41000000Y-87000000D02*
X41000000Y-85000000D01*
X85000000Y-89000000D02*
X85000000Y-91000000D01*
X81000000Y-89000000D02*
X81000000Y-91000000D01*
X73000000Y-89000000D02*
X73000000Y-91000000D01*
X49000000Y-89000000D02*
X49000000Y-91000000D01*
X45000000Y-89000000D02*
X45000000Y-91000000D01*
X57000000Y-89000000D02*
X57000000Y-91000000D01*
X51900000Y-89000000D02*
X49000000Y-89000000D01*
X54100000Y-89000000D02*
X57000000Y-89000000D01*
X78100000Y-89000000D02*
X81000000Y-89000000D01*
X51900000Y-41000000D02*
X49000000Y-41000000D01*
X54100000Y-41000000D02*
X57000000Y-41000000D01*
X78100000Y-41000000D02*
X81000000Y-41000000D01*
X75900000Y-89000000D02*
G75*
G02*
X78100000Y-89000000I1100000J0D01*
G01*
X51900000Y-89000000D02*
G75*
G02*
X54100000Y-89000000I1100000J0D01*
G01*
X78100000Y-41000000D02*
G75*
G02*
X75900000Y-41000000I-1100000J0D01*
G01*
X54100000Y-41000000D02*
G75*
G02*
X51900000Y-41000000I-1100000J0D01*
G01*
X87000000Y-41000000D02*
X85000000Y-41000000D01*
X43000000Y-41000000D02*
X45000000Y-41000000D01*
X87000000Y-89000000D02*
X85000000Y-89000000D01*
X43000000Y-89000000D02*
X45000000Y-89000000D01*
X89000000Y-87000000D02*
G75*
G02*
X87000000Y-89000000I-2000000J0D01*
G01*
X43000000Y-89000000D02*
G75*
G02*
X41000000Y-87000000I0J2000000D01*
G01*
X87000000Y-41000000D02*
G75*
G02*
X89000000Y-43000000I0J-2000000D01*
G01*
X41000000Y-43000000D02*
G75*
G02*
X43000000Y-41000000I2000000J0D01*
G01*
X75900000Y-89000000D02*
X73000000Y-89000000D01*
X73000000Y-41000000D02*
X75900000Y-41000000D01*
M02*
