%TF.GenerationSoftware,KiCad,Pcbnew,5.1.8*%
%TF.CreationDate,2020-11-10T00:50:46+08:00*%
%TF.ProjectId,FMESC-1-A-v0.2,464d4553-432d-4312-9d41-2d76302e322e,v0.2*%
%TF.SameCoordinates,Original*%
%TF.FileFunction,Legend,Top*%
%TF.FilePolarity,Positive*%
%FSLAX46Y46*%
G04 Gerber Fmt 4.6, Leading zero omitted, Abs format (unit mm)*
G04 Created by KiCad (PCBNEW 5.1.8) date 2020-11-10 00:50:46*
%MOMM*%
%LPD*%
G01*
G04 APERTURE LIST*
%ADD10C,0.200000*%
%ADD11C,0.160000*%
%ADD12C,0.400000*%
%ADD13C,0.150000*%
G04 APERTURE END LIST*
D10*
X92500000Y-122500000D02*
X92500000Y-122000000D01*
X42500000Y-122500000D02*
X42500000Y-122000000D01*
X92500000Y-72500000D02*
X92500000Y-72000000D01*
X92500000Y-128000000D02*
X92500000Y-126500000D01*
X42500000Y-128000000D02*
X42500000Y-126500000D01*
X92500000Y-78000000D02*
X92500000Y-76500000D01*
X100000000Y-91000000D02*
X93000000Y-91000000D01*
X50000000Y-91000000D02*
X43000000Y-91000000D01*
X100000000Y-41000000D02*
X93000000Y-41000000D01*
X91000000Y-93000000D02*
X91000000Y-137000000D01*
X41000000Y-93000000D02*
X41000000Y-137000000D01*
X91000000Y-43000000D02*
X91000000Y-87000000D01*
X92500000Y-107000000D02*
X92500000Y-105500000D01*
X42500000Y-107000000D02*
X42500000Y-105500000D01*
X92500000Y-57000000D02*
X92500000Y-55500000D01*
X104500000Y-101000000D02*
X104500000Y-101500000D01*
X54500000Y-101000000D02*
X54500000Y-101500000D01*
X104500000Y-51000000D02*
X104500000Y-51500000D01*
X92500000Y-100000000D02*
X92500000Y-98500000D01*
X42500000Y-100000000D02*
X42500000Y-98500000D01*
X92500000Y-50000000D02*
X92500000Y-48500000D01*
X92500000Y-101500000D02*
X92500000Y-101000000D01*
X42500000Y-101500000D02*
X42500000Y-101000000D01*
X92500000Y-51500000D02*
X92500000Y-51000000D01*
X104500000Y-127500000D02*
X104500000Y-128000000D01*
X54500000Y-127500000D02*
X54500000Y-128000000D01*
X104500000Y-77500000D02*
X104500000Y-78000000D01*
X92500000Y-114000000D02*
X92500000Y-112500000D01*
X42500000Y-114000000D02*
X42500000Y-112500000D01*
X92500000Y-64000000D02*
X92500000Y-62500000D01*
X92500000Y-108500000D02*
X92500000Y-108000000D01*
X42500000Y-108500000D02*
X42500000Y-108000000D01*
X92500000Y-58500000D02*
X92500000Y-58000000D01*
X92500000Y-94500000D02*
X93500000Y-94500000D01*
X42500000Y-94500000D02*
X43500000Y-94500000D01*
X92500000Y-44500000D02*
X93500000Y-44500000D01*
D11*
X98500000Y-135500000D02*
X98500000Y-135000000D01*
X48500000Y-135500000D02*
X48500000Y-135000000D01*
X98500000Y-85500000D02*
X98500000Y-85000000D01*
D10*
X104500000Y-122000000D02*
X104500000Y-122500000D01*
X54500000Y-122000000D02*
X54500000Y-122500000D01*
X104500000Y-72000000D02*
X104500000Y-72500000D01*
X104500000Y-108000000D02*
X104500000Y-108500000D01*
X54500000Y-108000000D02*
X54500000Y-108500000D01*
X104500000Y-58000000D02*
X104500000Y-58500000D01*
D11*
X98500000Y-114500000D02*
X98500000Y-114000000D01*
X48500000Y-114500000D02*
X48500000Y-114000000D01*
X98500000Y-64500000D02*
X98500000Y-64000000D01*
X131500000Y-115500000D02*
X131500000Y-116000000D01*
X81500000Y-115500000D02*
X81500000Y-116000000D01*
X131500000Y-65500000D02*
X131500000Y-66000000D01*
D10*
X139000000Y-93000000D02*
X139000000Y-137000000D01*
X89000000Y-93000000D02*
X89000000Y-137000000D01*
X139000000Y-43000000D02*
X139000000Y-87000000D01*
X104500000Y-120500000D02*
X104500000Y-121000000D01*
X54500000Y-120500000D02*
X54500000Y-121000000D01*
X104500000Y-70500000D02*
X104500000Y-71000000D01*
X104500000Y-99500000D02*
X104500000Y-100000000D01*
X54500000Y-99500000D02*
X54500000Y-100000000D01*
X104500000Y-49500000D02*
X104500000Y-50000000D01*
X100000000Y-114500000D02*
X97000000Y-114500000D01*
X50000000Y-114500000D02*
X47000000Y-114500000D01*
X100000000Y-64500000D02*
X97000000Y-64500000D01*
D11*
X131500000Y-94500000D02*
X131500000Y-95000000D01*
X81500000Y-94500000D02*
X81500000Y-95000000D01*
X131500000Y-44500000D02*
X131500000Y-45000000D01*
D10*
X100000000Y-139000000D02*
X93000000Y-139000000D01*
X50000000Y-139000000D02*
X43000000Y-139000000D01*
X100000000Y-89000000D02*
X93000000Y-89000000D01*
X130000000Y-139000000D02*
X137000000Y-139000000D01*
X80000000Y-139000000D02*
X87000000Y-139000000D01*
X130000000Y-89000000D02*
X137000000Y-89000000D01*
X130000000Y-91000000D02*
X137000000Y-91000000D01*
X80000000Y-91000000D02*
X87000000Y-91000000D01*
X130000000Y-41000000D02*
X137000000Y-41000000D01*
X104500000Y-113500000D02*
X104500000Y-114000000D01*
X54500000Y-113500000D02*
X54500000Y-114000000D01*
X104500000Y-63500000D02*
X104500000Y-64000000D01*
X92500000Y-129500000D02*
X92500000Y-129000000D01*
X42500000Y-129500000D02*
X42500000Y-129000000D01*
X92500000Y-79500000D02*
X92500000Y-79000000D01*
X104500000Y-134500000D02*
X104500000Y-135000000D01*
X54500000Y-134500000D02*
X54500000Y-135000000D01*
X104500000Y-84500000D02*
X104500000Y-85000000D01*
X92500000Y-121000000D02*
X92500000Y-119500000D01*
X42500000Y-121000000D02*
X42500000Y-119500000D01*
X92500000Y-71000000D02*
X92500000Y-69500000D01*
X92500000Y-135000000D02*
X92500000Y-133500000D01*
X42500000Y-135000000D02*
X42500000Y-133500000D01*
X92500000Y-85000000D02*
X92500000Y-83500000D01*
X115000000Y-134000000D02*
X115000000Y-133000000D01*
X65000000Y-134000000D02*
X65000000Y-133000000D01*
X115000000Y-84000000D02*
X115000000Y-83000000D01*
D12*
X105000000Y-94000000D02*
X125000000Y-94000000D01*
X55000000Y-94000000D02*
X75000000Y-94000000D01*
X105000000Y-44000000D02*
X125000000Y-44000000D01*
D10*
X115000000Y-94000000D02*
X115000000Y-95000000D01*
X65000000Y-94000000D02*
X65000000Y-95000000D01*
X115000000Y-44000000D02*
X115000000Y-45000000D01*
D12*
X125000000Y-100500000D02*
X125000000Y-101000000D01*
X75000000Y-100500000D02*
X75000000Y-101000000D01*
X125000000Y-50500000D02*
X125000000Y-51000000D01*
X125000000Y-102000000D02*
X125000000Y-102500000D01*
X75000000Y-102000000D02*
X75000000Y-102500000D01*
X125000000Y-52000000D02*
X125000000Y-52500000D01*
X125000000Y-107500000D02*
X125000000Y-108000000D01*
X75000000Y-107500000D02*
X75000000Y-108000000D01*
X125000000Y-57500000D02*
X125000000Y-58000000D01*
X125000000Y-109000000D02*
X125000000Y-109500000D01*
X75000000Y-109000000D02*
X75000000Y-109500000D01*
X125000000Y-59000000D02*
X125000000Y-59500000D01*
X125000000Y-114500000D02*
X125000000Y-115000000D01*
X75000000Y-114500000D02*
X75000000Y-115000000D01*
X125000000Y-64500000D02*
X125000000Y-65000000D01*
X125000000Y-116000000D02*
X125000000Y-116500000D01*
X75000000Y-116000000D02*
X75000000Y-116500000D01*
X125000000Y-66000000D02*
X125000000Y-66500000D01*
X125000000Y-121500000D02*
X125000000Y-122000000D01*
X75000000Y-121500000D02*
X75000000Y-122000000D01*
X125000000Y-71500000D02*
X125000000Y-72000000D01*
X125000000Y-123000000D02*
X125000000Y-123500000D01*
X75000000Y-123000000D02*
X75000000Y-123500000D01*
X125000000Y-73000000D02*
X125000000Y-73500000D01*
X125000000Y-128500000D02*
X125000000Y-129000000D01*
X75000000Y-128500000D02*
X75000000Y-129000000D01*
X125000000Y-78500000D02*
X125000000Y-79000000D01*
X125000000Y-130000000D02*
X125000000Y-130500000D01*
X75000000Y-130000000D02*
X75000000Y-130500000D01*
X125000000Y-80000000D02*
X125000000Y-80500000D01*
X125000000Y-95500000D02*
X125000000Y-95000000D01*
X75000000Y-95500000D02*
X75000000Y-95000000D01*
X125000000Y-45500000D02*
X125000000Y-45000000D01*
X105000000Y-94000000D02*
X105000000Y-94500000D01*
X55000000Y-94000000D02*
X55000000Y-94500000D01*
X105000000Y-44000000D02*
X105000000Y-44500000D01*
X105000000Y-99500000D02*
X105000000Y-100000000D01*
X55000000Y-99500000D02*
X55000000Y-100000000D01*
X105000000Y-49500000D02*
X105000000Y-50000000D01*
D10*
X106000000Y-139000000D02*
X124000000Y-139000000D01*
X56000000Y-139000000D02*
X74000000Y-139000000D01*
X106000000Y-89000000D02*
X124000000Y-89000000D01*
X99500000Y-94500000D02*
X102500000Y-94500000D01*
X49500000Y-94500000D02*
X52500000Y-94500000D01*
X99500000Y-44500000D02*
X102500000Y-44500000D01*
X104500000Y-129000000D02*
X104500000Y-129500000D01*
X54500000Y-129000000D02*
X54500000Y-129500000D01*
X104500000Y-79000000D02*
X104500000Y-79500000D01*
D12*
X105000000Y-101000000D02*
X105000000Y-101500000D01*
X55000000Y-101000000D02*
X55000000Y-101500000D01*
X105000000Y-51000000D02*
X105000000Y-51500000D01*
X105000000Y-106500000D02*
X105000000Y-107000000D01*
X55000000Y-106500000D02*
X55000000Y-107000000D01*
X105000000Y-56500000D02*
X105000000Y-57000000D01*
X105000000Y-108000000D02*
X105000000Y-108500000D01*
X55000000Y-108000000D02*
X55000000Y-108500000D01*
X105000000Y-58000000D02*
X105000000Y-58500000D01*
X105000000Y-113500000D02*
X105000000Y-114000000D01*
X55000000Y-113500000D02*
X55000000Y-114000000D01*
X105000000Y-63500000D02*
X105000000Y-64000000D01*
X105000000Y-115000000D02*
X105000000Y-115500000D01*
X55000000Y-115000000D02*
X55000000Y-115500000D01*
X105000000Y-65000000D02*
X105000000Y-65500000D01*
X105000000Y-120500000D02*
X105000000Y-121000000D01*
X55000000Y-120500000D02*
X55000000Y-121000000D01*
X105000000Y-70500000D02*
X105000000Y-71000000D01*
X105000000Y-122000000D02*
X105000000Y-122500000D01*
X55000000Y-122000000D02*
X55000000Y-122500000D01*
X105000000Y-72000000D02*
X105000000Y-72500000D01*
X105000000Y-127500000D02*
X105000000Y-128000000D01*
X55000000Y-127500000D02*
X55000000Y-128000000D01*
X105000000Y-77500000D02*
X105000000Y-78000000D01*
X105000000Y-129000000D02*
X105000000Y-129500000D01*
X55000000Y-129000000D02*
X55000000Y-129500000D01*
X105000000Y-79000000D02*
X105000000Y-79500000D01*
D10*
X130000000Y-94500000D02*
X133000000Y-94500000D01*
X80000000Y-94500000D02*
X83000000Y-94500000D01*
X130000000Y-44500000D02*
X133000000Y-44500000D01*
X137500000Y-95000000D02*
X137500000Y-96500000D01*
X87500000Y-95000000D02*
X87500000Y-96500000D01*
X137500000Y-45000000D02*
X137500000Y-46500000D01*
X137500000Y-100500000D02*
X137500000Y-101000000D01*
X87500000Y-100500000D02*
X87500000Y-101000000D01*
X137500000Y-50500000D02*
X137500000Y-51000000D01*
X137500000Y-102000000D02*
X137500000Y-103500000D01*
X87500000Y-102000000D02*
X87500000Y-103500000D01*
X137500000Y-52000000D02*
X137500000Y-53500000D01*
X137500000Y-107500000D02*
X137500000Y-108000000D01*
X87500000Y-107500000D02*
X87500000Y-108000000D01*
X137500000Y-57500000D02*
X137500000Y-58000000D01*
X137500000Y-109000000D02*
X137500000Y-110500000D01*
X87500000Y-109000000D02*
X87500000Y-110500000D01*
X137500000Y-59000000D02*
X137500000Y-60500000D01*
X137500000Y-114500000D02*
X125500000Y-114500000D01*
X87500000Y-114500000D02*
X75500000Y-114500000D01*
X137500000Y-64500000D02*
X125500000Y-64500000D01*
X125500000Y-109500000D02*
X125500000Y-109000000D01*
X75500000Y-109500000D02*
X75500000Y-109000000D01*
X125500000Y-59500000D02*
X125500000Y-59000000D01*
X125500000Y-108000000D02*
X125500000Y-107500000D01*
X75500000Y-108000000D02*
X75500000Y-107500000D01*
X125500000Y-58000000D02*
X125500000Y-57500000D01*
X125500000Y-102500000D02*
X125500000Y-102000000D01*
X75500000Y-102500000D02*
X75500000Y-102000000D01*
X125500000Y-52500000D02*
X125500000Y-52000000D01*
X125500000Y-101000000D02*
X125500000Y-100500000D01*
X75500000Y-101000000D02*
X75500000Y-100500000D01*
X125500000Y-51000000D02*
X125500000Y-50500000D01*
X125500000Y-95500000D02*
X125500000Y-95000000D01*
X75500000Y-95500000D02*
X75500000Y-95000000D01*
X125500000Y-45500000D02*
X125500000Y-45000000D01*
X130000000Y-115500000D02*
X133000000Y-115500000D01*
X80000000Y-115500000D02*
X83000000Y-115500000D01*
X130000000Y-65500000D02*
X133000000Y-65500000D01*
X137500000Y-116000000D02*
X137500000Y-117500000D01*
X87500000Y-116000000D02*
X87500000Y-117500000D01*
X137500000Y-66000000D02*
X137500000Y-67500000D01*
X137500000Y-121500000D02*
X137500000Y-122000000D01*
X87500000Y-121500000D02*
X87500000Y-122000000D01*
X137500000Y-71500000D02*
X137500000Y-72000000D01*
X137500000Y-123000000D02*
X137500000Y-124500000D01*
X87500000Y-123000000D02*
X87500000Y-124500000D01*
X137500000Y-73000000D02*
X137500000Y-74500000D01*
X137500000Y-128500000D02*
X137500000Y-129000000D01*
X87500000Y-128500000D02*
X87500000Y-129000000D01*
X137500000Y-78500000D02*
X137500000Y-79000000D01*
X137500000Y-130000000D02*
X137500000Y-131500000D01*
X87500000Y-130000000D02*
X87500000Y-131500000D01*
X137500000Y-80000000D02*
X137500000Y-81500000D01*
X137500000Y-135500000D02*
X125500000Y-135500000D01*
X87500000Y-135500000D02*
X75500000Y-135500000D01*
X137500000Y-85500000D02*
X125500000Y-85500000D01*
X125500000Y-130500000D02*
X125500000Y-130000000D01*
X75500000Y-130500000D02*
X75500000Y-130000000D01*
X125500000Y-80500000D02*
X125500000Y-80000000D01*
X125500000Y-129000000D02*
X125500000Y-128500000D01*
X75500000Y-129000000D02*
X75500000Y-128500000D01*
X125500000Y-79000000D02*
X125500000Y-78500000D01*
X125500000Y-123500000D02*
X125500000Y-123000000D01*
X75500000Y-123500000D02*
X75500000Y-123000000D01*
X125500000Y-73500000D02*
X125500000Y-73000000D01*
X125500000Y-122000000D02*
X125500000Y-121500000D01*
X75500000Y-122000000D02*
X75500000Y-121500000D01*
X125500000Y-72000000D02*
X125500000Y-71500000D01*
X125500000Y-116500000D02*
X125500000Y-116000000D01*
X75500000Y-116500000D02*
X75500000Y-116000000D01*
X125500000Y-66500000D02*
X125500000Y-66000000D01*
D13*
X111642857Y-92047619D02*
X111690476Y-92000000D01*
X111785714Y-91952380D01*
X112023809Y-91952380D01*
X112119047Y-92000000D01*
X112166666Y-92047619D01*
X112214285Y-92142857D01*
X112214285Y-92238095D01*
X112166666Y-92380952D01*
X111595238Y-92952380D01*
X112214285Y-92952380D01*
X112833333Y-91952380D02*
X112928571Y-91952380D01*
X113023809Y-92000000D01*
X113071428Y-92047619D01*
X113119047Y-92142857D01*
X113166666Y-92333333D01*
X113166666Y-92571428D01*
X113119047Y-92761904D01*
X113071428Y-92857142D01*
X113023809Y-92904761D01*
X112928571Y-92952380D01*
X112833333Y-92952380D01*
X112738095Y-92904761D01*
X112690476Y-92857142D01*
X112642857Y-92761904D01*
X112595238Y-92571428D01*
X112595238Y-92333333D01*
X112642857Y-92142857D01*
X112690476Y-92047619D01*
X112738095Y-92000000D01*
X112833333Y-91952380D01*
X113547619Y-92047619D02*
X113595238Y-92000000D01*
X113690476Y-91952380D01*
X113928571Y-91952380D01*
X114023809Y-92000000D01*
X114071428Y-92047619D01*
X114119047Y-92142857D01*
X114119047Y-92238095D01*
X114071428Y-92380952D01*
X113500000Y-92952380D01*
X114119047Y-92952380D01*
X114738095Y-91952380D02*
X114833333Y-91952380D01*
X114928571Y-92000000D01*
X114976190Y-92047619D01*
X115023809Y-92142857D01*
X115071428Y-92333333D01*
X115071428Y-92571428D01*
X115023809Y-92761904D01*
X114976190Y-92857142D01*
X114928571Y-92904761D01*
X114833333Y-92952380D01*
X114738095Y-92952380D01*
X114642857Y-92904761D01*
X114595238Y-92857142D01*
X114547619Y-92761904D01*
X114500000Y-92571428D01*
X114500000Y-92333333D01*
X114547619Y-92142857D01*
X114595238Y-92047619D01*
X114642857Y-92000000D01*
X114738095Y-91952380D01*
X115500000Y-92571428D02*
X116261904Y-92571428D01*
X117261904Y-92952380D02*
X116690476Y-92952380D01*
X116976190Y-92952380D02*
X116976190Y-91952380D01*
X116880952Y-92095238D01*
X116785714Y-92190476D01*
X116690476Y-92238095D01*
X118214285Y-92952380D02*
X117642857Y-92952380D01*
X117928571Y-92952380D02*
X117928571Y-91952380D01*
X117833333Y-92095238D01*
X117738095Y-92190476D01*
X117642857Y-92238095D01*
X118642857Y-92571428D02*
X119404761Y-92571428D01*
X120404761Y-92952380D02*
X119833333Y-92952380D01*
X120119047Y-92952380D02*
X120119047Y-91952380D01*
X120023809Y-92095238D01*
X119928571Y-92190476D01*
X119833333Y-92238095D01*
X121023809Y-91952380D02*
X121119047Y-91952380D01*
X121214285Y-92000000D01*
X121261904Y-92047619D01*
X121309523Y-92142857D01*
X121357142Y-92333333D01*
X121357142Y-92571428D01*
X121309523Y-92761904D01*
X121261904Y-92857142D01*
X121214285Y-92904761D01*
X121119047Y-92952380D01*
X121023809Y-92952380D01*
X120928571Y-92904761D01*
X120880952Y-92857142D01*
X120833333Y-92761904D01*
X120785714Y-92571428D01*
X120785714Y-92333333D01*
X120833333Y-92142857D01*
X120880952Y-92047619D01*
X120928571Y-92000000D01*
X121023809Y-91952380D01*
X61642857Y-92047619D02*
X61690476Y-92000000D01*
X61785714Y-91952380D01*
X62023809Y-91952380D01*
X62119047Y-92000000D01*
X62166666Y-92047619D01*
X62214285Y-92142857D01*
X62214285Y-92238095D01*
X62166666Y-92380952D01*
X61595238Y-92952380D01*
X62214285Y-92952380D01*
X62833333Y-91952380D02*
X62928571Y-91952380D01*
X63023809Y-92000000D01*
X63071428Y-92047619D01*
X63119047Y-92142857D01*
X63166666Y-92333333D01*
X63166666Y-92571428D01*
X63119047Y-92761904D01*
X63071428Y-92857142D01*
X63023809Y-92904761D01*
X62928571Y-92952380D01*
X62833333Y-92952380D01*
X62738095Y-92904761D01*
X62690476Y-92857142D01*
X62642857Y-92761904D01*
X62595238Y-92571428D01*
X62595238Y-92333333D01*
X62642857Y-92142857D01*
X62690476Y-92047619D01*
X62738095Y-92000000D01*
X62833333Y-91952380D01*
X63547619Y-92047619D02*
X63595238Y-92000000D01*
X63690476Y-91952380D01*
X63928571Y-91952380D01*
X64023809Y-92000000D01*
X64071428Y-92047619D01*
X64119047Y-92142857D01*
X64119047Y-92238095D01*
X64071428Y-92380952D01*
X63500000Y-92952380D01*
X64119047Y-92952380D01*
X64738095Y-91952380D02*
X64833333Y-91952380D01*
X64928571Y-92000000D01*
X64976190Y-92047619D01*
X65023809Y-92142857D01*
X65071428Y-92333333D01*
X65071428Y-92571428D01*
X65023809Y-92761904D01*
X64976190Y-92857142D01*
X64928571Y-92904761D01*
X64833333Y-92952380D01*
X64738095Y-92952380D01*
X64642857Y-92904761D01*
X64595238Y-92857142D01*
X64547619Y-92761904D01*
X64500000Y-92571428D01*
X64500000Y-92333333D01*
X64547619Y-92142857D01*
X64595238Y-92047619D01*
X64642857Y-92000000D01*
X64738095Y-91952380D01*
X65500000Y-92571428D02*
X66261904Y-92571428D01*
X67261904Y-92952380D02*
X66690476Y-92952380D01*
X66976190Y-92952380D02*
X66976190Y-91952380D01*
X66880952Y-92095238D01*
X66785714Y-92190476D01*
X66690476Y-92238095D01*
X68214285Y-92952380D02*
X67642857Y-92952380D01*
X67928571Y-92952380D02*
X67928571Y-91952380D01*
X67833333Y-92095238D01*
X67738095Y-92190476D01*
X67642857Y-92238095D01*
X68642857Y-92571428D02*
X69404761Y-92571428D01*
X70404761Y-92952380D02*
X69833333Y-92952380D01*
X70119047Y-92952380D02*
X70119047Y-91952380D01*
X70023809Y-92095238D01*
X69928571Y-92190476D01*
X69833333Y-92238095D01*
X71023809Y-91952380D02*
X71119047Y-91952380D01*
X71214285Y-92000000D01*
X71261904Y-92047619D01*
X71309523Y-92142857D01*
X71357142Y-92333333D01*
X71357142Y-92571428D01*
X71309523Y-92761904D01*
X71261904Y-92857142D01*
X71214285Y-92904761D01*
X71119047Y-92952380D01*
X71023809Y-92952380D01*
X70928571Y-92904761D01*
X70880952Y-92857142D01*
X70833333Y-92761904D01*
X70785714Y-92571428D01*
X70785714Y-92333333D01*
X70833333Y-92142857D01*
X70880952Y-92047619D01*
X70928571Y-92000000D01*
X71023809Y-91952380D01*
X111642857Y-42047619D02*
X111690476Y-42000000D01*
X111785714Y-41952380D01*
X112023809Y-41952380D01*
X112119047Y-42000000D01*
X112166666Y-42047619D01*
X112214285Y-42142857D01*
X112214285Y-42238095D01*
X112166666Y-42380952D01*
X111595238Y-42952380D01*
X112214285Y-42952380D01*
X112833333Y-41952380D02*
X112928571Y-41952380D01*
X113023809Y-42000000D01*
X113071428Y-42047619D01*
X113119047Y-42142857D01*
X113166666Y-42333333D01*
X113166666Y-42571428D01*
X113119047Y-42761904D01*
X113071428Y-42857142D01*
X113023809Y-42904761D01*
X112928571Y-42952380D01*
X112833333Y-42952380D01*
X112738095Y-42904761D01*
X112690476Y-42857142D01*
X112642857Y-42761904D01*
X112595238Y-42571428D01*
X112595238Y-42333333D01*
X112642857Y-42142857D01*
X112690476Y-42047619D01*
X112738095Y-42000000D01*
X112833333Y-41952380D01*
X113547619Y-42047619D02*
X113595238Y-42000000D01*
X113690476Y-41952380D01*
X113928571Y-41952380D01*
X114023809Y-42000000D01*
X114071428Y-42047619D01*
X114119047Y-42142857D01*
X114119047Y-42238095D01*
X114071428Y-42380952D01*
X113500000Y-42952380D01*
X114119047Y-42952380D01*
X114738095Y-41952380D02*
X114833333Y-41952380D01*
X114928571Y-42000000D01*
X114976190Y-42047619D01*
X115023809Y-42142857D01*
X115071428Y-42333333D01*
X115071428Y-42571428D01*
X115023809Y-42761904D01*
X114976190Y-42857142D01*
X114928571Y-42904761D01*
X114833333Y-42952380D01*
X114738095Y-42952380D01*
X114642857Y-42904761D01*
X114595238Y-42857142D01*
X114547619Y-42761904D01*
X114500000Y-42571428D01*
X114500000Y-42333333D01*
X114547619Y-42142857D01*
X114595238Y-42047619D01*
X114642857Y-42000000D01*
X114738095Y-41952380D01*
X115500000Y-42571428D02*
X116261904Y-42571428D01*
X117261904Y-42952380D02*
X116690476Y-42952380D01*
X116976190Y-42952380D02*
X116976190Y-41952380D01*
X116880952Y-42095238D01*
X116785714Y-42190476D01*
X116690476Y-42238095D01*
X118214285Y-42952380D02*
X117642857Y-42952380D01*
X117928571Y-42952380D02*
X117928571Y-41952380D01*
X117833333Y-42095238D01*
X117738095Y-42190476D01*
X117642857Y-42238095D01*
X118642857Y-42571428D02*
X119404761Y-42571428D01*
X120404761Y-42952380D02*
X119833333Y-42952380D01*
X120119047Y-42952380D02*
X120119047Y-41952380D01*
X120023809Y-42095238D01*
X119928571Y-42190476D01*
X119833333Y-42238095D01*
X121023809Y-41952380D02*
X121119047Y-41952380D01*
X121214285Y-42000000D01*
X121261904Y-42047619D01*
X121309523Y-42142857D01*
X121357142Y-42333333D01*
X121357142Y-42571428D01*
X121309523Y-42761904D01*
X121261904Y-42857142D01*
X121214285Y-42904761D01*
X121119047Y-42952380D01*
X121023809Y-42952380D01*
X120928571Y-42904761D01*
X120880952Y-42857142D01*
X120833333Y-42761904D01*
X120785714Y-42571428D01*
X120785714Y-42333333D01*
X120833333Y-42142857D01*
X120880952Y-42047619D01*
X120928571Y-42000000D01*
X121023809Y-41952380D01*
D10*
X131000000Y-92000000D02*
X132000000Y-92000000D01*
X81000000Y-92000000D02*
X82000000Y-92000000D01*
X131000000Y-42000000D02*
X132000000Y-42000000D01*
X132000000Y-92000000D02*
X132000000Y-93000000D01*
X82000000Y-92000000D02*
X82000000Y-93000000D01*
X132000000Y-42000000D02*
X132000000Y-43000000D01*
X132000000Y-93000000D02*
X131000000Y-93000000D01*
X82000000Y-93000000D02*
X81000000Y-93000000D01*
X132000000Y-43000000D02*
X131000000Y-43000000D01*
X131000000Y-93000000D02*
X131000000Y-92000000D01*
X81000000Y-93000000D02*
X81000000Y-92000000D01*
X131000000Y-43000000D02*
X131000000Y-42000000D01*
X98000000Y-138000000D02*
X98000000Y-137000000D01*
X48000000Y-138000000D02*
X48000000Y-137000000D01*
X98000000Y-88000000D02*
X98000000Y-87000000D01*
X99000000Y-138000000D02*
X98000000Y-138000000D01*
X49000000Y-138000000D02*
X48000000Y-138000000D01*
X99000000Y-88000000D02*
X98000000Y-88000000D01*
X99000000Y-137000000D02*
X99000000Y-138000000D01*
X49000000Y-137000000D02*
X49000000Y-138000000D01*
X99000000Y-87000000D02*
X99000000Y-88000000D01*
X98000000Y-137000000D02*
X99000000Y-137000000D01*
X48000000Y-137000000D02*
X49000000Y-137000000D01*
X98000000Y-87000000D02*
X99000000Y-87000000D01*
X106000000Y-91000000D02*
X124000000Y-91000000D01*
X56000000Y-91000000D02*
X74000000Y-91000000D01*
X106000000Y-41000000D02*
X124000000Y-41000000D01*
X104500000Y-106500000D02*
X104500000Y-107000000D01*
X54500000Y-106500000D02*
X54500000Y-107000000D01*
X104500000Y-56500000D02*
X104500000Y-57000000D01*
D12*
X100000000Y-139000000D02*
G75*
G02*
X106000000Y-139000000I3000000J0D01*
G01*
X50000000Y-139000000D02*
G75*
G02*
X56000000Y-139000000I3000000J0D01*
G01*
X100000000Y-89000000D02*
G75*
G02*
X106000000Y-89000000I3000000J0D01*
G01*
X124000000Y-139000000D02*
G75*
G02*
X130000000Y-139000000I3000000J0D01*
G01*
X74000000Y-139000000D02*
G75*
G02*
X80000000Y-139000000I3000000J0D01*
G01*
X124000000Y-89000000D02*
G75*
G02*
X130000000Y-89000000I3000000J0D01*
G01*
X106000000Y-91000000D02*
G75*
G02*
X100000000Y-91000000I-3000000J0D01*
G01*
X56000000Y-91000000D02*
G75*
G02*
X50000000Y-91000000I-3000000J0D01*
G01*
X106000000Y-41000000D02*
G75*
G02*
X100000000Y-41000000I-3000000J0D01*
G01*
X130000000Y-91000000D02*
G75*
G02*
X124000000Y-91000000I-3000000J0D01*
G01*
X80000000Y-91000000D02*
G75*
G02*
X74000000Y-91000000I-3000000J0D01*
G01*
X130000000Y-41000000D02*
G75*
G02*
X124000000Y-41000000I-3000000J0D01*
G01*
D10*
X100000000Y-135500000D02*
X97000000Y-135500000D01*
X50000000Y-135500000D02*
X47000000Y-135500000D01*
X100000000Y-85500000D02*
X97000000Y-85500000D01*
D12*
X112000000Y-134000000D02*
X118000000Y-134000000D01*
X62000000Y-134000000D02*
X68000000Y-134000000D01*
X112000000Y-84000000D02*
X118000000Y-84000000D01*
D10*
X99500000Y-115500000D02*
X102500000Y-115500000D01*
X49500000Y-115500000D02*
X52500000Y-115500000D01*
X99500000Y-65500000D02*
X102500000Y-65500000D01*
X93500000Y-115500000D02*
X92500000Y-115500000D01*
X43500000Y-115500000D02*
X42500000Y-115500000D01*
X93500000Y-65500000D02*
X92500000Y-65500000D01*
D11*
X48500000Y-85500000D02*
X48500000Y-85000000D01*
D10*
X42500000Y-71000000D02*
X42500000Y-69500000D01*
X42500000Y-72500000D02*
X42500000Y-72000000D01*
X42500000Y-78000000D02*
X42500000Y-76500000D01*
X42500000Y-79500000D02*
X42500000Y-79000000D01*
X42500000Y-85000000D02*
X42500000Y-83500000D01*
X50000000Y-85500000D02*
X47000000Y-85500000D01*
X54500000Y-84500000D02*
X54500000Y-85000000D01*
X54500000Y-79000000D02*
X54500000Y-79500000D01*
X54500000Y-77500000D02*
X54500000Y-78000000D01*
X54500000Y-72000000D02*
X54500000Y-72500000D01*
X54500000Y-70500000D02*
X54500000Y-71000000D01*
X43500000Y-65500000D02*
X42500000Y-65500000D01*
X49500000Y-65500000D02*
X52500000Y-65500000D01*
D11*
X81500000Y-44500000D02*
X81500000Y-45000000D01*
X81500000Y-65500000D02*
X81500000Y-66000000D01*
X48500000Y-64500000D02*
X48500000Y-64000000D01*
D10*
X42500000Y-44500000D02*
X43500000Y-44500000D01*
X42500000Y-50000000D02*
X42500000Y-48500000D01*
X42500000Y-51500000D02*
X42500000Y-51000000D01*
X42500000Y-57000000D02*
X42500000Y-55500000D01*
X42500000Y-58500000D02*
X42500000Y-58000000D01*
X42500000Y-64000000D02*
X42500000Y-62500000D01*
X50000000Y-64500000D02*
X47000000Y-64500000D01*
X54500000Y-63500000D02*
X54500000Y-64000000D01*
X54500000Y-58000000D02*
X54500000Y-58500000D01*
X54500000Y-56500000D02*
X54500000Y-57000000D01*
X54500000Y-51000000D02*
X54500000Y-51500000D01*
X54500000Y-49500000D02*
X54500000Y-50000000D01*
X49500000Y-44500000D02*
X52500000Y-44500000D01*
X89000000Y-43000000D02*
X89000000Y-87000000D01*
X41000000Y-43000000D02*
X41000000Y-87000000D01*
X80000000Y-89000000D02*
X87000000Y-89000000D01*
X50000000Y-89000000D02*
X43000000Y-89000000D01*
X56000000Y-89000000D02*
X74000000Y-89000000D01*
X50000000Y-41000000D02*
X43000000Y-41000000D01*
X80000000Y-41000000D02*
X87000000Y-41000000D01*
X56000000Y-41000000D02*
X74000000Y-41000000D01*
X48000000Y-87000000D02*
X49000000Y-87000000D01*
X49000000Y-87000000D02*
X49000000Y-88000000D01*
X49000000Y-88000000D02*
X48000000Y-88000000D01*
X48000000Y-88000000D02*
X48000000Y-87000000D01*
X81000000Y-43000000D02*
X81000000Y-42000000D01*
X82000000Y-43000000D02*
X81000000Y-43000000D01*
X82000000Y-42000000D02*
X82000000Y-43000000D01*
X81000000Y-42000000D02*
X82000000Y-42000000D01*
D13*
X61642857Y-42047619D02*
X61690476Y-42000000D01*
X61785714Y-41952380D01*
X62023809Y-41952380D01*
X62119047Y-42000000D01*
X62166666Y-42047619D01*
X62214285Y-42142857D01*
X62214285Y-42238095D01*
X62166666Y-42380952D01*
X61595238Y-42952380D01*
X62214285Y-42952380D01*
X62833333Y-41952380D02*
X62928571Y-41952380D01*
X63023809Y-42000000D01*
X63071428Y-42047619D01*
X63119047Y-42142857D01*
X63166666Y-42333333D01*
X63166666Y-42571428D01*
X63119047Y-42761904D01*
X63071428Y-42857142D01*
X63023809Y-42904761D01*
X62928571Y-42952380D01*
X62833333Y-42952380D01*
X62738095Y-42904761D01*
X62690476Y-42857142D01*
X62642857Y-42761904D01*
X62595238Y-42571428D01*
X62595238Y-42333333D01*
X62642857Y-42142857D01*
X62690476Y-42047619D01*
X62738095Y-42000000D01*
X62833333Y-41952380D01*
X63547619Y-42047619D02*
X63595238Y-42000000D01*
X63690476Y-41952380D01*
X63928571Y-41952380D01*
X64023809Y-42000000D01*
X64071428Y-42047619D01*
X64119047Y-42142857D01*
X64119047Y-42238095D01*
X64071428Y-42380952D01*
X63500000Y-42952380D01*
X64119047Y-42952380D01*
X64738095Y-41952380D02*
X64833333Y-41952380D01*
X64928571Y-42000000D01*
X64976190Y-42047619D01*
X65023809Y-42142857D01*
X65071428Y-42333333D01*
X65071428Y-42571428D01*
X65023809Y-42761904D01*
X64976190Y-42857142D01*
X64928571Y-42904761D01*
X64833333Y-42952380D01*
X64738095Y-42952380D01*
X64642857Y-42904761D01*
X64595238Y-42857142D01*
X64547619Y-42761904D01*
X64500000Y-42571428D01*
X64500000Y-42333333D01*
X64547619Y-42142857D01*
X64595238Y-42047619D01*
X64642857Y-42000000D01*
X64738095Y-41952380D01*
X65500000Y-42571428D02*
X66261904Y-42571428D01*
X67261904Y-42952380D02*
X66690476Y-42952380D01*
X66976190Y-42952380D02*
X66976190Y-41952380D01*
X66880952Y-42095238D01*
X66785714Y-42190476D01*
X66690476Y-42238095D01*
X68214285Y-42952380D02*
X67642857Y-42952380D01*
X67928571Y-42952380D02*
X67928571Y-41952380D01*
X67833333Y-42095238D01*
X67738095Y-42190476D01*
X67642857Y-42238095D01*
X68642857Y-42571428D02*
X69404761Y-42571428D01*
X70404761Y-42952380D02*
X69833333Y-42952380D01*
X70119047Y-42952380D02*
X70119047Y-41952380D01*
X70023809Y-42095238D01*
X69928571Y-42190476D01*
X69833333Y-42238095D01*
X71023809Y-41952380D02*
X71119047Y-41952380D01*
X71214285Y-42000000D01*
X71261904Y-42047619D01*
X71309523Y-42142857D01*
X71357142Y-42333333D01*
X71357142Y-42571428D01*
X71309523Y-42761904D01*
X71261904Y-42857142D01*
X71214285Y-42904761D01*
X71119047Y-42952380D01*
X71023809Y-42952380D01*
X70928571Y-42904761D01*
X70880952Y-42857142D01*
X70833333Y-42761904D01*
X70785714Y-42571428D01*
X70785714Y-42333333D01*
X70833333Y-42142857D01*
X70880952Y-42047619D01*
X70928571Y-42000000D01*
X71023809Y-41952380D01*
D10*
X75500000Y-66500000D02*
X75500000Y-66000000D01*
X75500000Y-72000000D02*
X75500000Y-71500000D01*
X75500000Y-73500000D02*
X75500000Y-73000000D01*
X75500000Y-79000000D02*
X75500000Y-78500000D01*
X75500000Y-80500000D02*
X75500000Y-80000000D01*
X87500000Y-85500000D02*
X75500000Y-85500000D01*
X87500000Y-80000000D02*
X87500000Y-81500000D01*
X87500000Y-78500000D02*
X87500000Y-79000000D01*
X87500000Y-73000000D02*
X87500000Y-74500000D01*
X87500000Y-71500000D02*
X87500000Y-72000000D01*
X87500000Y-66000000D02*
X87500000Y-67500000D01*
X80000000Y-65500000D02*
X83000000Y-65500000D01*
X75500000Y-45500000D02*
X75500000Y-45000000D01*
X75500000Y-51000000D02*
X75500000Y-50500000D01*
X75500000Y-52500000D02*
X75500000Y-52000000D01*
X75500000Y-58000000D02*
X75500000Y-57500000D01*
X75500000Y-59500000D02*
X75500000Y-59000000D01*
X87500000Y-64500000D02*
X75500000Y-64500000D01*
X87500000Y-59000000D02*
X87500000Y-60500000D01*
X87500000Y-57500000D02*
X87500000Y-58000000D01*
X87500000Y-52000000D02*
X87500000Y-53500000D01*
X87500000Y-50500000D02*
X87500000Y-51000000D01*
X87500000Y-45000000D02*
X87500000Y-46500000D01*
X80000000Y-44500000D02*
X83000000Y-44500000D01*
D12*
X55000000Y-79000000D02*
X55000000Y-79500000D01*
X55000000Y-77500000D02*
X55000000Y-78000000D01*
X55000000Y-72000000D02*
X55000000Y-72500000D01*
X55000000Y-70500000D02*
X55000000Y-71000000D01*
X55000000Y-65000000D02*
X55000000Y-65500000D01*
X55000000Y-63500000D02*
X55000000Y-64000000D01*
X55000000Y-58000000D02*
X55000000Y-58500000D01*
X55000000Y-56500000D02*
X55000000Y-57000000D01*
X55000000Y-51000000D02*
X55000000Y-51500000D01*
X55000000Y-49500000D02*
X55000000Y-50000000D01*
X55000000Y-44000000D02*
X55000000Y-44500000D01*
X75000000Y-45500000D02*
X75000000Y-45000000D01*
X75000000Y-80000000D02*
X75000000Y-80500000D01*
X75000000Y-78500000D02*
X75000000Y-79000000D01*
X75000000Y-73000000D02*
X75000000Y-73500000D01*
X75000000Y-71500000D02*
X75000000Y-72000000D01*
X75000000Y-66000000D02*
X75000000Y-66500000D01*
X75000000Y-64500000D02*
X75000000Y-65000000D01*
X75000000Y-59000000D02*
X75000000Y-59500000D01*
X75000000Y-57500000D02*
X75000000Y-58000000D01*
X75000000Y-52000000D02*
X75000000Y-52500000D01*
X75000000Y-50500000D02*
X75000000Y-51000000D01*
D10*
X65000000Y-44000000D02*
X65000000Y-45000000D01*
D12*
X55000000Y-44000000D02*
X75000000Y-44000000D01*
D10*
X65000000Y-84000000D02*
X65000000Y-83000000D01*
D12*
X62000000Y-84000000D02*
X68000000Y-84000000D01*
X80000000Y-41000000D02*
G75*
G02*
X74000000Y-41000000I-3000000J0D01*
G01*
X56000000Y-41000000D02*
G75*
G02*
X50000000Y-41000000I-3000000J0D01*
G01*
X74000000Y-89000000D02*
G75*
G02*
X80000000Y-89000000I3000000J0D01*
G01*
X50000000Y-89000000D02*
G75*
G02*
X56000000Y-89000000I3000000J0D01*
G01*
D10*
%TO.C,J20*%
X104200000Y-122000000D02*
X104200000Y-121900000D01*
X104200000Y-121000000D02*
X104200000Y-121100000D01*
X101800000Y-122000000D02*
X101800000Y-121900000D01*
X101800000Y-121000000D02*
X101800000Y-121100000D01*
X101800000Y-121000000D02*
X104200000Y-121000000D01*
X104200000Y-122000000D02*
X101800000Y-122000000D01*
X54200000Y-122000000D02*
X54200000Y-121900000D01*
X54200000Y-121000000D02*
X54200000Y-121100000D01*
X51800000Y-122000000D02*
X51800000Y-121900000D01*
X51800000Y-121000000D02*
X51800000Y-121100000D01*
X51800000Y-121000000D02*
X54200000Y-121000000D01*
X54200000Y-122000000D02*
X51800000Y-122000000D01*
X104200000Y-72000000D02*
X104200000Y-71900000D01*
X104200000Y-71000000D02*
X104200000Y-71100000D01*
X101800000Y-72000000D02*
X101800000Y-71900000D01*
X101800000Y-71000000D02*
X101800000Y-71100000D01*
X101800000Y-71000000D02*
X104200000Y-71000000D01*
X104200000Y-72000000D02*
X101800000Y-72000000D01*
%TO.C,J24*%
X104200000Y-136000000D02*
X104200000Y-135900000D01*
X104200000Y-135000000D02*
X104200000Y-135100000D01*
X101800000Y-136000000D02*
X101800000Y-135900000D01*
X101800000Y-135000000D02*
X101800000Y-135100000D01*
X101800000Y-135000000D02*
X104200000Y-135000000D01*
X104200000Y-136000000D02*
X101800000Y-136000000D01*
X54200000Y-136000000D02*
X54200000Y-135900000D01*
X54200000Y-135000000D02*
X54200000Y-135100000D01*
X51800000Y-136000000D02*
X51800000Y-135900000D01*
X51800000Y-135000000D02*
X51800000Y-135100000D01*
X51800000Y-135000000D02*
X54200000Y-135000000D01*
X54200000Y-136000000D02*
X51800000Y-136000000D01*
X104200000Y-86000000D02*
X104200000Y-85900000D01*
X104200000Y-85000000D02*
X104200000Y-85100000D01*
X101800000Y-86000000D02*
X101800000Y-85900000D01*
X101800000Y-85000000D02*
X101800000Y-85100000D01*
X101800000Y-85000000D02*
X104200000Y-85000000D01*
X104200000Y-86000000D02*
X101800000Y-86000000D01*
%TO.C,J21*%
X95200000Y-129000000D02*
X95200000Y-128900000D01*
X95200000Y-128000000D02*
X95200000Y-128100000D01*
X92800000Y-129000000D02*
X92800000Y-128900000D01*
X92800000Y-128000000D02*
X92800000Y-128100000D01*
X92800000Y-128000000D02*
X95200000Y-128000000D01*
X95200000Y-129000000D02*
X92800000Y-129000000D01*
X45200000Y-129000000D02*
X45200000Y-128900000D01*
X45200000Y-128000000D02*
X45200000Y-128100000D01*
X42800000Y-129000000D02*
X42800000Y-128900000D01*
X42800000Y-128000000D02*
X42800000Y-128100000D01*
X42800000Y-128000000D02*
X45200000Y-128000000D01*
X45200000Y-129000000D02*
X42800000Y-129000000D01*
X95200000Y-79000000D02*
X95200000Y-78900000D01*
X95200000Y-78000000D02*
X95200000Y-78100000D01*
X92800000Y-79000000D02*
X92800000Y-78900000D01*
X92800000Y-78000000D02*
X92800000Y-78100000D01*
X92800000Y-78000000D02*
X95200000Y-78000000D01*
X95200000Y-79000000D02*
X92800000Y-79000000D01*
%TO.C,Q6*%
X127300000Y-117500000D02*
X127300000Y-118000000D01*
X127300000Y-116400000D02*
X127300000Y-116700000D01*
X127300000Y-121600000D02*
X127300000Y-121300000D01*
X121700000Y-116400000D02*
X121700000Y-116700000D01*
X121700000Y-118000000D02*
X121700000Y-117500000D01*
X121700000Y-119200000D02*
X121700000Y-118800000D01*
X121700000Y-120500000D02*
X121700000Y-120000000D01*
X121700000Y-121600000D02*
X121700000Y-121300000D01*
X127300000Y-121600000D02*
X121700000Y-121600000D01*
X121700000Y-116400000D02*
X127300000Y-116400000D01*
X77300000Y-117500000D02*
X77300000Y-118000000D01*
X77300000Y-116400000D02*
X77300000Y-116700000D01*
X77300000Y-121600000D02*
X77300000Y-121300000D01*
X71700000Y-116400000D02*
X71700000Y-116700000D01*
X71700000Y-118000000D02*
X71700000Y-117500000D01*
X71700000Y-119200000D02*
X71700000Y-118800000D01*
X71700000Y-120500000D02*
X71700000Y-120000000D01*
X71700000Y-121600000D02*
X71700000Y-121300000D01*
X77300000Y-121600000D02*
X71700000Y-121600000D01*
X71700000Y-116400000D02*
X77300000Y-116400000D01*
X127300000Y-67500000D02*
X127300000Y-68000000D01*
X127300000Y-66400000D02*
X127300000Y-66700000D01*
X127300000Y-71600000D02*
X127300000Y-71300000D01*
X121700000Y-66400000D02*
X121700000Y-66700000D01*
X121700000Y-68000000D02*
X121700000Y-67500000D01*
X121700000Y-69200000D02*
X121700000Y-68800000D01*
X121700000Y-70500000D02*
X121700000Y-70000000D01*
X121700000Y-71600000D02*
X121700000Y-71300000D01*
X127300000Y-71600000D02*
X121700000Y-71600000D01*
X121700000Y-66400000D02*
X127300000Y-66400000D01*
%TO.C,J13*%
X95200000Y-101000000D02*
X95200000Y-100900000D01*
X95200000Y-100000000D02*
X95200000Y-100100000D01*
X92800000Y-101000000D02*
X92800000Y-100900000D01*
X92800000Y-100000000D02*
X92800000Y-100100000D01*
X92800000Y-100000000D02*
X95200000Y-100000000D01*
X95200000Y-101000000D02*
X92800000Y-101000000D01*
X45200000Y-101000000D02*
X45200000Y-100900000D01*
X45200000Y-100000000D02*
X45200000Y-100100000D01*
X42800000Y-101000000D02*
X42800000Y-100900000D01*
X42800000Y-100000000D02*
X42800000Y-100100000D01*
X42800000Y-100000000D02*
X45200000Y-100000000D01*
X45200000Y-101000000D02*
X42800000Y-101000000D01*
X95200000Y-51000000D02*
X95200000Y-50900000D01*
X95200000Y-50000000D02*
X95200000Y-50100000D01*
X92800000Y-51000000D02*
X92800000Y-50900000D01*
X92800000Y-50000000D02*
X92800000Y-50100000D01*
X92800000Y-50000000D02*
X95200000Y-50000000D01*
X95200000Y-51000000D02*
X92800000Y-51000000D01*
%TO.C,J19*%
X95200000Y-122000000D02*
X95200000Y-121900000D01*
X95200000Y-121000000D02*
X95200000Y-121100000D01*
X92800000Y-122000000D02*
X92800000Y-121900000D01*
X92800000Y-121000000D02*
X92800000Y-121100000D01*
X92800000Y-121000000D02*
X95200000Y-121000000D01*
X95200000Y-122000000D02*
X92800000Y-122000000D01*
X45200000Y-122000000D02*
X45200000Y-121900000D01*
X45200000Y-121000000D02*
X45200000Y-121100000D01*
X42800000Y-122000000D02*
X42800000Y-121900000D01*
X42800000Y-121000000D02*
X42800000Y-121100000D01*
X42800000Y-121000000D02*
X45200000Y-121000000D01*
X45200000Y-122000000D02*
X42800000Y-122000000D01*
X95200000Y-72000000D02*
X95200000Y-71900000D01*
X95200000Y-71000000D02*
X95200000Y-71100000D01*
X92800000Y-72000000D02*
X92800000Y-71900000D01*
X92800000Y-71000000D02*
X92800000Y-71100000D01*
X92800000Y-71000000D02*
X95200000Y-71000000D01*
X95200000Y-72000000D02*
X92800000Y-72000000D01*
%TO.C,J9*%
X134800000Y-101000000D02*
X134800000Y-101100000D01*
X134800000Y-102000000D02*
X134800000Y-101900000D01*
X137200000Y-101000000D02*
X137200000Y-101100000D01*
X137200000Y-102000000D02*
X137200000Y-101900000D01*
X137200000Y-102000000D02*
X134800000Y-102000000D01*
X134800000Y-101000000D02*
X137200000Y-101000000D01*
X84800000Y-101000000D02*
X84800000Y-101100000D01*
X84800000Y-102000000D02*
X84800000Y-101900000D01*
X87200000Y-101000000D02*
X87200000Y-101100000D01*
X87200000Y-102000000D02*
X87200000Y-101900000D01*
X87200000Y-102000000D02*
X84800000Y-102000000D01*
X84800000Y-101000000D02*
X87200000Y-101000000D01*
X134800000Y-51000000D02*
X134800000Y-51100000D01*
X134800000Y-52000000D02*
X134800000Y-51900000D01*
X137200000Y-51000000D02*
X137200000Y-51100000D01*
X137200000Y-52000000D02*
X137200000Y-51900000D01*
X137200000Y-52000000D02*
X134800000Y-52000000D01*
X134800000Y-51000000D02*
X137200000Y-51000000D01*
%TO.C,J7*%
X134800000Y-108000000D02*
X134800000Y-108100000D01*
X134800000Y-109000000D02*
X134800000Y-108900000D01*
X137200000Y-108000000D02*
X137200000Y-108100000D01*
X137200000Y-109000000D02*
X137200000Y-108900000D01*
X137200000Y-109000000D02*
X134800000Y-109000000D01*
X134800000Y-108000000D02*
X137200000Y-108000000D01*
X84800000Y-108000000D02*
X84800000Y-108100000D01*
X84800000Y-109000000D02*
X84800000Y-108900000D01*
X87200000Y-108000000D02*
X87200000Y-108100000D01*
X87200000Y-109000000D02*
X87200000Y-108900000D01*
X87200000Y-109000000D02*
X84800000Y-109000000D01*
X84800000Y-108000000D02*
X87200000Y-108000000D01*
X134800000Y-58000000D02*
X134800000Y-58100000D01*
X134800000Y-59000000D02*
X134800000Y-58900000D01*
X137200000Y-58000000D02*
X137200000Y-58100000D01*
X137200000Y-59000000D02*
X137200000Y-58900000D01*
X137200000Y-59000000D02*
X134800000Y-59000000D01*
X134800000Y-58000000D02*
X137200000Y-58000000D01*
%TO.C,J10*%
X125800000Y-101000000D02*
X125800000Y-101100000D01*
X125800000Y-102000000D02*
X125800000Y-101900000D01*
X128200000Y-101000000D02*
X128200000Y-101100000D01*
X128200000Y-102000000D02*
X128200000Y-101900000D01*
X128200000Y-102000000D02*
X125800000Y-102000000D01*
X125800000Y-101000000D02*
X128200000Y-101000000D01*
X75800000Y-101000000D02*
X75800000Y-101100000D01*
X75800000Y-102000000D02*
X75800000Y-101900000D01*
X78200000Y-101000000D02*
X78200000Y-101100000D01*
X78200000Y-102000000D02*
X78200000Y-101900000D01*
X78200000Y-102000000D02*
X75800000Y-102000000D01*
X75800000Y-101000000D02*
X78200000Y-101000000D01*
X125800000Y-51000000D02*
X125800000Y-51100000D01*
X125800000Y-52000000D02*
X125800000Y-51900000D01*
X128200000Y-51000000D02*
X128200000Y-51100000D01*
X128200000Y-52000000D02*
X128200000Y-51900000D01*
X128200000Y-52000000D02*
X125800000Y-52000000D01*
X125800000Y-51000000D02*
X128200000Y-51000000D01*
%TO.C,J6*%
X125800000Y-115000000D02*
X125800000Y-115100000D01*
X125800000Y-116000000D02*
X125800000Y-115900000D01*
X128200000Y-115000000D02*
X128200000Y-115100000D01*
X128200000Y-116000000D02*
X128200000Y-115900000D01*
X128200000Y-116000000D02*
X125800000Y-116000000D01*
X125800000Y-115000000D02*
X128200000Y-115000000D01*
X75800000Y-115000000D02*
X75800000Y-115100000D01*
X75800000Y-116000000D02*
X75800000Y-115900000D01*
X78200000Y-115000000D02*
X78200000Y-115100000D01*
X78200000Y-116000000D02*
X78200000Y-115900000D01*
X78200000Y-116000000D02*
X75800000Y-116000000D01*
X75800000Y-115000000D02*
X78200000Y-115000000D01*
X125800000Y-65000000D02*
X125800000Y-65100000D01*
X125800000Y-66000000D02*
X125800000Y-65900000D01*
X128200000Y-65000000D02*
X128200000Y-65100000D01*
X128200000Y-66000000D02*
X128200000Y-65900000D01*
X128200000Y-66000000D02*
X125800000Y-66000000D01*
X125800000Y-65000000D02*
X128200000Y-65000000D01*
%TO.C,Q4*%
X127300000Y-124500000D02*
X127300000Y-125000000D01*
X127300000Y-123400000D02*
X127300000Y-123700000D01*
X127300000Y-128600000D02*
X127300000Y-128300000D01*
X121700000Y-123400000D02*
X121700000Y-123700000D01*
X121700000Y-125000000D02*
X121700000Y-124500000D01*
X121700000Y-126200000D02*
X121700000Y-125800000D01*
X121700000Y-127500000D02*
X121700000Y-127000000D01*
X121700000Y-128600000D02*
X121700000Y-128300000D01*
X127300000Y-128600000D02*
X121700000Y-128600000D01*
X121700000Y-123400000D02*
X127300000Y-123400000D01*
X77300000Y-124500000D02*
X77300000Y-125000000D01*
X77300000Y-123400000D02*
X77300000Y-123700000D01*
X77300000Y-128600000D02*
X77300000Y-128300000D01*
X71700000Y-123400000D02*
X71700000Y-123700000D01*
X71700000Y-125000000D02*
X71700000Y-124500000D01*
X71700000Y-126200000D02*
X71700000Y-125800000D01*
X71700000Y-127500000D02*
X71700000Y-127000000D01*
X71700000Y-128600000D02*
X71700000Y-128300000D01*
X77300000Y-128600000D02*
X71700000Y-128600000D01*
X71700000Y-123400000D02*
X77300000Y-123400000D01*
X127300000Y-74500000D02*
X127300000Y-75000000D01*
X127300000Y-73400000D02*
X127300000Y-73700000D01*
X127300000Y-78600000D02*
X127300000Y-78300000D01*
X121700000Y-73400000D02*
X121700000Y-73700000D01*
X121700000Y-75000000D02*
X121700000Y-74500000D01*
X121700000Y-76200000D02*
X121700000Y-75800000D01*
X121700000Y-77500000D02*
X121700000Y-77000000D01*
X121700000Y-78600000D02*
X121700000Y-78300000D01*
X127300000Y-78600000D02*
X121700000Y-78600000D01*
X121700000Y-73400000D02*
X127300000Y-73400000D01*
%TO.C,Q7*%
X136300000Y-110500000D02*
X136300000Y-111000000D01*
X136300000Y-109400000D02*
X136300000Y-109700000D01*
X136300000Y-114600000D02*
X136300000Y-114300000D01*
X130700000Y-109400000D02*
X130700000Y-109700000D01*
X130700000Y-111000000D02*
X130700000Y-110500000D01*
X130700000Y-112200000D02*
X130700000Y-111800000D01*
X130700000Y-113500000D02*
X130700000Y-113000000D01*
X130700000Y-114600000D02*
X130700000Y-114300000D01*
X136300000Y-114600000D02*
X130700000Y-114600000D01*
X130700000Y-109400000D02*
X136300000Y-109400000D01*
X86300000Y-110500000D02*
X86300000Y-111000000D01*
X86300000Y-109400000D02*
X86300000Y-109700000D01*
X86300000Y-114600000D02*
X86300000Y-114300000D01*
X80700000Y-109400000D02*
X80700000Y-109700000D01*
X80700000Y-111000000D02*
X80700000Y-110500000D01*
X80700000Y-112200000D02*
X80700000Y-111800000D01*
X80700000Y-113500000D02*
X80700000Y-113000000D01*
X80700000Y-114600000D02*
X80700000Y-114300000D01*
X86300000Y-114600000D02*
X80700000Y-114600000D01*
X80700000Y-109400000D02*
X86300000Y-109400000D01*
X136300000Y-60500000D02*
X136300000Y-61000000D01*
X136300000Y-59400000D02*
X136300000Y-59700000D01*
X136300000Y-64600000D02*
X136300000Y-64300000D01*
X130700000Y-59400000D02*
X130700000Y-59700000D01*
X130700000Y-61000000D02*
X130700000Y-60500000D01*
X130700000Y-62200000D02*
X130700000Y-61800000D01*
X130700000Y-63500000D02*
X130700000Y-63000000D01*
X130700000Y-64600000D02*
X130700000Y-64300000D01*
X136300000Y-64600000D02*
X130700000Y-64600000D01*
X130700000Y-59400000D02*
X136300000Y-59400000D01*
%TO.C,Q8*%
X127300000Y-110500000D02*
X127300000Y-111000000D01*
X127300000Y-109400000D02*
X127300000Y-109700000D01*
X127300000Y-114600000D02*
X127300000Y-114300000D01*
X121700000Y-109400000D02*
X121700000Y-109700000D01*
X121700000Y-111000000D02*
X121700000Y-110500000D01*
X121700000Y-112200000D02*
X121700000Y-111800000D01*
X121700000Y-113500000D02*
X121700000Y-113000000D01*
X121700000Y-114600000D02*
X121700000Y-114300000D01*
X127300000Y-114600000D02*
X121700000Y-114600000D01*
X121700000Y-109400000D02*
X127300000Y-109400000D01*
X77300000Y-110500000D02*
X77300000Y-111000000D01*
X77300000Y-109400000D02*
X77300000Y-109700000D01*
X77300000Y-114600000D02*
X77300000Y-114300000D01*
X71700000Y-109400000D02*
X71700000Y-109700000D01*
X71700000Y-111000000D02*
X71700000Y-110500000D01*
X71700000Y-112200000D02*
X71700000Y-111800000D01*
X71700000Y-113500000D02*
X71700000Y-113000000D01*
X71700000Y-114600000D02*
X71700000Y-114300000D01*
X77300000Y-114600000D02*
X71700000Y-114600000D01*
X71700000Y-109400000D02*
X77300000Y-109400000D01*
X127300000Y-60500000D02*
X127300000Y-61000000D01*
X127300000Y-59400000D02*
X127300000Y-59700000D01*
X127300000Y-64600000D02*
X127300000Y-64300000D01*
X121700000Y-59400000D02*
X121700000Y-59700000D01*
X121700000Y-61000000D02*
X121700000Y-60500000D01*
X121700000Y-62200000D02*
X121700000Y-61800000D01*
X121700000Y-63500000D02*
X121700000Y-63000000D01*
X121700000Y-64600000D02*
X121700000Y-64300000D01*
X127300000Y-64600000D02*
X121700000Y-64600000D01*
X121700000Y-59400000D02*
X127300000Y-59400000D01*
%TO.C,J8*%
X125800000Y-108000000D02*
X125800000Y-108100000D01*
X125800000Y-109000000D02*
X125800000Y-108900000D01*
X128200000Y-108000000D02*
X128200000Y-108100000D01*
X128200000Y-109000000D02*
X128200000Y-108900000D01*
X128200000Y-109000000D02*
X125800000Y-109000000D01*
X125800000Y-108000000D02*
X128200000Y-108000000D01*
X75800000Y-108000000D02*
X75800000Y-108100000D01*
X75800000Y-109000000D02*
X75800000Y-108900000D01*
X78200000Y-108000000D02*
X78200000Y-108100000D01*
X78200000Y-109000000D02*
X78200000Y-108900000D01*
X78200000Y-109000000D02*
X75800000Y-109000000D01*
X75800000Y-108000000D02*
X78200000Y-108000000D01*
X125800000Y-58000000D02*
X125800000Y-58100000D01*
X125800000Y-59000000D02*
X125800000Y-58900000D01*
X128200000Y-58000000D02*
X128200000Y-58100000D01*
X128200000Y-59000000D02*
X128200000Y-58900000D01*
X128200000Y-59000000D02*
X125800000Y-59000000D01*
X125800000Y-58000000D02*
X128200000Y-58000000D01*
%TO.C,Q24*%
X102700000Y-133500000D02*
X102700000Y-133000000D01*
X102700000Y-134600000D02*
X102700000Y-134300000D01*
X102700000Y-129400000D02*
X102700000Y-129700000D01*
X108300000Y-134600000D02*
X108300000Y-134300000D01*
X108300000Y-133000000D02*
X108300000Y-133500000D01*
X108300000Y-131800000D02*
X108300000Y-132200000D01*
X108300000Y-130500000D02*
X108300000Y-131000000D01*
X108300000Y-129400000D02*
X108300000Y-129700000D01*
X102700000Y-129400000D02*
X108300000Y-129400000D01*
X108300000Y-134600000D02*
X102700000Y-134600000D01*
X52700000Y-133500000D02*
X52700000Y-133000000D01*
X52700000Y-134600000D02*
X52700000Y-134300000D01*
X52700000Y-129400000D02*
X52700000Y-129700000D01*
X58300000Y-134600000D02*
X58300000Y-134300000D01*
X58300000Y-133000000D02*
X58300000Y-133500000D01*
X58300000Y-131800000D02*
X58300000Y-132200000D01*
X58300000Y-130500000D02*
X58300000Y-131000000D01*
X58300000Y-129400000D02*
X58300000Y-129700000D01*
X52700000Y-129400000D02*
X58300000Y-129400000D01*
X58300000Y-134600000D02*
X52700000Y-134600000D01*
X102700000Y-83500000D02*
X102700000Y-83000000D01*
X102700000Y-84600000D02*
X102700000Y-84300000D01*
X102700000Y-79400000D02*
X102700000Y-79700000D01*
X108300000Y-84600000D02*
X108300000Y-84300000D01*
X108300000Y-83000000D02*
X108300000Y-83500000D01*
X108300000Y-81800000D02*
X108300000Y-82200000D01*
X108300000Y-80500000D02*
X108300000Y-81000000D01*
X108300000Y-79400000D02*
X108300000Y-79700000D01*
X102700000Y-79400000D02*
X108300000Y-79400000D01*
X108300000Y-84600000D02*
X102700000Y-84600000D01*
%TO.C,Q23*%
X93700000Y-133500000D02*
X93700000Y-133000000D01*
X93700000Y-134600000D02*
X93700000Y-134300000D01*
X93700000Y-129400000D02*
X93700000Y-129700000D01*
X99300000Y-134600000D02*
X99300000Y-134300000D01*
X99300000Y-133000000D02*
X99300000Y-133500000D01*
X99300000Y-131800000D02*
X99300000Y-132200000D01*
X99300000Y-130500000D02*
X99300000Y-131000000D01*
X99300000Y-129400000D02*
X99300000Y-129700000D01*
X93700000Y-129400000D02*
X99300000Y-129400000D01*
X99300000Y-134600000D02*
X93700000Y-134600000D01*
X43700000Y-133500000D02*
X43700000Y-133000000D01*
X43700000Y-134600000D02*
X43700000Y-134300000D01*
X43700000Y-129400000D02*
X43700000Y-129700000D01*
X49300000Y-134600000D02*
X49300000Y-134300000D01*
X49300000Y-133000000D02*
X49300000Y-133500000D01*
X49300000Y-131800000D02*
X49300000Y-132200000D01*
X49300000Y-130500000D02*
X49300000Y-131000000D01*
X49300000Y-129400000D02*
X49300000Y-129700000D01*
X43700000Y-129400000D02*
X49300000Y-129400000D01*
X49300000Y-134600000D02*
X43700000Y-134600000D01*
X93700000Y-83500000D02*
X93700000Y-83000000D01*
X93700000Y-84600000D02*
X93700000Y-84300000D01*
X93700000Y-79400000D02*
X93700000Y-79700000D01*
X99300000Y-84600000D02*
X99300000Y-84300000D01*
X99300000Y-83000000D02*
X99300000Y-83500000D01*
X99300000Y-81800000D02*
X99300000Y-82200000D01*
X99300000Y-80500000D02*
X99300000Y-81000000D01*
X99300000Y-79400000D02*
X99300000Y-79700000D01*
X93700000Y-79400000D02*
X99300000Y-79400000D01*
X99300000Y-84600000D02*
X93700000Y-84600000D01*
%TO.C,J4*%
X125800000Y-122000000D02*
X125800000Y-122100000D01*
X125800000Y-123000000D02*
X125800000Y-122900000D01*
X128200000Y-122000000D02*
X128200000Y-122100000D01*
X128200000Y-123000000D02*
X128200000Y-122900000D01*
X128200000Y-123000000D02*
X125800000Y-123000000D01*
X125800000Y-122000000D02*
X128200000Y-122000000D01*
X75800000Y-122000000D02*
X75800000Y-122100000D01*
X75800000Y-123000000D02*
X75800000Y-122900000D01*
X78200000Y-122000000D02*
X78200000Y-122100000D01*
X78200000Y-123000000D02*
X78200000Y-122900000D01*
X78200000Y-123000000D02*
X75800000Y-123000000D01*
X75800000Y-122000000D02*
X78200000Y-122000000D01*
X125800000Y-72000000D02*
X125800000Y-72100000D01*
X125800000Y-73000000D02*
X125800000Y-72900000D01*
X128200000Y-72000000D02*
X128200000Y-72100000D01*
X128200000Y-73000000D02*
X128200000Y-72900000D01*
X128200000Y-73000000D02*
X125800000Y-73000000D01*
X125800000Y-72000000D02*
X128200000Y-72000000D01*
%TO.C,Q9*%
X136300000Y-103500000D02*
X136300000Y-104000000D01*
X136300000Y-102400000D02*
X136300000Y-102700000D01*
X136300000Y-107600000D02*
X136300000Y-107300000D01*
X130700000Y-102400000D02*
X130700000Y-102700000D01*
X130700000Y-104000000D02*
X130700000Y-103500000D01*
X130700000Y-105200000D02*
X130700000Y-104800000D01*
X130700000Y-106500000D02*
X130700000Y-106000000D01*
X130700000Y-107600000D02*
X130700000Y-107300000D01*
X136300000Y-107600000D02*
X130700000Y-107600000D01*
X130700000Y-102400000D02*
X136300000Y-102400000D01*
X86300000Y-103500000D02*
X86300000Y-104000000D01*
X86300000Y-102400000D02*
X86300000Y-102700000D01*
X86300000Y-107600000D02*
X86300000Y-107300000D01*
X80700000Y-102400000D02*
X80700000Y-102700000D01*
X80700000Y-104000000D02*
X80700000Y-103500000D01*
X80700000Y-105200000D02*
X80700000Y-104800000D01*
X80700000Y-106500000D02*
X80700000Y-106000000D01*
X80700000Y-107600000D02*
X80700000Y-107300000D01*
X86300000Y-107600000D02*
X80700000Y-107600000D01*
X80700000Y-102400000D02*
X86300000Y-102400000D01*
X136300000Y-53500000D02*
X136300000Y-54000000D01*
X136300000Y-52400000D02*
X136300000Y-52700000D01*
X136300000Y-57600000D02*
X136300000Y-57300000D01*
X130700000Y-52400000D02*
X130700000Y-52700000D01*
X130700000Y-54000000D02*
X130700000Y-53500000D01*
X130700000Y-55200000D02*
X130700000Y-54800000D01*
X130700000Y-56500000D02*
X130700000Y-56000000D01*
X130700000Y-57600000D02*
X130700000Y-57300000D01*
X136300000Y-57600000D02*
X130700000Y-57600000D01*
X130700000Y-52400000D02*
X136300000Y-52400000D01*
%TO.C,J18*%
X104200000Y-115000000D02*
X104200000Y-114900000D01*
X104200000Y-114000000D02*
X104200000Y-114100000D01*
X101800000Y-115000000D02*
X101800000Y-114900000D01*
X101800000Y-114000000D02*
X101800000Y-114100000D01*
X101800000Y-114000000D02*
X104200000Y-114000000D01*
X104200000Y-115000000D02*
X101800000Y-115000000D01*
X54200000Y-115000000D02*
X54200000Y-114900000D01*
X54200000Y-114000000D02*
X54200000Y-114100000D01*
X51800000Y-115000000D02*
X51800000Y-114900000D01*
X51800000Y-114000000D02*
X51800000Y-114100000D01*
X51800000Y-114000000D02*
X54200000Y-114000000D01*
X54200000Y-115000000D02*
X51800000Y-115000000D01*
X104200000Y-65000000D02*
X104200000Y-64900000D01*
X104200000Y-64000000D02*
X104200000Y-64100000D01*
X101800000Y-65000000D02*
X101800000Y-64900000D01*
X101800000Y-64000000D02*
X101800000Y-64100000D01*
X101800000Y-64000000D02*
X104200000Y-64000000D01*
X104200000Y-65000000D02*
X101800000Y-65000000D01*
%TO.C,J1*%
X134800000Y-129000000D02*
X134800000Y-129100000D01*
X134800000Y-130000000D02*
X134800000Y-129900000D01*
X137200000Y-129000000D02*
X137200000Y-129100000D01*
X137200000Y-130000000D02*
X137200000Y-129900000D01*
X137200000Y-130000000D02*
X134800000Y-130000000D01*
X134800000Y-129000000D02*
X137200000Y-129000000D01*
X84800000Y-129000000D02*
X84800000Y-129100000D01*
X84800000Y-130000000D02*
X84800000Y-129900000D01*
X87200000Y-129000000D02*
X87200000Y-129100000D01*
X87200000Y-130000000D02*
X87200000Y-129900000D01*
X87200000Y-130000000D02*
X84800000Y-130000000D01*
X84800000Y-129000000D02*
X87200000Y-129000000D01*
X134800000Y-79000000D02*
X134800000Y-79100000D01*
X134800000Y-80000000D02*
X134800000Y-79900000D01*
X137200000Y-79000000D02*
X137200000Y-79100000D01*
X137200000Y-80000000D02*
X137200000Y-79900000D01*
X137200000Y-80000000D02*
X134800000Y-80000000D01*
X134800000Y-79000000D02*
X137200000Y-79000000D01*
%TO.C,J14*%
X104200000Y-101000000D02*
X104200000Y-100900000D01*
X104200000Y-100000000D02*
X104200000Y-100100000D01*
X101800000Y-101000000D02*
X101800000Y-100900000D01*
X101800000Y-100000000D02*
X101800000Y-100100000D01*
X101800000Y-100000000D02*
X104200000Y-100000000D01*
X104200000Y-101000000D02*
X101800000Y-101000000D01*
X54200000Y-101000000D02*
X54200000Y-100900000D01*
X54200000Y-100000000D02*
X54200000Y-100100000D01*
X51800000Y-101000000D02*
X51800000Y-100900000D01*
X51800000Y-100000000D02*
X51800000Y-100100000D01*
X51800000Y-100000000D02*
X54200000Y-100000000D01*
X54200000Y-101000000D02*
X51800000Y-101000000D01*
X104200000Y-51000000D02*
X104200000Y-50900000D01*
X104200000Y-50000000D02*
X104200000Y-50100000D01*
X101800000Y-51000000D02*
X101800000Y-50900000D01*
X101800000Y-50000000D02*
X101800000Y-50100000D01*
X101800000Y-50000000D02*
X104200000Y-50000000D01*
X104200000Y-51000000D02*
X101800000Y-51000000D01*
%TO.C,J23*%
X95200000Y-136000000D02*
X95200000Y-135900000D01*
X95200000Y-135000000D02*
X95200000Y-135100000D01*
X92800000Y-136000000D02*
X92800000Y-135900000D01*
X92800000Y-135000000D02*
X92800000Y-135100000D01*
X92800000Y-135000000D02*
X95200000Y-135000000D01*
X95200000Y-136000000D02*
X92800000Y-136000000D01*
X45200000Y-136000000D02*
X45200000Y-135900000D01*
X45200000Y-135000000D02*
X45200000Y-135100000D01*
X42800000Y-136000000D02*
X42800000Y-135900000D01*
X42800000Y-135000000D02*
X42800000Y-135100000D01*
X42800000Y-135000000D02*
X45200000Y-135000000D01*
X45200000Y-136000000D02*
X42800000Y-136000000D01*
X95200000Y-86000000D02*
X95200000Y-85900000D01*
X95200000Y-85000000D02*
X95200000Y-85100000D01*
X92800000Y-86000000D02*
X92800000Y-85900000D01*
X92800000Y-85000000D02*
X92800000Y-85100000D01*
X92800000Y-85000000D02*
X95200000Y-85000000D01*
X95200000Y-86000000D02*
X92800000Y-86000000D01*
%TO.C,JT3*%
X116200000Y-134000000D02*
X113800000Y-134000000D01*
X113800000Y-133000000D02*
X116200000Y-133000000D01*
X113800000Y-133000000D02*
X113800000Y-133100000D01*
X113800000Y-134000000D02*
X113800000Y-133900000D01*
X116200000Y-133000000D02*
X116200000Y-133100000D01*
X116200000Y-134000000D02*
X116200000Y-133900000D01*
X66200000Y-134000000D02*
X63800000Y-134000000D01*
X63800000Y-133000000D02*
X66200000Y-133000000D01*
X63800000Y-133000000D02*
X63800000Y-133100000D01*
X63800000Y-134000000D02*
X63800000Y-133900000D01*
X66200000Y-133000000D02*
X66200000Y-133100000D01*
X66200000Y-134000000D02*
X66200000Y-133900000D01*
X116200000Y-84000000D02*
X113800000Y-84000000D01*
X113800000Y-83000000D02*
X116200000Y-83000000D01*
X113800000Y-83000000D02*
X113800000Y-83100000D01*
X113800000Y-84000000D02*
X113800000Y-83900000D01*
X116200000Y-83000000D02*
X116200000Y-83100000D01*
X116200000Y-84000000D02*
X116200000Y-83900000D01*
%TO.C,Q20*%
X102700000Y-119500000D02*
X102700000Y-119000000D01*
X102700000Y-120600000D02*
X102700000Y-120300000D01*
X102700000Y-115400000D02*
X102700000Y-115700000D01*
X108300000Y-120600000D02*
X108300000Y-120300000D01*
X108300000Y-119000000D02*
X108300000Y-119500000D01*
X108300000Y-117800000D02*
X108300000Y-118200000D01*
X108300000Y-116500000D02*
X108300000Y-117000000D01*
X108300000Y-115400000D02*
X108300000Y-115700000D01*
X102700000Y-115400000D02*
X108300000Y-115400000D01*
X108300000Y-120600000D02*
X102700000Y-120600000D01*
X52700000Y-119500000D02*
X52700000Y-119000000D01*
X52700000Y-120600000D02*
X52700000Y-120300000D01*
X52700000Y-115400000D02*
X52700000Y-115700000D01*
X58300000Y-120600000D02*
X58300000Y-120300000D01*
X58300000Y-119000000D02*
X58300000Y-119500000D01*
X58300000Y-117800000D02*
X58300000Y-118200000D01*
X58300000Y-116500000D02*
X58300000Y-117000000D01*
X58300000Y-115400000D02*
X58300000Y-115700000D01*
X52700000Y-115400000D02*
X58300000Y-115400000D01*
X58300000Y-120600000D02*
X52700000Y-120600000D01*
X102700000Y-69500000D02*
X102700000Y-69000000D01*
X102700000Y-70600000D02*
X102700000Y-70300000D01*
X102700000Y-65400000D02*
X102700000Y-65700000D01*
X108300000Y-70600000D02*
X108300000Y-70300000D01*
X108300000Y-69000000D02*
X108300000Y-69500000D01*
X108300000Y-67800000D02*
X108300000Y-68200000D01*
X108300000Y-66500000D02*
X108300000Y-67000000D01*
X108300000Y-65400000D02*
X108300000Y-65700000D01*
X102700000Y-65400000D02*
X108300000Y-65400000D01*
X108300000Y-70600000D02*
X102700000Y-70600000D01*
%TO.C,Q21*%
X93700000Y-126500000D02*
X93700000Y-126000000D01*
X93700000Y-127600000D02*
X93700000Y-127300000D01*
X93700000Y-122400000D02*
X93700000Y-122700000D01*
X99300000Y-127600000D02*
X99300000Y-127300000D01*
X99300000Y-126000000D02*
X99300000Y-126500000D01*
X99300000Y-124800000D02*
X99300000Y-125200000D01*
X99300000Y-123500000D02*
X99300000Y-124000000D01*
X99300000Y-122400000D02*
X99300000Y-122700000D01*
X93700000Y-122400000D02*
X99300000Y-122400000D01*
X99300000Y-127600000D02*
X93700000Y-127600000D01*
X43700000Y-126500000D02*
X43700000Y-126000000D01*
X43700000Y-127600000D02*
X43700000Y-127300000D01*
X43700000Y-122400000D02*
X43700000Y-122700000D01*
X49300000Y-127600000D02*
X49300000Y-127300000D01*
X49300000Y-126000000D02*
X49300000Y-126500000D01*
X49300000Y-124800000D02*
X49300000Y-125200000D01*
X49300000Y-123500000D02*
X49300000Y-124000000D01*
X49300000Y-122400000D02*
X49300000Y-122700000D01*
X43700000Y-122400000D02*
X49300000Y-122400000D01*
X49300000Y-127600000D02*
X43700000Y-127600000D01*
X93700000Y-76500000D02*
X93700000Y-76000000D01*
X93700000Y-77600000D02*
X93700000Y-77300000D01*
X93700000Y-72400000D02*
X93700000Y-72700000D01*
X99300000Y-77600000D02*
X99300000Y-77300000D01*
X99300000Y-76000000D02*
X99300000Y-76500000D01*
X99300000Y-74800000D02*
X99300000Y-75200000D01*
X99300000Y-73500000D02*
X99300000Y-74000000D01*
X99300000Y-72400000D02*
X99300000Y-72700000D01*
X93700000Y-72400000D02*
X99300000Y-72400000D01*
X99300000Y-77600000D02*
X93700000Y-77600000D01*
%TO.C,Q22*%
X102700000Y-126500000D02*
X102700000Y-126000000D01*
X102700000Y-127600000D02*
X102700000Y-127300000D01*
X102700000Y-122400000D02*
X102700000Y-122700000D01*
X108300000Y-127600000D02*
X108300000Y-127300000D01*
X108300000Y-126000000D02*
X108300000Y-126500000D01*
X108300000Y-124800000D02*
X108300000Y-125200000D01*
X108300000Y-123500000D02*
X108300000Y-124000000D01*
X108300000Y-122400000D02*
X108300000Y-122700000D01*
X102700000Y-122400000D02*
X108300000Y-122400000D01*
X108300000Y-127600000D02*
X102700000Y-127600000D01*
X52700000Y-126500000D02*
X52700000Y-126000000D01*
X52700000Y-127600000D02*
X52700000Y-127300000D01*
X52700000Y-122400000D02*
X52700000Y-122700000D01*
X58300000Y-127600000D02*
X58300000Y-127300000D01*
X58300000Y-126000000D02*
X58300000Y-126500000D01*
X58300000Y-124800000D02*
X58300000Y-125200000D01*
X58300000Y-123500000D02*
X58300000Y-124000000D01*
X58300000Y-122400000D02*
X58300000Y-122700000D01*
X52700000Y-122400000D02*
X58300000Y-122400000D01*
X58300000Y-127600000D02*
X52700000Y-127600000D01*
X102700000Y-76500000D02*
X102700000Y-76000000D01*
X102700000Y-77600000D02*
X102700000Y-77300000D01*
X102700000Y-72400000D02*
X102700000Y-72700000D01*
X108300000Y-77600000D02*
X108300000Y-77300000D01*
X108300000Y-76000000D02*
X108300000Y-76500000D01*
X108300000Y-74800000D02*
X108300000Y-75200000D01*
X108300000Y-73500000D02*
X108300000Y-74000000D01*
X108300000Y-72400000D02*
X108300000Y-72700000D01*
X102700000Y-72400000D02*
X108300000Y-72400000D01*
X108300000Y-77600000D02*
X102700000Y-77600000D01*
%TO.C,Q5*%
X136300000Y-117500000D02*
X136300000Y-118000000D01*
X136300000Y-116400000D02*
X136300000Y-116700000D01*
X136300000Y-121600000D02*
X136300000Y-121300000D01*
X130700000Y-116400000D02*
X130700000Y-116700000D01*
X130700000Y-118000000D02*
X130700000Y-117500000D01*
X130700000Y-119200000D02*
X130700000Y-118800000D01*
X130700000Y-120500000D02*
X130700000Y-120000000D01*
X130700000Y-121600000D02*
X130700000Y-121300000D01*
X136300000Y-121600000D02*
X130700000Y-121600000D01*
X130700000Y-116400000D02*
X136300000Y-116400000D01*
X86300000Y-117500000D02*
X86300000Y-118000000D01*
X86300000Y-116400000D02*
X86300000Y-116700000D01*
X86300000Y-121600000D02*
X86300000Y-121300000D01*
X80700000Y-116400000D02*
X80700000Y-116700000D01*
X80700000Y-118000000D02*
X80700000Y-117500000D01*
X80700000Y-119200000D02*
X80700000Y-118800000D01*
X80700000Y-120500000D02*
X80700000Y-120000000D01*
X80700000Y-121600000D02*
X80700000Y-121300000D01*
X86300000Y-121600000D02*
X80700000Y-121600000D01*
X80700000Y-116400000D02*
X86300000Y-116400000D01*
X136300000Y-67500000D02*
X136300000Y-68000000D01*
X136300000Y-66400000D02*
X136300000Y-66700000D01*
X136300000Y-71600000D02*
X136300000Y-71300000D01*
X130700000Y-66400000D02*
X130700000Y-66700000D01*
X130700000Y-68000000D02*
X130700000Y-67500000D01*
X130700000Y-69200000D02*
X130700000Y-68800000D01*
X130700000Y-70500000D02*
X130700000Y-70000000D01*
X130700000Y-71600000D02*
X130700000Y-71300000D01*
X136300000Y-71600000D02*
X130700000Y-71600000D01*
X130700000Y-66400000D02*
X136300000Y-66400000D01*
%TO.C,Q15*%
X93700000Y-105500000D02*
X93700000Y-105000000D01*
X93700000Y-106600000D02*
X93700000Y-106300000D01*
X93700000Y-101400000D02*
X93700000Y-101700000D01*
X99300000Y-106600000D02*
X99300000Y-106300000D01*
X99300000Y-105000000D02*
X99300000Y-105500000D01*
X99300000Y-103800000D02*
X99300000Y-104200000D01*
X99300000Y-102500000D02*
X99300000Y-103000000D01*
X99300000Y-101400000D02*
X99300000Y-101700000D01*
X93700000Y-101400000D02*
X99300000Y-101400000D01*
X99300000Y-106600000D02*
X93700000Y-106600000D01*
X43700000Y-105500000D02*
X43700000Y-105000000D01*
X43700000Y-106600000D02*
X43700000Y-106300000D01*
X43700000Y-101400000D02*
X43700000Y-101700000D01*
X49300000Y-106600000D02*
X49300000Y-106300000D01*
X49300000Y-105000000D02*
X49300000Y-105500000D01*
X49300000Y-103800000D02*
X49300000Y-104200000D01*
X49300000Y-102500000D02*
X49300000Y-103000000D01*
X49300000Y-101400000D02*
X49300000Y-101700000D01*
X43700000Y-101400000D02*
X49300000Y-101400000D01*
X49300000Y-106600000D02*
X43700000Y-106600000D01*
X93700000Y-55500000D02*
X93700000Y-55000000D01*
X93700000Y-56600000D02*
X93700000Y-56300000D01*
X93700000Y-51400000D02*
X93700000Y-51700000D01*
X99300000Y-56600000D02*
X99300000Y-56300000D01*
X99300000Y-55000000D02*
X99300000Y-55500000D01*
X99300000Y-53800000D02*
X99300000Y-54200000D01*
X99300000Y-52500000D02*
X99300000Y-53000000D01*
X99300000Y-51400000D02*
X99300000Y-51700000D01*
X93700000Y-51400000D02*
X99300000Y-51400000D01*
X99300000Y-56600000D02*
X93700000Y-56600000D01*
%TO.C,Q10*%
X127300000Y-103500000D02*
X127300000Y-104000000D01*
X127300000Y-102400000D02*
X127300000Y-102700000D01*
X127300000Y-107600000D02*
X127300000Y-107300000D01*
X121700000Y-102400000D02*
X121700000Y-102700000D01*
X121700000Y-104000000D02*
X121700000Y-103500000D01*
X121700000Y-105200000D02*
X121700000Y-104800000D01*
X121700000Y-106500000D02*
X121700000Y-106000000D01*
X121700000Y-107600000D02*
X121700000Y-107300000D01*
X127300000Y-107600000D02*
X121700000Y-107600000D01*
X121700000Y-102400000D02*
X127300000Y-102400000D01*
X77300000Y-103500000D02*
X77300000Y-104000000D01*
X77300000Y-102400000D02*
X77300000Y-102700000D01*
X77300000Y-107600000D02*
X77300000Y-107300000D01*
X71700000Y-102400000D02*
X71700000Y-102700000D01*
X71700000Y-104000000D02*
X71700000Y-103500000D01*
X71700000Y-105200000D02*
X71700000Y-104800000D01*
X71700000Y-106500000D02*
X71700000Y-106000000D01*
X71700000Y-107600000D02*
X71700000Y-107300000D01*
X77300000Y-107600000D02*
X71700000Y-107600000D01*
X71700000Y-102400000D02*
X77300000Y-102400000D01*
X127300000Y-53500000D02*
X127300000Y-54000000D01*
X127300000Y-52400000D02*
X127300000Y-52700000D01*
X127300000Y-57600000D02*
X127300000Y-57300000D01*
X121700000Y-52400000D02*
X121700000Y-52700000D01*
X121700000Y-54000000D02*
X121700000Y-53500000D01*
X121700000Y-55200000D02*
X121700000Y-54800000D01*
X121700000Y-56500000D02*
X121700000Y-56000000D01*
X121700000Y-57600000D02*
X121700000Y-57300000D01*
X127300000Y-57600000D02*
X121700000Y-57600000D01*
X121700000Y-52400000D02*
X127300000Y-52400000D01*
%TO.C,JT2*%
X122200000Y-95000000D02*
X119800000Y-95000000D01*
X119800000Y-94000000D02*
X122200000Y-94000000D01*
X119800000Y-94000000D02*
X119800000Y-94100000D01*
X119800000Y-95000000D02*
X119800000Y-94900000D01*
X122200000Y-94000000D02*
X122200000Y-94100000D01*
X122200000Y-95000000D02*
X122200000Y-94900000D01*
X72200000Y-95000000D02*
X69800000Y-95000000D01*
X69800000Y-94000000D02*
X72200000Y-94000000D01*
X69800000Y-94000000D02*
X69800000Y-94100000D01*
X69800000Y-95000000D02*
X69800000Y-94900000D01*
X72200000Y-94000000D02*
X72200000Y-94100000D01*
X72200000Y-95000000D02*
X72200000Y-94900000D01*
X122200000Y-45000000D02*
X119800000Y-45000000D01*
X119800000Y-44000000D02*
X122200000Y-44000000D01*
X119800000Y-44000000D02*
X119800000Y-44100000D01*
X119800000Y-45000000D02*
X119800000Y-44900000D01*
X122200000Y-44000000D02*
X122200000Y-44100000D01*
X122200000Y-45000000D02*
X122200000Y-44900000D01*
%TO.C,Q19*%
X93700000Y-119500000D02*
X93700000Y-119000000D01*
X93700000Y-120600000D02*
X93700000Y-120300000D01*
X93700000Y-115400000D02*
X93700000Y-115700000D01*
X99300000Y-120600000D02*
X99300000Y-120300000D01*
X99300000Y-119000000D02*
X99300000Y-119500000D01*
X99300000Y-117800000D02*
X99300000Y-118200000D01*
X99300000Y-116500000D02*
X99300000Y-117000000D01*
X99300000Y-115400000D02*
X99300000Y-115700000D01*
X93700000Y-115400000D02*
X99300000Y-115400000D01*
X99300000Y-120600000D02*
X93700000Y-120600000D01*
X43700000Y-119500000D02*
X43700000Y-119000000D01*
X43700000Y-120600000D02*
X43700000Y-120300000D01*
X43700000Y-115400000D02*
X43700000Y-115700000D01*
X49300000Y-120600000D02*
X49300000Y-120300000D01*
X49300000Y-119000000D02*
X49300000Y-119500000D01*
X49300000Y-117800000D02*
X49300000Y-118200000D01*
X49300000Y-116500000D02*
X49300000Y-117000000D01*
X49300000Y-115400000D02*
X49300000Y-115700000D01*
X43700000Y-115400000D02*
X49300000Y-115400000D01*
X49300000Y-120600000D02*
X43700000Y-120600000D01*
X93700000Y-69500000D02*
X93700000Y-69000000D01*
X93700000Y-70600000D02*
X93700000Y-70300000D01*
X93700000Y-65400000D02*
X93700000Y-65700000D01*
X99300000Y-70600000D02*
X99300000Y-70300000D01*
X99300000Y-69000000D02*
X99300000Y-69500000D01*
X99300000Y-67800000D02*
X99300000Y-68200000D01*
X99300000Y-66500000D02*
X99300000Y-67000000D01*
X99300000Y-65400000D02*
X99300000Y-65700000D01*
X93700000Y-65400000D02*
X99300000Y-65400000D01*
X99300000Y-70600000D02*
X93700000Y-70600000D01*
%TO.C,J2*%
X125800000Y-129000000D02*
X125800000Y-129100000D01*
X125800000Y-130000000D02*
X125800000Y-129900000D01*
X128200000Y-129000000D02*
X128200000Y-129100000D01*
X128200000Y-130000000D02*
X128200000Y-129900000D01*
X128200000Y-130000000D02*
X125800000Y-130000000D01*
X125800000Y-129000000D02*
X128200000Y-129000000D01*
X75800000Y-129000000D02*
X75800000Y-129100000D01*
X75800000Y-130000000D02*
X75800000Y-129900000D01*
X78200000Y-129000000D02*
X78200000Y-129100000D01*
X78200000Y-130000000D02*
X78200000Y-129900000D01*
X78200000Y-130000000D02*
X75800000Y-130000000D01*
X75800000Y-129000000D02*
X78200000Y-129000000D01*
X125800000Y-79000000D02*
X125800000Y-79100000D01*
X125800000Y-80000000D02*
X125800000Y-79900000D01*
X128200000Y-79000000D02*
X128200000Y-79100000D01*
X128200000Y-80000000D02*
X128200000Y-79900000D01*
X128200000Y-80000000D02*
X125800000Y-80000000D01*
X125800000Y-79000000D02*
X128200000Y-79000000D01*
%TO.C,Q12*%
X127300000Y-96500000D02*
X127300000Y-97000000D01*
X127300000Y-95400000D02*
X127300000Y-95700000D01*
X127300000Y-100600000D02*
X127300000Y-100300000D01*
X121700000Y-95400000D02*
X121700000Y-95700000D01*
X121700000Y-97000000D02*
X121700000Y-96500000D01*
X121700000Y-98200000D02*
X121700000Y-97800000D01*
X121700000Y-99500000D02*
X121700000Y-99000000D01*
X121700000Y-100600000D02*
X121700000Y-100300000D01*
X127300000Y-100600000D02*
X121700000Y-100600000D01*
X121700000Y-95400000D02*
X127300000Y-95400000D01*
X77300000Y-96500000D02*
X77300000Y-97000000D01*
X77300000Y-95400000D02*
X77300000Y-95700000D01*
X77300000Y-100600000D02*
X77300000Y-100300000D01*
X71700000Y-95400000D02*
X71700000Y-95700000D01*
X71700000Y-97000000D02*
X71700000Y-96500000D01*
X71700000Y-98200000D02*
X71700000Y-97800000D01*
X71700000Y-99500000D02*
X71700000Y-99000000D01*
X71700000Y-100600000D02*
X71700000Y-100300000D01*
X77300000Y-100600000D02*
X71700000Y-100600000D01*
X71700000Y-95400000D02*
X77300000Y-95400000D01*
X127300000Y-46500000D02*
X127300000Y-47000000D01*
X127300000Y-45400000D02*
X127300000Y-45700000D01*
X127300000Y-50600000D02*
X127300000Y-50300000D01*
X121700000Y-45400000D02*
X121700000Y-45700000D01*
X121700000Y-47000000D02*
X121700000Y-46500000D01*
X121700000Y-48200000D02*
X121700000Y-47800000D01*
X121700000Y-49500000D02*
X121700000Y-49000000D01*
X121700000Y-50600000D02*
X121700000Y-50300000D01*
X127300000Y-50600000D02*
X121700000Y-50600000D01*
X121700000Y-45400000D02*
X127300000Y-45400000D01*
%TO.C,Q14*%
X102700000Y-98500000D02*
X102700000Y-98000000D01*
X102700000Y-99600000D02*
X102700000Y-99300000D01*
X102700000Y-94400000D02*
X102700000Y-94700000D01*
X108300000Y-99600000D02*
X108300000Y-99300000D01*
X108300000Y-98000000D02*
X108300000Y-98500000D01*
X108300000Y-96800000D02*
X108300000Y-97200000D01*
X108300000Y-95500000D02*
X108300000Y-96000000D01*
X108300000Y-94400000D02*
X108300000Y-94700000D01*
X102700000Y-94400000D02*
X108300000Y-94400000D01*
X108300000Y-99600000D02*
X102700000Y-99600000D01*
X52700000Y-98500000D02*
X52700000Y-98000000D01*
X52700000Y-99600000D02*
X52700000Y-99300000D01*
X52700000Y-94400000D02*
X52700000Y-94700000D01*
X58300000Y-99600000D02*
X58300000Y-99300000D01*
X58300000Y-98000000D02*
X58300000Y-98500000D01*
X58300000Y-96800000D02*
X58300000Y-97200000D01*
X58300000Y-95500000D02*
X58300000Y-96000000D01*
X58300000Y-94400000D02*
X58300000Y-94700000D01*
X52700000Y-94400000D02*
X58300000Y-94400000D01*
X58300000Y-99600000D02*
X52700000Y-99600000D01*
X102700000Y-48500000D02*
X102700000Y-48000000D01*
X102700000Y-49600000D02*
X102700000Y-49300000D01*
X102700000Y-44400000D02*
X102700000Y-44700000D01*
X108300000Y-49600000D02*
X108300000Y-49300000D01*
X108300000Y-48000000D02*
X108300000Y-48500000D01*
X108300000Y-46800000D02*
X108300000Y-47200000D01*
X108300000Y-45500000D02*
X108300000Y-46000000D01*
X108300000Y-44400000D02*
X108300000Y-44700000D01*
X102700000Y-44400000D02*
X108300000Y-44400000D01*
X108300000Y-49600000D02*
X102700000Y-49600000D01*
%TO.C,Q18*%
X102700000Y-112500000D02*
X102700000Y-112000000D01*
X102700000Y-113600000D02*
X102700000Y-113300000D01*
X102700000Y-108400000D02*
X102700000Y-108700000D01*
X108300000Y-113600000D02*
X108300000Y-113300000D01*
X108300000Y-112000000D02*
X108300000Y-112500000D01*
X108300000Y-110800000D02*
X108300000Y-111200000D01*
X108300000Y-109500000D02*
X108300000Y-110000000D01*
X108300000Y-108400000D02*
X108300000Y-108700000D01*
X102700000Y-108400000D02*
X108300000Y-108400000D01*
X108300000Y-113600000D02*
X102700000Y-113600000D01*
X52700000Y-112500000D02*
X52700000Y-112000000D01*
X52700000Y-113600000D02*
X52700000Y-113300000D01*
X52700000Y-108400000D02*
X52700000Y-108700000D01*
X58300000Y-113600000D02*
X58300000Y-113300000D01*
X58300000Y-112000000D02*
X58300000Y-112500000D01*
X58300000Y-110800000D02*
X58300000Y-111200000D01*
X58300000Y-109500000D02*
X58300000Y-110000000D01*
X58300000Y-108400000D02*
X58300000Y-108700000D01*
X52700000Y-108400000D02*
X58300000Y-108400000D01*
X58300000Y-113600000D02*
X52700000Y-113600000D01*
X102700000Y-62500000D02*
X102700000Y-62000000D01*
X102700000Y-63600000D02*
X102700000Y-63300000D01*
X102700000Y-58400000D02*
X102700000Y-58700000D01*
X108300000Y-63600000D02*
X108300000Y-63300000D01*
X108300000Y-62000000D02*
X108300000Y-62500000D01*
X108300000Y-60800000D02*
X108300000Y-61200000D01*
X108300000Y-59500000D02*
X108300000Y-60000000D01*
X108300000Y-58400000D02*
X108300000Y-58700000D01*
X102700000Y-58400000D02*
X108300000Y-58400000D01*
X108300000Y-63600000D02*
X102700000Y-63600000D01*
%TO.C,Q13*%
X93700000Y-98500000D02*
X93700000Y-98000000D01*
X93700000Y-99600000D02*
X93700000Y-99300000D01*
X93700000Y-94400000D02*
X93700000Y-94700000D01*
X99300000Y-99600000D02*
X99300000Y-99300000D01*
X99300000Y-98000000D02*
X99300000Y-98500000D01*
X99300000Y-96800000D02*
X99300000Y-97200000D01*
X99300000Y-95500000D02*
X99300000Y-96000000D01*
X99300000Y-94400000D02*
X99300000Y-94700000D01*
X93700000Y-94400000D02*
X99300000Y-94400000D01*
X99300000Y-99600000D02*
X93700000Y-99600000D01*
X43700000Y-98500000D02*
X43700000Y-98000000D01*
X43700000Y-99600000D02*
X43700000Y-99300000D01*
X43700000Y-94400000D02*
X43700000Y-94700000D01*
X49300000Y-99600000D02*
X49300000Y-99300000D01*
X49300000Y-98000000D02*
X49300000Y-98500000D01*
X49300000Y-96800000D02*
X49300000Y-97200000D01*
X49300000Y-95500000D02*
X49300000Y-96000000D01*
X49300000Y-94400000D02*
X49300000Y-94700000D01*
X43700000Y-94400000D02*
X49300000Y-94400000D01*
X49300000Y-99600000D02*
X43700000Y-99600000D01*
X93700000Y-48500000D02*
X93700000Y-48000000D01*
X93700000Y-49600000D02*
X93700000Y-49300000D01*
X93700000Y-44400000D02*
X93700000Y-44700000D01*
X99300000Y-49600000D02*
X99300000Y-49300000D01*
X99300000Y-48000000D02*
X99300000Y-48500000D01*
X99300000Y-46800000D02*
X99300000Y-47200000D01*
X99300000Y-45500000D02*
X99300000Y-46000000D01*
X99300000Y-44400000D02*
X99300000Y-44700000D01*
X93700000Y-44400000D02*
X99300000Y-44400000D01*
X99300000Y-49600000D02*
X93700000Y-49600000D01*
%TO.C,Q1*%
X136300000Y-131500000D02*
X136300000Y-132000000D01*
X136300000Y-130400000D02*
X136300000Y-130700000D01*
X136300000Y-135600000D02*
X136300000Y-135300000D01*
X130700000Y-130400000D02*
X130700000Y-130700000D01*
X130700000Y-132000000D02*
X130700000Y-131500000D01*
X130700000Y-133200000D02*
X130700000Y-132800000D01*
X130700000Y-134500000D02*
X130700000Y-134000000D01*
X130700000Y-135600000D02*
X130700000Y-135300000D01*
X136300000Y-135600000D02*
X130700000Y-135600000D01*
X130700000Y-130400000D02*
X136300000Y-130400000D01*
X86300000Y-131500000D02*
X86300000Y-132000000D01*
X86300000Y-130400000D02*
X86300000Y-130700000D01*
X86300000Y-135600000D02*
X86300000Y-135300000D01*
X80700000Y-130400000D02*
X80700000Y-130700000D01*
X80700000Y-132000000D02*
X80700000Y-131500000D01*
X80700000Y-133200000D02*
X80700000Y-132800000D01*
X80700000Y-134500000D02*
X80700000Y-134000000D01*
X80700000Y-135600000D02*
X80700000Y-135300000D01*
X86300000Y-135600000D02*
X80700000Y-135600000D01*
X80700000Y-130400000D02*
X86300000Y-130400000D01*
X136300000Y-81500000D02*
X136300000Y-82000000D01*
X136300000Y-80400000D02*
X136300000Y-80700000D01*
X136300000Y-85600000D02*
X136300000Y-85300000D01*
X130700000Y-80400000D02*
X130700000Y-80700000D01*
X130700000Y-82000000D02*
X130700000Y-81500000D01*
X130700000Y-83200000D02*
X130700000Y-82800000D01*
X130700000Y-84500000D02*
X130700000Y-84000000D01*
X130700000Y-85600000D02*
X130700000Y-85300000D01*
X136300000Y-85600000D02*
X130700000Y-85600000D01*
X130700000Y-80400000D02*
X136300000Y-80400000D01*
%TO.C,Q2*%
X127300000Y-131500000D02*
X127300000Y-132000000D01*
X127300000Y-130400000D02*
X127300000Y-130700000D01*
X127300000Y-135600000D02*
X127300000Y-135300000D01*
X121700000Y-130400000D02*
X121700000Y-130700000D01*
X121700000Y-132000000D02*
X121700000Y-131500000D01*
X121700000Y-133200000D02*
X121700000Y-132800000D01*
X121700000Y-134500000D02*
X121700000Y-134000000D01*
X121700000Y-135600000D02*
X121700000Y-135300000D01*
X127300000Y-135600000D02*
X121700000Y-135600000D01*
X121700000Y-130400000D02*
X127300000Y-130400000D01*
X77300000Y-131500000D02*
X77300000Y-132000000D01*
X77300000Y-130400000D02*
X77300000Y-130700000D01*
X77300000Y-135600000D02*
X77300000Y-135300000D01*
X71700000Y-130400000D02*
X71700000Y-130700000D01*
X71700000Y-132000000D02*
X71700000Y-131500000D01*
X71700000Y-133200000D02*
X71700000Y-132800000D01*
X71700000Y-134500000D02*
X71700000Y-134000000D01*
X71700000Y-135600000D02*
X71700000Y-135300000D01*
X77300000Y-135600000D02*
X71700000Y-135600000D01*
X71700000Y-130400000D02*
X77300000Y-130400000D01*
X127300000Y-81500000D02*
X127300000Y-82000000D01*
X127300000Y-80400000D02*
X127300000Y-80700000D01*
X127300000Y-85600000D02*
X127300000Y-85300000D01*
X121700000Y-80400000D02*
X121700000Y-80700000D01*
X121700000Y-82000000D02*
X121700000Y-81500000D01*
X121700000Y-83200000D02*
X121700000Y-82800000D01*
X121700000Y-84500000D02*
X121700000Y-84000000D01*
X121700000Y-85600000D02*
X121700000Y-85300000D01*
X127300000Y-85600000D02*
X121700000Y-85600000D01*
X121700000Y-80400000D02*
X127300000Y-80400000D01*
%TO.C,J11*%
X134800000Y-94000000D02*
X134800000Y-94100000D01*
X134800000Y-95000000D02*
X134800000Y-94900000D01*
X137200000Y-94000000D02*
X137200000Y-94100000D01*
X137200000Y-95000000D02*
X137200000Y-94900000D01*
X137200000Y-95000000D02*
X134800000Y-95000000D01*
X134800000Y-94000000D02*
X137200000Y-94000000D01*
X84800000Y-94000000D02*
X84800000Y-94100000D01*
X84800000Y-95000000D02*
X84800000Y-94900000D01*
X87200000Y-94000000D02*
X87200000Y-94100000D01*
X87200000Y-95000000D02*
X87200000Y-94900000D01*
X87200000Y-95000000D02*
X84800000Y-95000000D01*
X84800000Y-94000000D02*
X87200000Y-94000000D01*
X134800000Y-44000000D02*
X134800000Y-44100000D01*
X134800000Y-45000000D02*
X134800000Y-44900000D01*
X137200000Y-44000000D02*
X137200000Y-44100000D01*
X137200000Y-45000000D02*
X137200000Y-44900000D01*
X137200000Y-45000000D02*
X134800000Y-45000000D01*
X134800000Y-44000000D02*
X137200000Y-44000000D01*
%TO.C,J22*%
X104200000Y-129000000D02*
X104200000Y-128900000D01*
X104200000Y-128000000D02*
X104200000Y-128100000D01*
X101800000Y-129000000D02*
X101800000Y-128900000D01*
X101800000Y-128000000D02*
X101800000Y-128100000D01*
X101800000Y-128000000D02*
X104200000Y-128000000D01*
X104200000Y-129000000D02*
X101800000Y-129000000D01*
X54200000Y-129000000D02*
X54200000Y-128900000D01*
X54200000Y-128000000D02*
X54200000Y-128100000D01*
X51800000Y-129000000D02*
X51800000Y-128900000D01*
X51800000Y-128000000D02*
X51800000Y-128100000D01*
X51800000Y-128000000D02*
X54200000Y-128000000D01*
X54200000Y-129000000D02*
X51800000Y-129000000D01*
X104200000Y-79000000D02*
X104200000Y-78900000D01*
X104200000Y-78000000D02*
X104200000Y-78100000D01*
X101800000Y-79000000D02*
X101800000Y-78900000D01*
X101800000Y-78000000D02*
X101800000Y-78100000D01*
X101800000Y-78000000D02*
X104200000Y-78000000D01*
X104200000Y-79000000D02*
X101800000Y-79000000D01*
%TO.C,J12*%
X125800000Y-94000000D02*
X125800000Y-94100000D01*
X125800000Y-95000000D02*
X125800000Y-94900000D01*
X128200000Y-94000000D02*
X128200000Y-94100000D01*
X128200000Y-95000000D02*
X128200000Y-94900000D01*
X128200000Y-95000000D02*
X125800000Y-95000000D01*
X125800000Y-94000000D02*
X128200000Y-94000000D01*
X75800000Y-94000000D02*
X75800000Y-94100000D01*
X75800000Y-95000000D02*
X75800000Y-94900000D01*
X78200000Y-94000000D02*
X78200000Y-94100000D01*
X78200000Y-95000000D02*
X78200000Y-94900000D01*
X78200000Y-95000000D02*
X75800000Y-95000000D01*
X75800000Y-94000000D02*
X78200000Y-94000000D01*
X125800000Y-44000000D02*
X125800000Y-44100000D01*
X125800000Y-45000000D02*
X125800000Y-44900000D01*
X128200000Y-44000000D02*
X128200000Y-44100000D01*
X128200000Y-45000000D02*
X128200000Y-44900000D01*
X128200000Y-45000000D02*
X125800000Y-45000000D01*
X125800000Y-44000000D02*
X128200000Y-44000000D01*
%TO.C,J3*%
X134800000Y-122000000D02*
X134800000Y-122100000D01*
X134800000Y-123000000D02*
X134800000Y-122900000D01*
X137200000Y-122000000D02*
X137200000Y-122100000D01*
X137200000Y-123000000D02*
X137200000Y-122900000D01*
X137200000Y-123000000D02*
X134800000Y-123000000D01*
X134800000Y-122000000D02*
X137200000Y-122000000D01*
X84800000Y-122000000D02*
X84800000Y-122100000D01*
X84800000Y-123000000D02*
X84800000Y-122900000D01*
X87200000Y-122000000D02*
X87200000Y-122100000D01*
X87200000Y-123000000D02*
X87200000Y-122900000D01*
X87200000Y-123000000D02*
X84800000Y-123000000D01*
X84800000Y-122000000D02*
X87200000Y-122000000D01*
X134800000Y-72000000D02*
X134800000Y-72100000D01*
X134800000Y-73000000D02*
X134800000Y-72900000D01*
X137200000Y-72000000D02*
X137200000Y-72100000D01*
X137200000Y-73000000D02*
X137200000Y-72900000D01*
X137200000Y-73000000D02*
X134800000Y-73000000D01*
X134800000Y-72000000D02*
X137200000Y-72000000D01*
%TO.C,J17*%
X95200000Y-115000000D02*
X95200000Y-114900000D01*
X95200000Y-114000000D02*
X95200000Y-114100000D01*
X92800000Y-115000000D02*
X92800000Y-114900000D01*
X92800000Y-114000000D02*
X92800000Y-114100000D01*
X92800000Y-114000000D02*
X95200000Y-114000000D01*
X95200000Y-115000000D02*
X92800000Y-115000000D01*
X45200000Y-115000000D02*
X45200000Y-114900000D01*
X45200000Y-114000000D02*
X45200000Y-114100000D01*
X42800000Y-115000000D02*
X42800000Y-114900000D01*
X42800000Y-114000000D02*
X42800000Y-114100000D01*
X42800000Y-114000000D02*
X45200000Y-114000000D01*
X45200000Y-115000000D02*
X42800000Y-115000000D01*
X95200000Y-65000000D02*
X95200000Y-64900000D01*
X95200000Y-64000000D02*
X95200000Y-64100000D01*
X92800000Y-65000000D02*
X92800000Y-64900000D01*
X92800000Y-64000000D02*
X92800000Y-64100000D01*
X92800000Y-64000000D02*
X95200000Y-64000000D01*
X95200000Y-65000000D02*
X92800000Y-65000000D01*
%TO.C,J15*%
X95200000Y-108000000D02*
X95200000Y-107900000D01*
X95200000Y-107000000D02*
X95200000Y-107100000D01*
X92800000Y-108000000D02*
X92800000Y-107900000D01*
X92800000Y-107000000D02*
X92800000Y-107100000D01*
X92800000Y-107000000D02*
X95200000Y-107000000D01*
X95200000Y-108000000D02*
X92800000Y-108000000D01*
X45200000Y-108000000D02*
X45200000Y-107900000D01*
X45200000Y-107000000D02*
X45200000Y-107100000D01*
X42800000Y-108000000D02*
X42800000Y-107900000D01*
X42800000Y-107000000D02*
X42800000Y-107100000D01*
X42800000Y-107000000D02*
X45200000Y-107000000D01*
X45200000Y-108000000D02*
X42800000Y-108000000D01*
X95200000Y-58000000D02*
X95200000Y-57900000D01*
X95200000Y-57000000D02*
X95200000Y-57100000D01*
X92800000Y-58000000D02*
X92800000Y-57900000D01*
X92800000Y-57000000D02*
X92800000Y-57100000D01*
X92800000Y-57000000D02*
X95200000Y-57000000D01*
X95200000Y-58000000D02*
X92800000Y-58000000D01*
%TO.C,J5*%
X134800000Y-115000000D02*
X134800000Y-115100000D01*
X134800000Y-116000000D02*
X134800000Y-115900000D01*
X137200000Y-115000000D02*
X137200000Y-115100000D01*
X137200000Y-116000000D02*
X137200000Y-115900000D01*
X137200000Y-116000000D02*
X134800000Y-116000000D01*
X134800000Y-115000000D02*
X137200000Y-115000000D01*
X84800000Y-115000000D02*
X84800000Y-115100000D01*
X84800000Y-116000000D02*
X84800000Y-115900000D01*
X87200000Y-115000000D02*
X87200000Y-115100000D01*
X87200000Y-116000000D02*
X87200000Y-115900000D01*
X87200000Y-116000000D02*
X84800000Y-116000000D01*
X84800000Y-115000000D02*
X87200000Y-115000000D01*
X134800000Y-65000000D02*
X134800000Y-65100000D01*
X134800000Y-66000000D02*
X134800000Y-65900000D01*
X137200000Y-65000000D02*
X137200000Y-65100000D01*
X137200000Y-66000000D02*
X137200000Y-65900000D01*
X137200000Y-66000000D02*
X134800000Y-66000000D01*
X134800000Y-65000000D02*
X137200000Y-65000000D01*
%TO.C,J16*%
X104200000Y-108000000D02*
X104200000Y-107900000D01*
X104200000Y-107000000D02*
X104200000Y-107100000D01*
X101800000Y-108000000D02*
X101800000Y-107900000D01*
X101800000Y-107000000D02*
X101800000Y-107100000D01*
X101800000Y-107000000D02*
X104200000Y-107000000D01*
X104200000Y-108000000D02*
X101800000Y-108000000D01*
X54200000Y-108000000D02*
X54200000Y-107900000D01*
X54200000Y-107000000D02*
X54200000Y-107100000D01*
X51800000Y-108000000D02*
X51800000Y-107900000D01*
X51800000Y-107000000D02*
X51800000Y-107100000D01*
X51800000Y-107000000D02*
X54200000Y-107000000D01*
X54200000Y-108000000D02*
X51800000Y-108000000D01*
X104200000Y-58000000D02*
X104200000Y-57900000D01*
X104200000Y-57000000D02*
X104200000Y-57100000D01*
X101800000Y-58000000D02*
X101800000Y-57900000D01*
X101800000Y-57000000D02*
X101800000Y-57100000D01*
X101800000Y-57000000D02*
X104200000Y-57000000D01*
X104200000Y-58000000D02*
X101800000Y-58000000D01*
%TO.C,Q17*%
X93700000Y-112500000D02*
X93700000Y-112000000D01*
X93700000Y-113600000D02*
X93700000Y-113300000D01*
X93700000Y-108400000D02*
X93700000Y-108700000D01*
X99300000Y-113600000D02*
X99300000Y-113300000D01*
X99300000Y-112000000D02*
X99300000Y-112500000D01*
X99300000Y-110800000D02*
X99300000Y-111200000D01*
X99300000Y-109500000D02*
X99300000Y-110000000D01*
X99300000Y-108400000D02*
X99300000Y-108700000D01*
X93700000Y-108400000D02*
X99300000Y-108400000D01*
X99300000Y-113600000D02*
X93700000Y-113600000D01*
X43700000Y-112500000D02*
X43700000Y-112000000D01*
X43700000Y-113600000D02*
X43700000Y-113300000D01*
X43700000Y-108400000D02*
X43700000Y-108700000D01*
X49300000Y-113600000D02*
X49300000Y-113300000D01*
X49300000Y-112000000D02*
X49300000Y-112500000D01*
X49300000Y-110800000D02*
X49300000Y-111200000D01*
X49300000Y-109500000D02*
X49300000Y-110000000D01*
X49300000Y-108400000D02*
X49300000Y-108700000D01*
X43700000Y-108400000D02*
X49300000Y-108400000D01*
X49300000Y-113600000D02*
X43700000Y-113600000D01*
X93700000Y-62500000D02*
X93700000Y-62000000D01*
X93700000Y-63600000D02*
X93700000Y-63300000D01*
X93700000Y-58400000D02*
X93700000Y-58700000D01*
X99300000Y-63600000D02*
X99300000Y-63300000D01*
X99300000Y-62000000D02*
X99300000Y-62500000D01*
X99300000Y-60800000D02*
X99300000Y-61200000D01*
X99300000Y-59500000D02*
X99300000Y-60000000D01*
X99300000Y-58400000D02*
X99300000Y-58700000D01*
X93700000Y-58400000D02*
X99300000Y-58400000D01*
X99300000Y-63600000D02*
X93700000Y-63600000D01*
%TO.C,Q16*%
X102700000Y-105500000D02*
X102700000Y-105000000D01*
X102700000Y-106600000D02*
X102700000Y-106300000D01*
X102700000Y-101400000D02*
X102700000Y-101700000D01*
X108300000Y-106600000D02*
X108300000Y-106300000D01*
X108300000Y-105000000D02*
X108300000Y-105500000D01*
X108300000Y-103800000D02*
X108300000Y-104200000D01*
X108300000Y-102500000D02*
X108300000Y-103000000D01*
X108300000Y-101400000D02*
X108300000Y-101700000D01*
X102700000Y-101400000D02*
X108300000Y-101400000D01*
X108300000Y-106600000D02*
X102700000Y-106600000D01*
X52700000Y-105500000D02*
X52700000Y-105000000D01*
X52700000Y-106600000D02*
X52700000Y-106300000D01*
X52700000Y-101400000D02*
X52700000Y-101700000D01*
X58300000Y-106600000D02*
X58300000Y-106300000D01*
X58300000Y-105000000D02*
X58300000Y-105500000D01*
X58300000Y-103800000D02*
X58300000Y-104200000D01*
X58300000Y-102500000D02*
X58300000Y-103000000D01*
X58300000Y-101400000D02*
X58300000Y-101700000D01*
X52700000Y-101400000D02*
X58300000Y-101400000D01*
X58300000Y-106600000D02*
X52700000Y-106600000D01*
X102700000Y-55500000D02*
X102700000Y-55000000D01*
X102700000Y-56600000D02*
X102700000Y-56300000D01*
X102700000Y-51400000D02*
X102700000Y-51700000D01*
X108300000Y-56600000D02*
X108300000Y-56300000D01*
X108300000Y-55000000D02*
X108300000Y-55500000D01*
X108300000Y-53800000D02*
X108300000Y-54200000D01*
X108300000Y-52500000D02*
X108300000Y-53000000D01*
X108300000Y-51400000D02*
X108300000Y-51700000D01*
X102700000Y-51400000D02*
X108300000Y-51400000D01*
X108300000Y-56600000D02*
X102700000Y-56600000D01*
%TO.C,Q3*%
X136300000Y-124500000D02*
X136300000Y-125000000D01*
X136300000Y-123400000D02*
X136300000Y-123700000D01*
X136300000Y-128600000D02*
X136300000Y-128300000D01*
X130700000Y-123400000D02*
X130700000Y-123700000D01*
X130700000Y-125000000D02*
X130700000Y-124500000D01*
X130700000Y-126200000D02*
X130700000Y-125800000D01*
X130700000Y-127500000D02*
X130700000Y-127000000D01*
X130700000Y-128600000D02*
X130700000Y-128300000D01*
X136300000Y-128600000D02*
X130700000Y-128600000D01*
X130700000Y-123400000D02*
X136300000Y-123400000D01*
X86300000Y-124500000D02*
X86300000Y-125000000D01*
X86300000Y-123400000D02*
X86300000Y-123700000D01*
X86300000Y-128600000D02*
X86300000Y-128300000D01*
X80700000Y-123400000D02*
X80700000Y-123700000D01*
X80700000Y-125000000D02*
X80700000Y-124500000D01*
X80700000Y-126200000D02*
X80700000Y-125800000D01*
X80700000Y-127500000D02*
X80700000Y-127000000D01*
X80700000Y-128600000D02*
X80700000Y-128300000D01*
X86300000Y-128600000D02*
X80700000Y-128600000D01*
X80700000Y-123400000D02*
X86300000Y-123400000D01*
X136300000Y-74500000D02*
X136300000Y-75000000D01*
X136300000Y-73400000D02*
X136300000Y-73700000D01*
X136300000Y-78600000D02*
X136300000Y-78300000D01*
X130700000Y-73400000D02*
X130700000Y-73700000D01*
X130700000Y-75000000D02*
X130700000Y-74500000D01*
X130700000Y-76200000D02*
X130700000Y-75800000D01*
X130700000Y-77500000D02*
X130700000Y-77000000D01*
X130700000Y-78600000D02*
X130700000Y-78300000D01*
X136300000Y-78600000D02*
X130700000Y-78600000D01*
X130700000Y-73400000D02*
X136300000Y-73400000D01*
%TO.C,Q11*%
X136300000Y-96500000D02*
X136300000Y-97000000D01*
X136300000Y-95400000D02*
X136300000Y-95700000D01*
X136300000Y-100600000D02*
X136300000Y-100300000D01*
X130700000Y-95400000D02*
X130700000Y-95700000D01*
X130700000Y-97000000D02*
X130700000Y-96500000D01*
X130700000Y-98200000D02*
X130700000Y-97800000D01*
X130700000Y-99500000D02*
X130700000Y-99000000D01*
X130700000Y-100600000D02*
X130700000Y-100300000D01*
X136300000Y-100600000D02*
X130700000Y-100600000D01*
X130700000Y-95400000D02*
X136300000Y-95400000D01*
X86300000Y-96500000D02*
X86300000Y-97000000D01*
X86300000Y-95400000D02*
X86300000Y-95700000D01*
X86300000Y-100600000D02*
X86300000Y-100300000D01*
X80700000Y-95400000D02*
X80700000Y-95700000D01*
X80700000Y-97000000D02*
X80700000Y-96500000D01*
X80700000Y-98200000D02*
X80700000Y-97800000D01*
X80700000Y-99500000D02*
X80700000Y-99000000D01*
X80700000Y-100600000D02*
X80700000Y-100300000D01*
X86300000Y-100600000D02*
X80700000Y-100600000D01*
X80700000Y-95400000D02*
X86300000Y-95400000D01*
X136300000Y-46500000D02*
X136300000Y-47000000D01*
X136300000Y-45400000D02*
X136300000Y-45700000D01*
X136300000Y-50600000D02*
X136300000Y-50300000D01*
X130700000Y-45400000D02*
X130700000Y-45700000D01*
X130700000Y-47000000D02*
X130700000Y-46500000D01*
X130700000Y-48200000D02*
X130700000Y-47800000D01*
X130700000Y-49500000D02*
X130700000Y-49000000D01*
X130700000Y-50600000D02*
X130700000Y-50300000D01*
X136300000Y-50600000D02*
X130700000Y-50600000D01*
X130700000Y-45400000D02*
X136300000Y-45400000D01*
%TO.C,JT1*%
X110200000Y-94000000D02*
X107800000Y-94000000D01*
X107800000Y-93000000D02*
X110200000Y-93000000D01*
X107800000Y-93000000D02*
X107800000Y-93100000D01*
X107800000Y-94000000D02*
X107800000Y-93900000D01*
X110200000Y-93000000D02*
X110200000Y-93100000D01*
X110200000Y-94000000D02*
X110200000Y-93900000D01*
X60200000Y-94000000D02*
X57800000Y-94000000D01*
X57800000Y-93000000D02*
X60200000Y-93000000D01*
X57800000Y-93000000D02*
X57800000Y-93100000D01*
X57800000Y-94000000D02*
X57800000Y-93900000D01*
X60200000Y-93000000D02*
X60200000Y-93100000D01*
X60200000Y-94000000D02*
X60200000Y-93900000D01*
X110200000Y-44000000D02*
X107800000Y-44000000D01*
X107800000Y-43000000D02*
X110200000Y-43000000D01*
X107800000Y-43000000D02*
X107800000Y-43100000D01*
X107800000Y-44000000D02*
X107800000Y-43900000D01*
X110200000Y-43000000D02*
X110200000Y-43100000D01*
X110200000Y-44000000D02*
X110200000Y-43900000D01*
%TO.C,JT3*%
X66200000Y-84000000D02*
X66200000Y-83900000D01*
X66200000Y-83000000D02*
X66200000Y-83100000D01*
X63800000Y-84000000D02*
X63800000Y-83900000D01*
X63800000Y-83000000D02*
X63800000Y-83100000D01*
X63800000Y-83000000D02*
X66200000Y-83000000D01*
X66200000Y-84000000D02*
X63800000Y-84000000D01*
%TO.C,JT2*%
X72200000Y-45000000D02*
X72200000Y-44900000D01*
X72200000Y-44000000D02*
X72200000Y-44100000D01*
X69800000Y-45000000D02*
X69800000Y-44900000D01*
X69800000Y-44000000D02*
X69800000Y-44100000D01*
X69800000Y-44000000D02*
X72200000Y-44000000D01*
X72200000Y-45000000D02*
X69800000Y-45000000D01*
%TO.C,JT1*%
X60200000Y-44000000D02*
X60200000Y-43900000D01*
X60200000Y-43000000D02*
X60200000Y-43100000D01*
X57800000Y-44000000D02*
X57800000Y-43900000D01*
X57800000Y-43000000D02*
X57800000Y-43100000D01*
X57800000Y-43000000D02*
X60200000Y-43000000D01*
X60200000Y-44000000D02*
X57800000Y-44000000D01*
%TO.C,J24*%
X54200000Y-86000000D02*
X51800000Y-86000000D01*
X51800000Y-85000000D02*
X54200000Y-85000000D01*
X51800000Y-85000000D02*
X51800000Y-85100000D01*
X51800000Y-86000000D02*
X51800000Y-85900000D01*
X54200000Y-85000000D02*
X54200000Y-85100000D01*
X54200000Y-86000000D02*
X54200000Y-85900000D01*
%TO.C,J23*%
X45200000Y-86000000D02*
X42800000Y-86000000D01*
X42800000Y-85000000D02*
X45200000Y-85000000D01*
X42800000Y-85000000D02*
X42800000Y-85100000D01*
X42800000Y-86000000D02*
X42800000Y-85900000D01*
X45200000Y-85000000D02*
X45200000Y-85100000D01*
X45200000Y-86000000D02*
X45200000Y-85900000D01*
%TO.C,J22*%
X54200000Y-79000000D02*
X51800000Y-79000000D01*
X51800000Y-78000000D02*
X54200000Y-78000000D01*
X51800000Y-78000000D02*
X51800000Y-78100000D01*
X51800000Y-79000000D02*
X51800000Y-78900000D01*
X54200000Y-78000000D02*
X54200000Y-78100000D01*
X54200000Y-79000000D02*
X54200000Y-78900000D01*
%TO.C,J21*%
X45200000Y-79000000D02*
X42800000Y-79000000D01*
X42800000Y-78000000D02*
X45200000Y-78000000D01*
X42800000Y-78000000D02*
X42800000Y-78100000D01*
X42800000Y-79000000D02*
X42800000Y-78900000D01*
X45200000Y-78000000D02*
X45200000Y-78100000D01*
X45200000Y-79000000D02*
X45200000Y-78900000D01*
%TO.C,J20*%
X54200000Y-72000000D02*
X51800000Y-72000000D01*
X51800000Y-71000000D02*
X54200000Y-71000000D01*
X51800000Y-71000000D02*
X51800000Y-71100000D01*
X51800000Y-72000000D02*
X51800000Y-71900000D01*
X54200000Y-71000000D02*
X54200000Y-71100000D01*
X54200000Y-72000000D02*
X54200000Y-71900000D01*
%TO.C,J19*%
X45200000Y-72000000D02*
X42800000Y-72000000D01*
X42800000Y-71000000D02*
X45200000Y-71000000D01*
X42800000Y-71000000D02*
X42800000Y-71100000D01*
X42800000Y-72000000D02*
X42800000Y-71900000D01*
X45200000Y-71000000D02*
X45200000Y-71100000D01*
X45200000Y-72000000D02*
X45200000Y-71900000D01*
%TO.C,J18*%
X54200000Y-65000000D02*
X51800000Y-65000000D01*
X51800000Y-64000000D02*
X54200000Y-64000000D01*
X51800000Y-64000000D02*
X51800000Y-64100000D01*
X51800000Y-65000000D02*
X51800000Y-64900000D01*
X54200000Y-64000000D02*
X54200000Y-64100000D01*
X54200000Y-65000000D02*
X54200000Y-64900000D01*
%TO.C,J17*%
X45200000Y-65000000D02*
X42800000Y-65000000D01*
X42800000Y-64000000D02*
X45200000Y-64000000D01*
X42800000Y-64000000D02*
X42800000Y-64100000D01*
X42800000Y-65000000D02*
X42800000Y-64900000D01*
X45200000Y-64000000D02*
X45200000Y-64100000D01*
X45200000Y-65000000D02*
X45200000Y-64900000D01*
%TO.C,J16*%
X54200000Y-58000000D02*
X51800000Y-58000000D01*
X51800000Y-57000000D02*
X54200000Y-57000000D01*
X51800000Y-57000000D02*
X51800000Y-57100000D01*
X51800000Y-58000000D02*
X51800000Y-57900000D01*
X54200000Y-57000000D02*
X54200000Y-57100000D01*
X54200000Y-58000000D02*
X54200000Y-57900000D01*
%TO.C,J15*%
X45200000Y-58000000D02*
X42800000Y-58000000D01*
X42800000Y-57000000D02*
X45200000Y-57000000D01*
X42800000Y-57000000D02*
X42800000Y-57100000D01*
X42800000Y-58000000D02*
X42800000Y-57900000D01*
X45200000Y-57000000D02*
X45200000Y-57100000D01*
X45200000Y-58000000D02*
X45200000Y-57900000D01*
%TO.C,J14*%
X54200000Y-51000000D02*
X51800000Y-51000000D01*
X51800000Y-50000000D02*
X54200000Y-50000000D01*
X51800000Y-50000000D02*
X51800000Y-50100000D01*
X51800000Y-51000000D02*
X51800000Y-50900000D01*
X54200000Y-50000000D02*
X54200000Y-50100000D01*
X54200000Y-51000000D02*
X54200000Y-50900000D01*
%TO.C,J13*%
X45200000Y-51000000D02*
X42800000Y-51000000D01*
X42800000Y-50000000D02*
X45200000Y-50000000D01*
X42800000Y-50000000D02*
X42800000Y-50100000D01*
X42800000Y-51000000D02*
X42800000Y-50900000D01*
X45200000Y-50000000D02*
X45200000Y-50100000D01*
X45200000Y-51000000D02*
X45200000Y-50900000D01*
%TO.C,J12*%
X75800000Y-44000000D02*
X78200000Y-44000000D01*
X78200000Y-45000000D02*
X75800000Y-45000000D01*
X78200000Y-45000000D02*
X78200000Y-44900000D01*
X78200000Y-44000000D02*
X78200000Y-44100000D01*
X75800000Y-45000000D02*
X75800000Y-44900000D01*
X75800000Y-44000000D02*
X75800000Y-44100000D01*
%TO.C,J11*%
X84800000Y-44000000D02*
X87200000Y-44000000D01*
X87200000Y-45000000D02*
X84800000Y-45000000D01*
X87200000Y-45000000D02*
X87200000Y-44900000D01*
X87200000Y-44000000D02*
X87200000Y-44100000D01*
X84800000Y-45000000D02*
X84800000Y-44900000D01*
X84800000Y-44000000D02*
X84800000Y-44100000D01*
%TO.C,J10*%
X75800000Y-51000000D02*
X78200000Y-51000000D01*
X78200000Y-52000000D02*
X75800000Y-52000000D01*
X78200000Y-52000000D02*
X78200000Y-51900000D01*
X78200000Y-51000000D02*
X78200000Y-51100000D01*
X75800000Y-52000000D02*
X75800000Y-51900000D01*
X75800000Y-51000000D02*
X75800000Y-51100000D01*
%TO.C,J9*%
X84800000Y-51000000D02*
X87200000Y-51000000D01*
X87200000Y-52000000D02*
X84800000Y-52000000D01*
X87200000Y-52000000D02*
X87200000Y-51900000D01*
X87200000Y-51000000D02*
X87200000Y-51100000D01*
X84800000Y-52000000D02*
X84800000Y-51900000D01*
X84800000Y-51000000D02*
X84800000Y-51100000D01*
%TO.C,J8*%
X75800000Y-58000000D02*
X78200000Y-58000000D01*
X78200000Y-59000000D02*
X75800000Y-59000000D01*
X78200000Y-59000000D02*
X78200000Y-58900000D01*
X78200000Y-58000000D02*
X78200000Y-58100000D01*
X75800000Y-59000000D02*
X75800000Y-58900000D01*
X75800000Y-58000000D02*
X75800000Y-58100000D01*
%TO.C,J7*%
X84800000Y-58000000D02*
X87200000Y-58000000D01*
X87200000Y-59000000D02*
X84800000Y-59000000D01*
X87200000Y-59000000D02*
X87200000Y-58900000D01*
X87200000Y-58000000D02*
X87200000Y-58100000D01*
X84800000Y-59000000D02*
X84800000Y-58900000D01*
X84800000Y-58000000D02*
X84800000Y-58100000D01*
%TO.C,J6*%
X75800000Y-65000000D02*
X78200000Y-65000000D01*
X78200000Y-66000000D02*
X75800000Y-66000000D01*
X78200000Y-66000000D02*
X78200000Y-65900000D01*
X78200000Y-65000000D02*
X78200000Y-65100000D01*
X75800000Y-66000000D02*
X75800000Y-65900000D01*
X75800000Y-65000000D02*
X75800000Y-65100000D01*
%TO.C,J5*%
X84800000Y-65000000D02*
X87200000Y-65000000D01*
X87200000Y-66000000D02*
X84800000Y-66000000D01*
X87200000Y-66000000D02*
X87200000Y-65900000D01*
X87200000Y-65000000D02*
X87200000Y-65100000D01*
X84800000Y-66000000D02*
X84800000Y-65900000D01*
X84800000Y-65000000D02*
X84800000Y-65100000D01*
%TO.C,J4*%
X75800000Y-72000000D02*
X78200000Y-72000000D01*
X78200000Y-73000000D02*
X75800000Y-73000000D01*
X78200000Y-73000000D02*
X78200000Y-72900000D01*
X78200000Y-72000000D02*
X78200000Y-72100000D01*
X75800000Y-73000000D02*
X75800000Y-72900000D01*
X75800000Y-72000000D02*
X75800000Y-72100000D01*
%TO.C,J3*%
X84800000Y-72000000D02*
X87200000Y-72000000D01*
X87200000Y-73000000D02*
X84800000Y-73000000D01*
X87200000Y-73000000D02*
X87200000Y-72900000D01*
X87200000Y-72000000D02*
X87200000Y-72100000D01*
X84800000Y-73000000D02*
X84800000Y-72900000D01*
X84800000Y-72000000D02*
X84800000Y-72100000D01*
%TO.C,J2*%
X75800000Y-79000000D02*
X78200000Y-79000000D01*
X78200000Y-80000000D02*
X75800000Y-80000000D01*
X78200000Y-80000000D02*
X78200000Y-79900000D01*
X78200000Y-79000000D02*
X78200000Y-79100000D01*
X75800000Y-80000000D02*
X75800000Y-79900000D01*
X75800000Y-79000000D02*
X75800000Y-79100000D01*
%TO.C,J1*%
X84800000Y-79000000D02*
X87200000Y-79000000D01*
X87200000Y-80000000D02*
X84800000Y-80000000D01*
X87200000Y-80000000D02*
X87200000Y-79900000D01*
X87200000Y-79000000D02*
X87200000Y-79100000D01*
X84800000Y-80000000D02*
X84800000Y-79900000D01*
X84800000Y-79000000D02*
X84800000Y-79100000D01*
%TO.C,Q24*%
X58300000Y-84600000D02*
X52700000Y-84600000D01*
X52700000Y-79400000D02*
X58300000Y-79400000D01*
X58300000Y-79400000D02*
X58300000Y-79700000D01*
X58300000Y-80500000D02*
X58300000Y-81000000D01*
X58300000Y-81800000D02*
X58300000Y-82200000D01*
X58300000Y-83000000D02*
X58300000Y-83500000D01*
X58300000Y-84600000D02*
X58300000Y-84300000D01*
X52700000Y-79400000D02*
X52700000Y-79700000D01*
X52700000Y-84600000D02*
X52700000Y-84300000D01*
X52700000Y-83500000D02*
X52700000Y-83000000D01*
%TO.C,Q23*%
X49300000Y-84600000D02*
X43700000Y-84600000D01*
X43700000Y-79400000D02*
X49300000Y-79400000D01*
X49300000Y-79400000D02*
X49300000Y-79700000D01*
X49300000Y-80500000D02*
X49300000Y-81000000D01*
X49300000Y-81800000D02*
X49300000Y-82200000D01*
X49300000Y-83000000D02*
X49300000Y-83500000D01*
X49300000Y-84600000D02*
X49300000Y-84300000D01*
X43700000Y-79400000D02*
X43700000Y-79700000D01*
X43700000Y-84600000D02*
X43700000Y-84300000D01*
X43700000Y-83500000D02*
X43700000Y-83000000D01*
%TO.C,Q22*%
X58300000Y-77600000D02*
X52700000Y-77600000D01*
X52700000Y-72400000D02*
X58300000Y-72400000D01*
X58300000Y-72400000D02*
X58300000Y-72700000D01*
X58300000Y-73500000D02*
X58300000Y-74000000D01*
X58300000Y-74800000D02*
X58300000Y-75200000D01*
X58300000Y-76000000D02*
X58300000Y-76500000D01*
X58300000Y-77600000D02*
X58300000Y-77300000D01*
X52700000Y-72400000D02*
X52700000Y-72700000D01*
X52700000Y-77600000D02*
X52700000Y-77300000D01*
X52700000Y-76500000D02*
X52700000Y-76000000D01*
%TO.C,Q21*%
X49300000Y-77600000D02*
X43700000Y-77600000D01*
X43700000Y-72400000D02*
X49300000Y-72400000D01*
X49300000Y-72400000D02*
X49300000Y-72700000D01*
X49300000Y-73500000D02*
X49300000Y-74000000D01*
X49300000Y-74800000D02*
X49300000Y-75200000D01*
X49300000Y-76000000D02*
X49300000Y-76500000D01*
X49300000Y-77600000D02*
X49300000Y-77300000D01*
X43700000Y-72400000D02*
X43700000Y-72700000D01*
X43700000Y-77600000D02*
X43700000Y-77300000D01*
X43700000Y-76500000D02*
X43700000Y-76000000D01*
%TO.C,Q20*%
X58300000Y-70600000D02*
X52700000Y-70600000D01*
X52700000Y-65400000D02*
X58300000Y-65400000D01*
X58300000Y-65400000D02*
X58300000Y-65700000D01*
X58300000Y-66500000D02*
X58300000Y-67000000D01*
X58300000Y-67800000D02*
X58300000Y-68200000D01*
X58300000Y-69000000D02*
X58300000Y-69500000D01*
X58300000Y-70600000D02*
X58300000Y-70300000D01*
X52700000Y-65400000D02*
X52700000Y-65700000D01*
X52700000Y-70600000D02*
X52700000Y-70300000D01*
X52700000Y-69500000D02*
X52700000Y-69000000D01*
%TO.C,Q19*%
X49300000Y-70600000D02*
X43700000Y-70600000D01*
X43700000Y-65400000D02*
X49300000Y-65400000D01*
X49300000Y-65400000D02*
X49300000Y-65700000D01*
X49300000Y-66500000D02*
X49300000Y-67000000D01*
X49300000Y-67800000D02*
X49300000Y-68200000D01*
X49300000Y-69000000D02*
X49300000Y-69500000D01*
X49300000Y-70600000D02*
X49300000Y-70300000D01*
X43700000Y-65400000D02*
X43700000Y-65700000D01*
X43700000Y-70600000D02*
X43700000Y-70300000D01*
X43700000Y-69500000D02*
X43700000Y-69000000D01*
%TO.C,Q18*%
X58300000Y-63600000D02*
X52700000Y-63600000D01*
X52700000Y-58400000D02*
X58300000Y-58400000D01*
X58300000Y-58400000D02*
X58300000Y-58700000D01*
X58300000Y-59500000D02*
X58300000Y-60000000D01*
X58300000Y-60800000D02*
X58300000Y-61200000D01*
X58300000Y-62000000D02*
X58300000Y-62500000D01*
X58300000Y-63600000D02*
X58300000Y-63300000D01*
X52700000Y-58400000D02*
X52700000Y-58700000D01*
X52700000Y-63600000D02*
X52700000Y-63300000D01*
X52700000Y-62500000D02*
X52700000Y-62000000D01*
%TO.C,Q17*%
X49300000Y-63600000D02*
X43700000Y-63600000D01*
X43700000Y-58400000D02*
X49300000Y-58400000D01*
X49300000Y-58400000D02*
X49300000Y-58700000D01*
X49300000Y-59500000D02*
X49300000Y-60000000D01*
X49300000Y-60800000D02*
X49300000Y-61200000D01*
X49300000Y-62000000D02*
X49300000Y-62500000D01*
X49300000Y-63600000D02*
X49300000Y-63300000D01*
X43700000Y-58400000D02*
X43700000Y-58700000D01*
X43700000Y-63600000D02*
X43700000Y-63300000D01*
X43700000Y-62500000D02*
X43700000Y-62000000D01*
%TO.C,Q16*%
X58300000Y-56600000D02*
X52700000Y-56600000D01*
X52700000Y-51400000D02*
X58300000Y-51400000D01*
X58300000Y-51400000D02*
X58300000Y-51700000D01*
X58300000Y-52500000D02*
X58300000Y-53000000D01*
X58300000Y-53800000D02*
X58300000Y-54200000D01*
X58300000Y-55000000D02*
X58300000Y-55500000D01*
X58300000Y-56600000D02*
X58300000Y-56300000D01*
X52700000Y-51400000D02*
X52700000Y-51700000D01*
X52700000Y-56600000D02*
X52700000Y-56300000D01*
X52700000Y-55500000D02*
X52700000Y-55000000D01*
%TO.C,Q15*%
X49300000Y-56600000D02*
X43700000Y-56600000D01*
X43700000Y-51400000D02*
X49300000Y-51400000D01*
X49300000Y-51400000D02*
X49300000Y-51700000D01*
X49300000Y-52500000D02*
X49300000Y-53000000D01*
X49300000Y-53800000D02*
X49300000Y-54200000D01*
X49300000Y-55000000D02*
X49300000Y-55500000D01*
X49300000Y-56600000D02*
X49300000Y-56300000D01*
X43700000Y-51400000D02*
X43700000Y-51700000D01*
X43700000Y-56600000D02*
X43700000Y-56300000D01*
X43700000Y-55500000D02*
X43700000Y-55000000D01*
%TO.C,Q14*%
X58300000Y-49600000D02*
X52700000Y-49600000D01*
X52700000Y-44400000D02*
X58300000Y-44400000D01*
X58300000Y-44400000D02*
X58300000Y-44700000D01*
X58300000Y-45500000D02*
X58300000Y-46000000D01*
X58300000Y-46800000D02*
X58300000Y-47200000D01*
X58300000Y-48000000D02*
X58300000Y-48500000D01*
X58300000Y-49600000D02*
X58300000Y-49300000D01*
X52700000Y-44400000D02*
X52700000Y-44700000D01*
X52700000Y-49600000D02*
X52700000Y-49300000D01*
X52700000Y-48500000D02*
X52700000Y-48000000D01*
%TO.C,Q13*%
X49300000Y-49600000D02*
X43700000Y-49600000D01*
X43700000Y-44400000D02*
X49300000Y-44400000D01*
X49300000Y-44400000D02*
X49300000Y-44700000D01*
X49300000Y-45500000D02*
X49300000Y-46000000D01*
X49300000Y-46800000D02*
X49300000Y-47200000D01*
X49300000Y-48000000D02*
X49300000Y-48500000D01*
X49300000Y-49600000D02*
X49300000Y-49300000D01*
X43700000Y-44400000D02*
X43700000Y-44700000D01*
X43700000Y-49600000D02*
X43700000Y-49300000D01*
X43700000Y-48500000D02*
X43700000Y-48000000D01*
%TO.C,Q12*%
X71700000Y-45400000D02*
X77300000Y-45400000D01*
X77300000Y-50600000D02*
X71700000Y-50600000D01*
X71700000Y-50600000D02*
X71700000Y-50300000D01*
X71700000Y-49500000D02*
X71700000Y-49000000D01*
X71700000Y-48200000D02*
X71700000Y-47800000D01*
X71700000Y-47000000D02*
X71700000Y-46500000D01*
X71700000Y-45400000D02*
X71700000Y-45700000D01*
X77300000Y-50600000D02*
X77300000Y-50300000D01*
X77300000Y-45400000D02*
X77300000Y-45700000D01*
X77300000Y-46500000D02*
X77300000Y-47000000D01*
%TO.C,Q11*%
X80700000Y-45400000D02*
X86300000Y-45400000D01*
X86300000Y-50600000D02*
X80700000Y-50600000D01*
X80700000Y-50600000D02*
X80700000Y-50300000D01*
X80700000Y-49500000D02*
X80700000Y-49000000D01*
X80700000Y-48200000D02*
X80700000Y-47800000D01*
X80700000Y-47000000D02*
X80700000Y-46500000D01*
X80700000Y-45400000D02*
X80700000Y-45700000D01*
X86300000Y-50600000D02*
X86300000Y-50300000D01*
X86300000Y-45400000D02*
X86300000Y-45700000D01*
X86300000Y-46500000D02*
X86300000Y-47000000D01*
%TO.C,Q10*%
X71700000Y-52400000D02*
X77300000Y-52400000D01*
X77300000Y-57600000D02*
X71700000Y-57600000D01*
X71700000Y-57600000D02*
X71700000Y-57300000D01*
X71700000Y-56500000D02*
X71700000Y-56000000D01*
X71700000Y-55200000D02*
X71700000Y-54800000D01*
X71700000Y-54000000D02*
X71700000Y-53500000D01*
X71700000Y-52400000D02*
X71700000Y-52700000D01*
X77300000Y-57600000D02*
X77300000Y-57300000D01*
X77300000Y-52400000D02*
X77300000Y-52700000D01*
X77300000Y-53500000D02*
X77300000Y-54000000D01*
%TO.C,Q9*%
X80700000Y-52400000D02*
X86300000Y-52400000D01*
X86300000Y-57600000D02*
X80700000Y-57600000D01*
X80700000Y-57600000D02*
X80700000Y-57300000D01*
X80700000Y-56500000D02*
X80700000Y-56000000D01*
X80700000Y-55200000D02*
X80700000Y-54800000D01*
X80700000Y-54000000D02*
X80700000Y-53500000D01*
X80700000Y-52400000D02*
X80700000Y-52700000D01*
X86300000Y-57600000D02*
X86300000Y-57300000D01*
X86300000Y-52400000D02*
X86300000Y-52700000D01*
X86300000Y-53500000D02*
X86300000Y-54000000D01*
%TO.C,Q8*%
X71700000Y-59400000D02*
X77300000Y-59400000D01*
X77300000Y-64600000D02*
X71700000Y-64600000D01*
X71700000Y-64600000D02*
X71700000Y-64300000D01*
X71700000Y-63500000D02*
X71700000Y-63000000D01*
X71700000Y-62200000D02*
X71700000Y-61800000D01*
X71700000Y-61000000D02*
X71700000Y-60500000D01*
X71700000Y-59400000D02*
X71700000Y-59700000D01*
X77300000Y-64600000D02*
X77300000Y-64300000D01*
X77300000Y-59400000D02*
X77300000Y-59700000D01*
X77300000Y-60500000D02*
X77300000Y-61000000D01*
%TO.C,Q7*%
X80700000Y-59400000D02*
X86300000Y-59400000D01*
X86300000Y-64600000D02*
X80700000Y-64600000D01*
X80700000Y-64600000D02*
X80700000Y-64300000D01*
X80700000Y-63500000D02*
X80700000Y-63000000D01*
X80700000Y-62200000D02*
X80700000Y-61800000D01*
X80700000Y-61000000D02*
X80700000Y-60500000D01*
X80700000Y-59400000D02*
X80700000Y-59700000D01*
X86300000Y-64600000D02*
X86300000Y-64300000D01*
X86300000Y-59400000D02*
X86300000Y-59700000D01*
X86300000Y-60500000D02*
X86300000Y-61000000D01*
%TO.C,Q6*%
X71700000Y-66400000D02*
X77300000Y-66400000D01*
X77300000Y-71600000D02*
X71700000Y-71600000D01*
X71700000Y-71600000D02*
X71700000Y-71300000D01*
X71700000Y-70500000D02*
X71700000Y-70000000D01*
X71700000Y-69200000D02*
X71700000Y-68800000D01*
X71700000Y-68000000D02*
X71700000Y-67500000D01*
X71700000Y-66400000D02*
X71700000Y-66700000D01*
X77300000Y-71600000D02*
X77300000Y-71300000D01*
X77300000Y-66400000D02*
X77300000Y-66700000D01*
X77300000Y-67500000D02*
X77300000Y-68000000D01*
%TO.C,Q5*%
X80700000Y-66400000D02*
X86300000Y-66400000D01*
X86300000Y-71600000D02*
X80700000Y-71600000D01*
X80700000Y-71600000D02*
X80700000Y-71300000D01*
X80700000Y-70500000D02*
X80700000Y-70000000D01*
X80700000Y-69200000D02*
X80700000Y-68800000D01*
X80700000Y-68000000D02*
X80700000Y-67500000D01*
X80700000Y-66400000D02*
X80700000Y-66700000D01*
X86300000Y-71600000D02*
X86300000Y-71300000D01*
X86300000Y-66400000D02*
X86300000Y-66700000D01*
X86300000Y-67500000D02*
X86300000Y-68000000D01*
%TO.C,Q4*%
X71700000Y-73400000D02*
X77300000Y-73400000D01*
X77300000Y-78600000D02*
X71700000Y-78600000D01*
X71700000Y-78600000D02*
X71700000Y-78300000D01*
X71700000Y-77500000D02*
X71700000Y-77000000D01*
X71700000Y-76200000D02*
X71700000Y-75800000D01*
X71700000Y-75000000D02*
X71700000Y-74500000D01*
X71700000Y-73400000D02*
X71700000Y-73700000D01*
X77300000Y-78600000D02*
X77300000Y-78300000D01*
X77300000Y-73400000D02*
X77300000Y-73700000D01*
X77300000Y-74500000D02*
X77300000Y-75000000D01*
%TO.C,Q3*%
X80700000Y-73400000D02*
X86300000Y-73400000D01*
X86300000Y-78600000D02*
X80700000Y-78600000D01*
X80700000Y-78600000D02*
X80700000Y-78300000D01*
X80700000Y-77500000D02*
X80700000Y-77000000D01*
X80700000Y-76200000D02*
X80700000Y-75800000D01*
X80700000Y-75000000D02*
X80700000Y-74500000D01*
X80700000Y-73400000D02*
X80700000Y-73700000D01*
X86300000Y-78600000D02*
X86300000Y-78300000D01*
X86300000Y-73400000D02*
X86300000Y-73700000D01*
X86300000Y-74500000D02*
X86300000Y-75000000D01*
%TO.C,Q2*%
X71700000Y-80400000D02*
X77300000Y-80400000D01*
X77300000Y-85600000D02*
X71700000Y-85600000D01*
X71700000Y-85600000D02*
X71700000Y-85300000D01*
X71700000Y-84500000D02*
X71700000Y-84000000D01*
X71700000Y-83200000D02*
X71700000Y-82800000D01*
X71700000Y-82000000D02*
X71700000Y-81500000D01*
X71700000Y-80400000D02*
X71700000Y-80700000D01*
X77300000Y-85600000D02*
X77300000Y-85300000D01*
X77300000Y-80400000D02*
X77300000Y-80700000D01*
X77300000Y-81500000D02*
X77300000Y-82000000D01*
%TO.C,Q1*%
X80700000Y-80400000D02*
X86300000Y-80400000D01*
X86300000Y-85600000D02*
X80700000Y-85600000D01*
X80700000Y-85600000D02*
X80700000Y-85300000D01*
X80700000Y-84500000D02*
X80700000Y-84000000D01*
X80700000Y-83200000D02*
X80700000Y-82800000D01*
X80700000Y-82000000D02*
X80700000Y-81500000D01*
X80700000Y-80400000D02*
X80700000Y-80700000D01*
X86300000Y-85600000D02*
X86300000Y-85300000D01*
X86300000Y-80400000D02*
X86300000Y-80700000D01*
X86300000Y-81500000D02*
X86300000Y-82000000D01*
%TO.C,MB1*%
D13*
X127690476Y-124452380D02*
X127690476Y-123452380D01*
X128023809Y-124166666D01*
X128357142Y-123452380D01*
X128357142Y-124452380D01*
X129166666Y-123928571D02*
X129309523Y-123976190D01*
X129357142Y-124023809D01*
X129404761Y-124119047D01*
X129404761Y-124261904D01*
X129357142Y-124357142D01*
X129309523Y-124404761D01*
X129214285Y-124452380D01*
X128833333Y-124452380D01*
X128833333Y-123452380D01*
X129166666Y-123452380D01*
X129261904Y-123500000D01*
X129309523Y-123547619D01*
X129357142Y-123642857D01*
X129357142Y-123738095D01*
X129309523Y-123833333D01*
X129261904Y-123880952D01*
X129166666Y-123928571D01*
X128833333Y-123928571D01*
X130357142Y-124452380D02*
X129785714Y-124452380D01*
X130071428Y-124452380D02*
X130071428Y-123452380D01*
X129976190Y-123595238D01*
X129880952Y-123690476D01*
X129785714Y-123738095D01*
X77690476Y-124452380D02*
X77690476Y-123452380D01*
X78023809Y-124166666D01*
X78357142Y-123452380D01*
X78357142Y-124452380D01*
X79166666Y-123928571D02*
X79309523Y-123976190D01*
X79357142Y-124023809D01*
X79404761Y-124119047D01*
X79404761Y-124261904D01*
X79357142Y-124357142D01*
X79309523Y-124404761D01*
X79214285Y-124452380D01*
X78833333Y-124452380D01*
X78833333Y-123452380D01*
X79166666Y-123452380D01*
X79261904Y-123500000D01*
X79309523Y-123547619D01*
X79357142Y-123642857D01*
X79357142Y-123738095D01*
X79309523Y-123833333D01*
X79261904Y-123880952D01*
X79166666Y-123928571D01*
X78833333Y-123928571D01*
X80357142Y-124452380D02*
X79785714Y-124452380D01*
X80071428Y-124452380D02*
X80071428Y-123452380D01*
X79976190Y-123595238D01*
X79880952Y-123690476D01*
X79785714Y-123738095D01*
X127690476Y-74452380D02*
X127690476Y-73452380D01*
X128023809Y-74166666D01*
X128357142Y-73452380D01*
X128357142Y-74452380D01*
X129166666Y-73928571D02*
X129309523Y-73976190D01*
X129357142Y-74023809D01*
X129404761Y-74119047D01*
X129404761Y-74261904D01*
X129357142Y-74357142D01*
X129309523Y-74404761D01*
X129214285Y-74452380D01*
X128833333Y-74452380D01*
X128833333Y-73452380D01*
X129166666Y-73452380D01*
X129261904Y-73500000D01*
X129309523Y-73547619D01*
X129357142Y-73642857D01*
X129357142Y-73738095D01*
X129309523Y-73833333D01*
X129261904Y-73880952D01*
X129166666Y-73928571D01*
X128833333Y-73928571D01*
X130357142Y-74452380D02*
X129785714Y-74452380D01*
X130071428Y-74452380D02*
X130071428Y-73452380D01*
X129976190Y-73595238D01*
X129880952Y-73690476D01*
X129785714Y-73738095D01*
%TO.C,MC2*%
X127690476Y-96452380D02*
X127690476Y-95452380D01*
X128023809Y-96166666D01*
X128357142Y-95452380D01*
X128357142Y-96452380D01*
X129404761Y-96357142D02*
X129357142Y-96404761D01*
X129214285Y-96452380D01*
X129119047Y-96452380D01*
X128976190Y-96404761D01*
X128880952Y-96309523D01*
X128833333Y-96214285D01*
X128785714Y-96023809D01*
X128785714Y-95880952D01*
X128833333Y-95690476D01*
X128880952Y-95595238D01*
X128976190Y-95500000D01*
X129119047Y-95452380D01*
X129214285Y-95452380D01*
X129357142Y-95500000D01*
X129404761Y-95547619D01*
X129785714Y-95547619D02*
X129833333Y-95500000D01*
X129928571Y-95452380D01*
X130166666Y-95452380D01*
X130261904Y-95500000D01*
X130309523Y-95547619D01*
X130357142Y-95642857D01*
X130357142Y-95738095D01*
X130309523Y-95880952D01*
X129738095Y-96452380D01*
X130357142Y-96452380D01*
X77690476Y-96452380D02*
X77690476Y-95452380D01*
X78023809Y-96166666D01*
X78357142Y-95452380D01*
X78357142Y-96452380D01*
X79404761Y-96357142D02*
X79357142Y-96404761D01*
X79214285Y-96452380D01*
X79119047Y-96452380D01*
X78976190Y-96404761D01*
X78880952Y-96309523D01*
X78833333Y-96214285D01*
X78785714Y-96023809D01*
X78785714Y-95880952D01*
X78833333Y-95690476D01*
X78880952Y-95595238D01*
X78976190Y-95500000D01*
X79119047Y-95452380D01*
X79214285Y-95452380D01*
X79357142Y-95500000D01*
X79404761Y-95547619D01*
X79785714Y-95547619D02*
X79833333Y-95500000D01*
X79928571Y-95452380D01*
X80166666Y-95452380D01*
X80261904Y-95500000D01*
X80309523Y-95547619D01*
X80357142Y-95642857D01*
X80357142Y-95738095D01*
X80309523Y-95880952D01*
X79738095Y-96452380D01*
X80357142Y-96452380D01*
X127690476Y-46452380D02*
X127690476Y-45452380D01*
X128023809Y-46166666D01*
X128357142Y-45452380D01*
X128357142Y-46452380D01*
X129404761Y-46357142D02*
X129357142Y-46404761D01*
X129214285Y-46452380D01*
X129119047Y-46452380D01*
X128976190Y-46404761D01*
X128880952Y-46309523D01*
X128833333Y-46214285D01*
X128785714Y-46023809D01*
X128785714Y-45880952D01*
X128833333Y-45690476D01*
X128880952Y-45595238D01*
X128976190Y-45500000D01*
X129119047Y-45452380D01*
X129214285Y-45452380D01*
X129357142Y-45500000D01*
X129404761Y-45547619D01*
X129785714Y-45547619D02*
X129833333Y-45500000D01*
X129928571Y-45452380D01*
X130166666Y-45452380D01*
X130261904Y-45500000D01*
X130309523Y-45547619D01*
X130357142Y-45642857D01*
X130357142Y-45738095D01*
X130309523Y-45880952D01*
X129738095Y-46452380D01*
X130357142Y-46452380D01*
%TO.C,MA4*%
X99761904Y-120452380D02*
X99761904Y-119452380D01*
X100095238Y-120166666D01*
X100428571Y-119452380D01*
X100428571Y-120452380D01*
X100857142Y-120166666D02*
X101333333Y-120166666D01*
X100761904Y-120452380D02*
X101095238Y-119452380D01*
X101428571Y-120452380D01*
X102190476Y-119785714D02*
X102190476Y-120452380D01*
X101952380Y-119404761D02*
X101714285Y-120119047D01*
X102333333Y-120119047D01*
X49761904Y-120452380D02*
X49761904Y-119452380D01*
X50095238Y-120166666D01*
X50428571Y-119452380D01*
X50428571Y-120452380D01*
X50857142Y-120166666D02*
X51333333Y-120166666D01*
X50761904Y-120452380D02*
X51095238Y-119452380D01*
X51428571Y-120452380D01*
X52190476Y-119785714D02*
X52190476Y-120452380D01*
X51952380Y-119404761D02*
X51714285Y-120119047D01*
X52333333Y-120119047D01*
X99761904Y-70452380D02*
X99761904Y-69452380D01*
X100095238Y-70166666D01*
X100428571Y-69452380D01*
X100428571Y-70452380D01*
X100857142Y-70166666D02*
X101333333Y-70166666D01*
X100761904Y-70452380D02*
X101095238Y-69452380D01*
X101428571Y-70452380D01*
X102190476Y-69785714D02*
X102190476Y-70452380D01*
X101952380Y-69404761D02*
X101714285Y-70119047D01*
X102333333Y-70119047D01*
%TO.C,MC3*%
X99690476Y-113452380D02*
X99690476Y-112452380D01*
X100023809Y-113166666D01*
X100357142Y-112452380D01*
X100357142Y-113452380D01*
X101404761Y-113357142D02*
X101357142Y-113404761D01*
X101214285Y-113452380D01*
X101119047Y-113452380D01*
X100976190Y-113404761D01*
X100880952Y-113309523D01*
X100833333Y-113214285D01*
X100785714Y-113023809D01*
X100785714Y-112880952D01*
X100833333Y-112690476D01*
X100880952Y-112595238D01*
X100976190Y-112500000D01*
X101119047Y-112452380D01*
X101214285Y-112452380D01*
X101357142Y-112500000D01*
X101404761Y-112547619D01*
X101738095Y-112452380D02*
X102357142Y-112452380D01*
X102023809Y-112833333D01*
X102166666Y-112833333D01*
X102261904Y-112880952D01*
X102309523Y-112928571D01*
X102357142Y-113023809D01*
X102357142Y-113261904D01*
X102309523Y-113357142D01*
X102261904Y-113404761D01*
X102166666Y-113452380D01*
X101880952Y-113452380D01*
X101785714Y-113404761D01*
X101738095Y-113357142D01*
X49690476Y-113452380D02*
X49690476Y-112452380D01*
X50023809Y-113166666D01*
X50357142Y-112452380D01*
X50357142Y-113452380D01*
X51404761Y-113357142D02*
X51357142Y-113404761D01*
X51214285Y-113452380D01*
X51119047Y-113452380D01*
X50976190Y-113404761D01*
X50880952Y-113309523D01*
X50833333Y-113214285D01*
X50785714Y-113023809D01*
X50785714Y-112880952D01*
X50833333Y-112690476D01*
X50880952Y-112595238D01*
X50976190Y-112500000D01*
X51119047Y-112452380D01*
X51214285Y-112452380D01*
X51357142Y-112500000D01*
X51404761Y-112547619D01*
X51738095Y-112452380D02*
X52357142Y-112452380D01*
X52023809Y-112833333D01*
X52166666Y-112833333D01*
X52261904Y-112880952D01*
X52309523Y-112928571D01*
X52357142Y-113023809D01*
X52357142Y-113261904D01*
X52309523Y-113357142D01*
X52261904Y-113404761D01*
X52166666Y-113452380D01*
X51880952Y-113452380D01*
X51785714Y-113404761D01*
X51738095Y-113357142D01*
X99690476Y-63452380D02*
X99690476Y-62452380D01*
X100023809Y-63166666D01*
X100357142Y-62452380D01*
X100357142Y-63452380D01*
X101404761Y-63357142D02*
X101357142Y-63404761D01*
X101214285Y-63452380D01*
X101119047Y-63452380D01*
X100976190Y-63404761D01*
X100880952Y-63309523D01*
X100833333Y-63214285D01*
X100785714Y-63023809D01*
X100785714Y-62880952D01*
X100833333Y-62690476D01*
X100880952Y-62595238D01*
X100976190Y-62500000D01*
X101119047Y-62452380D01*
X101214285Y-62452380D01*
X101357142Y-62500000D01*
X101404761Y-62547619D01*
X101738095Y-62452380D02*
X102357142Y-62452380D01*
X102023809Y-62833333D01*
X102166666Y-62833333D01*
X102261904Y-62880952D01*
X102309523Y-62928571D01*
X102357142Y-63023809D01*
X102357142Y-63261904D01*
X102309523Y-63357142D01*
X102261904Y-63404761D01*
X102166666Y-63452380D01*
X101880952Y-63452380D01*
X101785714Y-63404761D01*
X101738095Y-63357142D01*
%TO.C,MB3*%
X99690476Y-106452380D02*
X99690476Y-105452380D01*
X100023809Y-106166666D01*
X100357142Y-105452380D01*
X100357142Y-106452380D01*
X101166666Y-105928571D02*
X101309523Y-105976190D01*
X101357142Y-106023809D01*
X101404761Y-106119047D01*
X101404761Y-106261904D01*
X101357142Y-106357142D01*
X101309523Y-106404761D01*
X101214285Y-106452380D01*
X100833333Y-106452380D01*
X100833333Y-105452380D01*
X101166666Y-105452380D01*
X101261904Y-105500000D01*
X101309523Y-105547619D01*
X101357142Y-105642857D01*
X101357142Y-105738095D01*
X101309523Y-105833333D01*
X101261904Y-105880952D01*
X101166666Y-105928571D01*
X100833333Y-105928571D01*
X101738095Y-105452380D02*
X102357142Y-105452380D01*
X102023809Y-105833333D01*
X102166666Y-105833333D01*
X102261904Y-105880952D01*
X102309523Y-105928571D01*
X102357142Y-106023809D01*
X102357142Y-106261904D01*
X102309523Y-106357142D01*
X102261904Y-106404761D01*
X102166666Y-106452380D01*
X101880952Y-106452380D01*
X101785714Y-106404761D01*
X101738095Y-106357142D01*
X49690476Y-106452380D02*
X49690476Y-105452380D01*
X50023809Y-106166666D01*
X50357142Y-105452380D01*
X50357142Y-106452380D01*
X51166666Y-105928571D02*
X51309523Y-105976190D01*
X51357142Y-106023809D01*
X51404761Y-106119047D01*
X51404761Y-106261904D01*
X51357142Y-106357142D01*
X51309523Y-106404761D01*
X51214285Y-106452380D01*
X50833333Y-106452380D01*
X50833333Y-105452380D01*
X51166666Y-105452380D01*
X51261904Y-105500000D01*
X51309523Y-105547619D01*
X51357142Y-105642857D01*
X51357142Y-105738095D01*
X51309523Y-105833333D01*
X51261904Y-105880952D01*
X51166666Y-105928571D01*
X50833333Y-105928571D01*
X51738095Y-105452380D02*
X52357142Y-105452380D01*
X52023809Y-105833333D01*
X52166666Y-105833333D01*
X52261904Y-105880952D01*
X52309523Y-105928571D01*
X52357142Y-106023809D01*
X52357142Y-106261904D01*
X52309523Y-106357142D01*
X52261904Y-106404761D01*
X52166666Y-106452380D01*
X51880952Y-106452380D01*
X51785714Y-106404761D01*
X51738095Y-106357142D01*
X99690476Y-56452380D02*
X99690476Y-55452380D01*
X100023809Y-56166666D01*
X100357142Y-55452380D01*
X100357142Y-56452380D01*
X101166666Y-55928571D02*
X101309523Y-55976190D01*
X101357142Y-56023809D01*
X101404761Y-56119047D01*
X101404761Y-56261904D01*
X101357142Y-56357142D01*
X101309523Y-56404761D01*
X101214285Y-56452380D01*
X100833333Y-56452380D01*
X100833333Y-55452380D01*
X101166666Y-55452380D01*
X101261904Y-55500000D01*
X101309523Y-55547619D01*
X101357142Y-55642857D01*
X101357142Y-55738095D01*
X101309523Y-55833333D01*
X101261904Y-55880952D01*
X101166666Y-55928571D01*
X100833333Y-55928571D01*
X101738095Y-55452380D02*
X102357142Y-55452380D01*
X102023809Y-55833333D01*
X102166666Y-55833333D01*
X102261904Y-55880952D01*
X102309523Y-55928571D01*
X102357142Y-56023809D01*
X102357142Y-56261904D01*
X102309523Y-56357142D01*
X102261904Y-56404761D01*
X102166666Y-56452380D01*
X101880952Y-56452380D01*
X101785714Y-56404761D01*
X101738095Y-56357142D01*
%TO.C,MA3*%
X99761904Y-99452380D02*
X99761904Y-98452380D01*
X100095238Y-99166666D01*
X100428571Y-98452380D01*
X100428571Y-99452380D01*
X100857142Y-99166666D02*
X101333333Y-99166666D01*
X100761904Y-99452380D02*
X101095238Y-98452380D01*
X101428571Y-99452380D01*
X101666666Y-98452380D02*
X102285714Y-98452380D01*
X101952380Y-98833333D01*
X102095238Y-98833333D01*
X102190476Y-98880952D01*
X102238095Y-98928571D01*
X102285714Y-99023809D01*
X102285714Y-99261904D01*
X102238095Y-99357142D01*
X102190476Y-99404761D01*
X102095238Y-99452380D01*
X101809523Y-99452380D01*
X101714285Y-99404761D01*
X101666666Y-99357142D01*
X49761904Y-99452380D02*
X49761904Y-98452380D01*
X50095238Y-99166666D01*
X50428571Y-98452380D01*
X50428571Y-99452380D01*
X50857142Y-99166666D02*
X51333333Y-99166666D01*
X50761904Y-99452380D02*
X51095238Y-98452380D01*
X51428571Y-99452380D01*
X51666666Y-98452380D02*
X52285714Y-98452380D01*
X51952380Y-98833333D01*
X52095238Y-98833333D01*
X52190476Y-98880952D01*
X52238095Y-98928571D01*
X52285714Y-99023809D01*
X52285714Y-99261904D01*
X52238095Y-99357142D01*
X52190476Y-99404761D01*
X52095238Y-99452380D01*
X51809523Y-99452380D01*
X51714285Y-99404761D01*
X51666666Y-99357142D01*
X99761904Y-49452380D02*
X99761904Y-48452380D01*
X100095238Y-49166666D01*
X100428571Y-48452380D01*
X100428571Y-49452380D01*
X100857142Y-49166666D02*
X101333333Y-49166666D01*
X100761904Y-49452380D02*
X101095238Y-48452380D01*
X101428571Y-49452380D01*
X101666666Y-48452380D02*
X102285714Y-48452380D01*
X101952380Y-48833333D01*
X102095238Y-48833333D01*
X102190476Y-48880952D01*
X102238095Y-48928571D01*
X102285714Y-49023809D01*
X102285714Y-49261904D01*
X102238095Y-49357142D01*
X102190476Y-49404761D01*
X102095238Y-49452380D01*
X101809523Y-49452380D01*
X101714285Y-49404761D01*
X101666666Y-49357142D01*
%TO.C,MA1*%
X127761904Y-131452380D02*
X127761904Y-130452380D01*
X128095238Y-131166666D01*
X128428571Y-130452380D01*
X128428571Y-131452380D01*
X128857142Y-131166666D02*
X129333333Y-131166666D01*
X128761904Y-131452380D02*
X129095238Y-130452380D01*
X129428571Y-131452380D01*
X130285714Y-131452380D02*
X129714285Y-131452380D01*
X130000000Y-131452380D02*
X130000000Y-130452380D01*
X129904761Y-130595238D01*
X129809523Y-130690476D01*
X129714285Y-130738095D01*
X77761904Y-131452380D02*
X77761904Y-130452380D01*
X78095238Y-131166666D01*
X78428571Y-130452380D01*
X78428571Y-131452380D01*
X78857142Y-131166666D02*
X79333333Y-131166666D01*
X78761904Y-131452380D02*
X79095238Y-130452380D01*
X79428571Y-131452380D01*
X80285714Y-131452380D02*
X79714285Y-131452380D01*
X80000000Y-131452380D02*
X80000000Y-130452380D01*
X79904761Y-130595238D01*
X79809523Y-130690476D01*
X79714285Y-130738095D01*
X127761904Y-81452380D02*
X127761904Y-80452380D01*
X128095238Y-81166666D01*
X128428571Y-80452380D01*
X128428571Y-81452380D01*
X128857142Y-81166666D02*
X129333333Y-81166666D01*
X128761904Y-81452380D02*
X129095238Y-80452380D01*
X129428571Y-81452380D01*
X130285714Y-81452380D02*
X129714285Y-81452380D01*
X130000000Y-81452380D02*
X130000000Y-80452380D01*
X129904761Y-80595238D01*
X129809523Y-80690476D01*
X129714285Y-80738095D01*
%TO.C,MB2*%
X127690476Y-103452380D02*
X127690476Y-102452380D01*
X128023809Y-103166666D01*
X128357142Y-102452380D01*
X128357142Y-103452380D01*
X129166666Y-102928571D02*
X129309523Y-102976190D01*
X129357142Y-103023809D01*
X129404761Y-103119047D01*
X129404761Y-103261904D01*
X129357142Y-103357142D01*
X129309523Y-103404761D01*
X129214285Y-103452380D01*
X128833333Y-103452380D01*
X128833333Y-102452380D01*
X129166666Y-102452380D01*
X129261904Y-102500000D01*
X129309523Y-102547619D01*
X129357142Y-102642857D01*
X129357142Y-102738095D01*
X129309523Y-102833333D01*
X129261904Y-102880952D01*
X129166666Y-102928571D01*
X128833333Y-102928571D01*
X129785714Y-102547619D02*
X129833333Y-102500000D01*
X129928571Y-102452380D01*
X130166666Y-102452380D01*
X130261904Y-102500000D01*
X130309523Y-102547619D01*
X130357142Y-102642857D01*
X130357142Y-102738095D01*
X130309523Y-102880952D01*
X129738095Y-103452380D01*
X130357142Y-103452380D01*
X77690476Y-103452380D02*
X77690476Y-102452380D01*
X78023809Y-103166666D01*
X78357142Y-102452380D01*
X78357142Y-103452380D01*
X79166666Y-102928571D02*
X79309523Y-102976190D01*
X79357142Y-103023809D01*
X79404761Y-103119047D01*
X79404761Y-103261904D01*
X79357142Y-103357142D01*
X79309523Y-103404761D01*
X79214285Y-103452380D01*
X78833333Y-103452380D01*
X78833333Y-102452380D01*
X79166666Y-102452380D01*
X79261904Y-102500000D01*
X79309523Y-102547619D01*
X79357142Y-102642857D01*
X79357142Y-102738095D01*
X79309523Y-102833333D01*
X79261904Y-102880952D01*
X79166666Y-102928571D01*
X78833333Y-102928571D01*
X79785714Y-102547619D02*
X79833333Y-102500000D01*
X79928571Y-102452380D01*
X80166666Y-102452380D01*
X80261904Y-102500000D01*
X80309523Y-102547619D01*
X80357142Y-102642857D01*
X80357142Y-102738095D01*
X80309523Y-102880952D01*
X79738095Y-103452380D01*
X80357142Y-103452380D01*
X127690476Y-53452380D02*
X127690476Y-52452380D01*
X128023809Y-53166666D01*
X128357142Y-52452380D01*
X128357142Y-53452380D01*
X129166666Y-52928571D02*
X129309523Y-52976190D01*
X129357142Y-53023809D01*
X129404761Y-53119047D01*
X129404761Y-53261904D01*
X129357142Y-53357142D01*
X129309523Y-53404761D01*
X129214285Y-53452380D01*
X128833333Y-53452380D01*
X128833333Y-52452380D01*
X129166666Y-52452380D01*
X129261904Y-52500000D01*
X129309523Y-52547619D01*
X129357142Y-52642857D01*
X129357142Y-52738095D01*
X129309523Y-52833333D01*
X129261904Y-52880952D01*
X129166666Y-52928571D01*
X128833333Y-52928571D01*
X129785714Y-52547619D02*
X129833333Y-52500000D01*
X129928571Y-52452380D01*
X130166666Y-52452380D01*
X130261904Y-52500000D01*
X130309523Y-52547619D01*
X130357142Y-52642857D01*
X130357142Y-52738095D01*
X130309523Y-52880952D01*
X129738095Y-53452380D01*
X130357142Y-53452380D01*
%TO.C,MB4*%
X99690476Y-127452380D02*
X99690476Y-126452380D01*
X100023809Y-127166666D01*
X100357142Y-126452380D01*
X100357142Y-127452380D01*
X101166666Y-126928571D02*
X101309523Y-126976190D01*
X101357142Y-127023809D01*
X101404761Y-127119047D01*
X101404761Y-127261904D01*
X101357142Y-127357142D01*
X101309523Y-127404761D01*
X101214285Y-127452380D01*
X100833333Y-127452380D01*
X100833333Y-126452380D01*
X101166666Y-126452380D01*
X101261904Y-126500000D01*
X101309523Y-126547619D01*
X101357142Y-126642857D01*
X101357142Y-126738095D01*
X101309523Y-126833333D01*
X101261904Y-126880952D01*
X101166666Y-126928571D01*
X100833333Y-126928571D01*
X102261904Y-126785714D02*
X102261904Y-127452380D01*
X102023809Y-126404761D02*
X101785714Y-127119047D01*
X102404761Y-127119047D01*
X49690476Y-127452380D02*
X49690476Y-126452380D01*
X50023809Y-127166666D01*
X50357142Y-126452380D01*
X50357142Y-127452380D01*
X51166666Y-126928571D02*
X51309523Y-126976190D01*
X51357142Y-127023809D01*
X51404761Y-127119047D01*
X51404761Y-127261904D01*
X51357142Y-127357142D01*
X51309523Y-127404761D01*
X51214285Y-127452380D01*
X50833333Y-127452380D01*
X50833333Y-126452380D01*
X51166666Y-126452380D01*
X51261904Y-126500000D01*
X51309523Y-126547619D01*
X51357142Y-126642857D01*
X51357142Y-126738095D01*
X51309523Y-126833333D01*
X51261904Y-126880952D01*
X51166666Y-126928571D01*
X50833333Y-126928571D01*
X52261904Y-126785714D02*
X52261904Y-127452380D01*
X52023809Y-126404761D02*
X51785714Y-127119047D01*
X52404761Y-127119047D01*
X99690476Y-77452380D02*
X99690476Y-76452380D01*
X100023809Y-77166666D01*
X100357142Y-76452380D01*
X100357142Y-77452380D01*
X101166666Y-76928571D02*
X101309523Y-76976190D01*
X101357142Y-77023809D01*
X101404761Y-77119047D01*
X101404761Y-77261904D01*
X101357142Y-77357142D01*
X101309523Y-77404761D01*
X101214285Y-77452380D01*
X100833333Y-77452380D01*
X100833333Y-76452380D01*
X101166666Y-76452380D01*
X101261904Y-76500000D01*
X101309523Y-76547619D01*
X101357142Y-76642857D01*
X101357142Y-76738095D01*
X101309523Y-76833333D01*
X101261904Y-76880952D01*
X101166666Y-76928571D01*
X100833333Y-76928571D01*
X102261904Y-76785714D02*
X102261904Y-77452380D01*
X102023809Y-76404761D02*
X101785714Y-77119047D01*
X102404761Y-77119047D01*
%TO.C,JB0*%
X122166666Y-135952380D02*
X122166666Y-136666666D01*
X122119047Y-136809523D01*
X122023809Y-136904761D01*
X121880952Y-136952380D01*
X121785714Y-136952380D01*
X122976190Y-136428571D02*
X123119047Y-136476190D01*
X123166666Y-136523809D01*
X123214285Y-136619047D01*
X123214285Y-136761904D01*
X123166666Y-136857142D01*
X123119047Y-136904761D01*
X123023809Y-136952380D01*
X122642857Y-136952380D01*
X122642857Y-135952380D01*
X122976190Y-135952380D01*
X123071428Y-136000000D01*
X123119047Y-136047619D01*
X123166666Y-136142857D01*
X123166666Y-136238095D01*
X123119047Y-136333333D01*
X123071428Y-136380952D01*
X122976190Y-136428571D01*
X122642857Y-136428571D01*
X123833333Y-135952380D02*
X123928571Y-135952380D01*
X124023809Y-136000000D01*
X124071428Y-136047619D01*
X124119047Y-136142857D01*
X124166666Y-136333333D01*
X124166666Y-136571428D01*
X124119047Y-136761904D01*
X124071428Y-136857142D01*
X124023809Y-136904761D01*
X123928571Y-136952380D01*
X123833333Y-136952380D01*
X123738095Y-136904761D01*
X123690476Y-136857142D01*
X123642857Y-136761904D01*
X123595238Y-136571428D01*
X123595238Y-136333333D01*
X123642857Y-136142857D01*
X123690476Y-136047619D01*
X123738095Y-136000000D01*
X123833333Y-135952380D01*
X72166666Y-135952380D02*
X72166666Y-136666666D01*
X72119047Y-136809523D01*
X72023809Y-136904761D01*
X71880952Y-136952380D01*
X71785714Y-136952380D01*
X72976190Y-136428571D02*
X73119047Y-136476190D01*
X73166666Y-136523809D01*
X73214285Y-136619047D01*
X73214285Y-136761904D01*
X73166666Y-136857142D01*
X73119047Y-136904761D01*
X73023809Y-136952380D01*
X72642857Y-136952380D01*
X72642857Y-135952380D01*
X72976190Y-135952380D01*
X73071428Y-136000000D01*
X73119047Y-136047619D01*
X73166666Y-136142857D01*
X73166666Y-136238095D01*
X73119047Y-136333333D01*
X73071428Y-136380952D01*
X72976190Y-136428571D01*
X72642857Y-136428571D01*
X73833333Y-135952380D02*
X73928571Y-135952380D01*
X74023809Y-136000000D01*
X74071428Y-136047619D01*
X74119047Y-136142857D01*
X74166666Y-136333333D01*
X74166666Y-136571428D01*
X74119047Y-136761904D01*
X74071428Y-136857142D01*
X74023809Y-136904761D01*
X73928571Y-136952380D01*
X73833333Y-136952380D01*
X73738095Y-136904761D01*
X73690476Y-136857142D01*
X73642857Y-136761904D01*
X73595238Y-136571428D01*
X73595238Y-136333333D01*
X73642857Y-136142857D01*
X73690476Y-136047619D01*
X73738095Y-136000000D01*
X73833333Y-135952380D01*
X122166666Y-85952380D02*
X122166666Y-86666666D01*
X122119047Y-86809523D01*
X122023809Y-86904761D01*
X121880952Y-86952380D01*
X121785714Y-86952380D01*
X122976190Y-86428571D02*
X123119047Y-86476190D01*
X123166666Y-86523809D01*
X123214285Y-86619047D01*
X123214285Y-86761904D01*
X123166666Y-86857142D01*
X123119047Y-86904761D01*
X123023809Y-86952380D01*
X122642857Y-86952380D01*
X122642857Y-85952380D01*
X122976190Y-85952380D01*
X123071428Y-86000000D01*
X123119047Y-86047619D01*
X123166666Y-86142857D01*
X123166666Y-86238095D01*
X123119047Y-86333333D01*
X123071428Y-86380952D01*
X122976190Y-86428571D01*
X122642857Y-86428571D01*
X123833333Y-85952380D02*
X123928571Y-85952380D01*
X124023809Y-86000000D01*
X124071428Y-86047619D01*
X124119047Y-86142857D01*
X124166666Y-86333333D01*
X124166666Y-86571428D01*
X124119047Y-86761904D01*
X124071428Y-86857142D01*
X124023809Y-86904761D01*
X123928571Y-86952380D01*
X123833333Y-86952380D01*
X123738095Y-86904761D01*
X123690476Y-86857142D01*
X123642857Y-86761904D01*
X123595238Y-86571428D01*
X123595238Y-86333333D01*
X123642857Y-86142857D01*
X123690476Y-86047619D01*
X123738095Y-86000000D01*
X123833333Y-85952380D01*
%TO.C,MC1*%
X127690476Y-117452380D02*
X127690476Y-116452380D01*
X128023809Y-117166666D01*
X128357142Y-116452380D01*
X128357142Y-117452380D01*
X129404761Y-117357142D02*
X129357142Y-117404761D01*
X129214285Y-117452380D01*
X129119047Y-117452380D01*
X128976190Y-117404761D01*
X128880952Y-117309523D01*
X128833333Y-117214285D01*
X128785714Y-117023809D01*
X128785714Y-116880952D01*
X128833333Y-116690476D01*
X128880952Y-116595238D01*
X128976190Y-116500000D01*
X129119047Y-116452380D01*
X129214285Y-116452380D01*
X129357142Y-116500000D01*
X129404761Y-116547619D01*
X130357142Y-117452380D02*
X129785714Y-117452380D01*
X130071428Y-117452380D02*
X130071428Y-116452380D01*
X129976190Y-116595238D01*
X129880952Y-116690476D01*
X129785714Y-116738095D01*
X77690476Y-117452380D02*
X77690476Y-116452380D01*
X78023809Y-117166666D01*
X78357142Y-116452380D01*
X78357142Y-117452380D01*
X79404761Y-117357142D02*
X79357142Y-117404761D01*
X79214285Y-117452380D01*
X79119047Y-117452380D01*
X78976190Y-117404761D01*
X78880952Y-117309523D01*
X78833333Y-117214285D01*
X78785714Y-117023809D01*
X78785714Y-116880952D01*
X78833333Y-116690476D01*
X78880952Y-116595238D01*
X78976190Y-116500000D01*
X79119047Y-116452380D01*
X79214285Y-116452380D01*
X79357142Y-116500000D01*
X79404761Y-116547619D01*
X80357142Y-117452380D02*
X79785714Y-117452380D01*
X80071428Y-117452380D02*
X80071428Y-116452380D01*
X79976190Y-116595238D01*
X79880952Y-116690476D01*
X79785714Y-116738095D01*
X127690476Y-67452380D02*
X127690476Y-66452380D01*
X128023809Y-67166666D01*
X128357142Y-66452380D01*
X128357142Y-67452380D01*
X129404761Y-67357142D02*
X129357142Y-67404761D01*
X129214285Y-67452380D01*
X129119047Y-67452380D01*
X128976190Y-67404761D01*
X128880952Y-67309523D01*
X128833333Y-67214285D01*
X128785714Y-67023809D01*
X128785714Y-66880952D01*
X128833333Y-66690476D01*
X128880952Y-66595238D01*
X128976190Y-66500000D01*
X129119047Y-66452380D01*
X129214285Y-66452380D01*
X129357142Y-66500000D01*
X129404761Y-66547619D01*
X130357142Y-67452380D02*
X129785714Y-67452380D01*
X130071428Y-67452380D02*
X130071428Y-66452380D01*
X129976190Y-66595238D01*
X129880952Y-66690476D01*
X129785714Y-66738095D01*
%TO.C,MA2*%
X127761904Y-110452380D02*
X127761904Y-109452380D01*
X128095238Y-110166666D01*
X128428571Y-109452380D01*
X128428571Y-110452380D01*
X128857142Y-110166666D02*
X129333333Y-110166666D01*
X128761904Y-110452380D02*
X129095238Y-109452380D01*
X129428571Y-110452380D01*
X129714285Y-109547619D02*
X129761904Y-109500000D01*
X129857142Y-109452380D01*
X130095238Y-109452380D01*
X130190476Y-109500000D01*
X130238095Y-109547619D01*
X130285714Y-109642857D01*
X130285714Y-109738095D01*
X130238095Y-109880952D01*
X129666666Y-110452380D01*
X130285714Y-110452380D01*
X77761904Y-110452380D02*
X77761904Y-109452380D01*
X78095238Y-110166666D01*
X78428571Y-109452380D01*
X78428571Y-110452380D01*
X78857142Y-110166666D02*
X79333333Y-110166666D01*
X78761904Y-110452380D02*
X79095238Y-109452380D01*
X79428571Y-110452380D01*
X79714285Y-109547619D02*
X79761904Y-109500000D01*
X79857142Y-109452380D01*
X80095238Y-109452380D01*
X80190476Y-109500000D01*
X80238095Y-109547619D01*
X80285714Y-109642857D01*
X80285714Y-109738095D01*
X80238095Y-109880952D01*
X79666666Y-110452380D01*
X80285714Y-110452380D01*
X127761904Y-60452380D02*
X127761904Y-59452380D01*
X128095238Y-60166666D01*
X128428571Y-59452380D01*
X128428571Y-60452380D01*
X128857142Y-60166666D02*
X129333333Y-60166666D01*
X128761904Y-60452380D02*
X129095238Y-59452380D01*
X129428571Y-60452380D01*
X129714285Y-59547619D02*
X129761904Y-59500000D01*
X129857142Y-59452380D01*
X130095238Y-59452380D01*
X130190476Y-59500000D01*
X130238095Y-59547619D01*
X130285714Y-59642857D01*
X130285714Y-59738095D01*
X130238095Y-59880952D01*
X129666666Y-60452380D01*
X130285714Y-60452380D01*
%TO.C,MC4*%
X99690476Y-134452380D02*
X99690476Y-133452380D01*
X100023809Y-134166666D01*
X100357142Y-133452380D01*
X100357142Y-134452380D01*
X101404761Y-134357142D02*
X101357142Y-134404761D01*
X101214285Y-134452380D01*
X101119047Y-134452380D01*
X100976190Y-134404761D01*
X100880952Y-134309523D01*
X100833333Y-134214285D01*
X100785714Y-134023809D01*
X100785714Y-133880952D01*
X100833333Y-133690476D01*
X100880952Y-133595238D01*
X100976190Y-133500000D01*
X101119047Y-133452380D01*
X101214285Y-133452380D01*
X101357142Y-133500000D01*
X101404761Y-133547619D01*
X102261904Y-133785714D02*
X102261904Y-134452380D01*
X102023809Y-133404761D02*
X101785714Y-134119047D01*
X102404761Y-134119047D01*
X49690476Y-134452380D02*
X49690476Y-133452380D01*
X50023809Y-134166666D01*
X50357142Y-133452380D01*
X50357142Y-134452380D01*
X51404761Y-134357142D02*
X51357142Y-134404761D01*
X51214285Y-134452380D01*
X51119047Y-134452380D01*
X50976190Y-134404761D01*
X50880952Y-134309523D01*
X50833333Y-134214285D01*
X50785714Y-134023809D01*
X50785714Y-133880952D01*
X50833333Y-133690476D01*
X50880952Y-133595238D01*
X50976190Y-133500000D01*
X51119047Y-133452380D01*
X51214285Y-133452380D01*
X51357142Y-133500000D01*
X51404761Y-133547619D01*
X52261904Y-133785714D02*
X52261904Y-134452380D01*
X52023809Y-133404761D02*
X51785714Y-134119047D01*
X52404761Y-134119047D01*
X99690476Y-84452380D02*
X99690476Y-83452380D01*
X100023809Y-84166666D01*
X100357142Y-83452380D01*
X100357142Y-84452380D01*
X101404761Y-84357142D02*
X101357142Y-84404761D01*
X101214285Y-84452380D01*
X101119047Y-84452380D01*
X100976190Y-84404761D01*
X100880952Y-84309523D01*
X100833333Y-84214285D01*
X100785714Y-84023809D01*
X100785714Y-83880952D01*
X100833333Y-83690476D01*
X100880952Y-83595238D01*
X100976190Y-83500000D01*
X101119047Y-83452380D01*
X101214285Y-83452380D01*
X101357142Y-83500000D01*
X101404761Y-83547619D01*
X102261904Y-83785714D02*
X102261904Y-84452380D01*
X102023809Y-83404761D02*
X101785714Y-84119047D01*
X102404761Y-84119047D01*
%TO.C,JB0*%
X72166666Y-85952380D02*
X72166666Y-86666666D01*
X72119047Y-86809523D01*
X72023809Y-86904761D01*
X71880952Y-86952380D01*
X71785714Y-86952380D01*
X72976190Y-86428571D02*
X73119047Y-86476190D01*
X73166666Y-86523809D01*
X73214285Y-86619047D01*
X73214285Y-86761904D01*
X73166666Y-86857142D01*
X73119047Y-86904761D01*
X73023809Y-86952380D01*
X72642857Y-86952380D01*
X72642857Y-85952380D01*
X72976190Y-85952380D01*
X73071428Y-86000000D01*
X73119047Y-86047619D01*
X73166666Y-86142857D01*
X73166666Y-86238095D01*
X73119047Y-86333333D01*
X73071428Y-86380952D01*
X72976190Y-86428571D01*
X72642857Y-86428571D01*
X73833333Y-85952380D02*
X73928571Y-85952380D01*
X74023809Y-86000000D01*
X74071428Y-86047619D01*
X74119047Y-86142857D01*
X74166666Y-86333333D01*
X74166666Y-86571428D01*
X74119047Y-86761904D01*
X74071428Y-86857142D01*
X74023809Y-86904761D01*
X73928571Y-86952380D01*
X73833333Y-86952380D01*
X73738095Y-86904761D01*
X73690476Y-86857142D01*
X73642857Y-86761904D01*
X73595238Y-86571428D01*
X73595238Y-86333333D01*
X73642857Y-86142857D01*
X73690476Y-86047619D01*
X73738095Y-86000000D01*
X73833333Y-85952380D01*
%TO.C,MC4*%
X49690476Y-84452380D02*
X49690476Y-83452380D01*
X50023809Y-84166666D01*
X50357142Y-83452380D01*
X50357142Y-84452380D01*
X51404761Y-84357142D02*
X51357142Y-84404761D01*
X51214285Y-84452380D01*
X51119047Y-84452380D01*
X50976190Y-84404761D01*
X50880952Y-84309523D01*
X50833333Y-84214285D01*
X50785714Y-84023809D01*
X50785714Y-83880952D01*
X50833333Y-83690476D01*
X50880952Y-83595238D01*
X50976190Y-83500000D01*
X51119047Y-83452380D01*
X51214285Y-83452380D01*
X51357142Y-83500000D01*
X51404761Y-83547619D01*
X52261904Y-83785714D02*
X52261904Y-84452380D01*
X52023809Y-83404761D02*
X51785714Y-84119047D01*
X52404761Y-84119047D01*
%TO.C,MC3*%
X49690476Y-63452380D02*
X49690476Y-62452380D01*
X50023809Y-63166666D01*
X50357142Y-62452380D01*
X50357142Y-63452380D01*
X51404761Y-63357142D02*
X51357142Y-63404761D01*
X51214285Y-63452380D01*
X51119047Y-63452380D01*
X50976190Y-63404761D01*
X50880952Y-63309523D01*
X50833333Y-63214285D01*
X50785714Y-63023809D01*
X50785714Y-62880952D01*
X50833333Y-62690476D01*
X50880952Y-62595238D01*
X50976190Y-62500000D01*
X51119047Y-62452380D01*
X51214285Y-62452380D01*
X51357142Y-62500000D01*
X51404761Y-62547619D01*
X51738095Y-62452380D02*
X52357142Y-62452380D01*
X52023809Y-62833333D01*
X52166666Y-62833333D01*
X52261904Y-62880952D01*
X52309523Y-62928571D01*
X52357142Y-63023809D01*
X52357142Y-63261904D01*
X52309523Y-63357142D01*
X52261904Y-63404761D01*
X52166666Y-63452380D01*
X51880952Y-63452380D01*
X51785714Y-63404761D01*
X51738095Y-63357142D01*
%TO.C,MC2*%
X77690476Y-46452380D02*
X77690476Y-45452380D01*
X78023809Y-46166666D01*
X78357142Y-45452380D01*
X78357142Y-46452380D01*
X79404761Y-46357142D02*
X79357142Y-46404761D01*
X79214285Y-46452380D01*
X79119047Y-46452380D01*
X78976190Y-46404761D01*
X78880952Y-46309523D01*
X78833333Y-46214285D01*
X78785714Y-46023809D01*
X78785714Y-45880952D01*
X78833333Y-45690476D01*
X78880952Y-45595238D01*
X78976190Y-45500000D01*
X79119047Y-45452380D01*
X79214285Y-45452380D01*
X79357142Y-45500000D01*
X79404761Y-45547619D01*
X79785714Y-45547619D02*
X79833333Y-45500000D01*
X79928571Y-45452380D01*
X80166666Y-45452380D01*
X80261904Y-45500000D01*
X80309523Y-45547619D01*
X80357142Y-45642857D01*
X80357142Y-45738095D01*
X80309523Y-45880952D01*
X79738095Y-46452380D01*
X80357142Y-46452380D01*
%TO.C,MC1*%
X77690476Y-67452380D02*
X77690476Y-66452380D01*
X78023809Y-67166666D01*
X78357142Y-66452380D01*
X78357142Y-67452380D01*
X79404761Y-67357142D02*
X79357142Y-67404761D01*
X79214285Y-67452380D01*
X79119047Y-67452380D01*
X78976190Y-67404761D01*
X78880952Y-67309523D01*
X78833333Y-67214285D01*
X78785714Y-67023809D01*
X78785714Y-66880952D01*
X78833333Y-66690476D01*
X78880952Y-66595238D01*
X78976190Y-66500000D01*
X79119047Y-66452380D01*
X79214285Y-66452380D01*
X79357142Y-66500000D01*
X79404761Y-66547619D01*
X80357142Y-67452380D02*
X79785714Y-67452380D01*
X80071428Y-67452380D02*
X80071428Y-66452380D01*
X79976190Y-66595238D01*
X79880952Y-66690476D01*
X79785714Y-66738095D01*
%TO.C,MB4*%
X49690476Y-77452380D02*
X49690476Y-76452380D01*
X50023809Y-77166666D01*
X50357142Y-76452380D01*
X50357142Y-77452380D01*
X51166666Y-76928571D02*
X51309523Y-76976190D01*
X51357142Y-77023809D01*
X51404761Y-77119047D01*
X51404761Y-77261904D01*
X51357142Y-77357142D01*
X51309523Y-77404761D01*
X51214285Y-77452380D01*
X50833333Y-77452380D01*
X50833333Y-76452380D01*
X51166666Y-76452380D01*
X51261904Y-76500000D01*
X51309523Y-76547619D01*
X51357142Y-76642857D01*
X51357142Y-76738095D01*
X51309523Y-76833333D01*
X51261904Y-76880952D01*
X51166666Y-76928571D01*
X50833333Y-76928571D01*
X52261904Y-76785714D02*
X52261904Y-77452380D01*
X52023809Y-76404761D02*
X51785714Y-77119047D01*
X52404761Y-77119047D01*
%TO.C,MB3*%
X49690476Y-56452380D02*
X49690476Y-55452380D01*
X50023809Y-56166666D01*
X50357142Y-55452380D01*
X50357142Y-56452380D01*
X51166666Y-55928571D02*
X51309523Y-55976190D01*
X51357142Y-56023809D01*
X51404761Y-56119047D01*
X51404761Y-56261904D01*
X51357142Y-56357142D01*
X51309523Y-56404761D01*
X51214285Y-56452380D01*
X50833333Y-56452380D01*
X50833333Y-55452380D01*
X51166666Y-55452380D01*
X51261904Y-55500000D01*
X51309523Y-55547619D01*
X51357142Y-55642857D01*
X51357142Y-55738095D01*
X51309523Y-55833333D01*
X51261904Y-55880952D01*
X51166666Y-55928571D01*
X50833333Y-55928571D01*
X51738095Y-55452380D02*
X52357142Y-55452380D01*
X52023809Y-55833333D01*
X52166666Y-55833333D01*
X52261904Y-55880952D01*
X52309523Y-55928571D01*
X52357142Y-56023809D01*
X52357142Y-56261904D01*
X52309523Y-56357142D01*
X52261904Y-56404761D01*
X52166666Y-56452380D01*
X51880952Y-56452380D01*
X51785714Y-56404761D01*
X51738095Y-56357142D01*
%TO.C,MB2*%
X77690476Y-53452380D02*
X77690476Y-52452380D01*
X78023809Y-53166666D01*
X78357142Y-52452380D01*
X78357142Y-53452380D01*
X79166666Y-52928571D02*
X79309523Y-52976190D01*
X79357142Y-53023809D01*
X79404761Y-53119047D01*
X79404761Y-53261904D01*
X79357142Y-53357142D01*
X79309523Y-53404761D01*
X79214285Y-53452380D01*
X78833333Y-53452380D01*
X78833333Y-52452380D01*
X79166666Y-52452380D01*
X79261904Y-52500000D01*
X79309523Y-52547619D01*
X79357142Y-52642857D01*
X79357142Y-52738095D01*
X79309523Y-52833333D01*
X79261904Y-52880952D01*
X79166666Y-52928571D01*
X78833333Y-52928571D01*
X79785714Y-52547619D02*
X79833333Y-52500000D01*
X79928571Y-52452380D01*
X80166666Y-52452380D01*
X80261904Y-52500000D01*
X80309523Y-52547619D01*
X80357142Y-52642857D01*
X80357142Y-52738095D01*
X80309523Y-52880952D01*
X79738095Y-53452380D01*
X80357142Y-53452380D01*
%TO.C,MB1*%
X77690476Y-74452380D02*
X77690476Y-73452380D01*
X78023809Y-74166666D01*
X78357142Y-73452380D01*
X78357142Y-74452380D01*
X79166666Y-73928571D02*
X79309523Y-73976190D01*
X79357142Y-74023809D01*
X79404761Y-74119047D01*
X79404761Y-74261904D01*
X79357142Y-74357142D01*
X79309523Y-74404761D01*
X79214285Y-74452380D01*
X78833333Y-74452380D01*
X78833333Y-73452380D01*
X79166666Y-73452380D01*
X79261904Y-73500000D01*
X79309523Y-73547619D01*
X79357142Y-73642857D01*
X79357142Y-73738095D01*
X79309523Y-73833333D01*
X79261904Y-73880952D01*
X79166666Y-73928571D01*
X78833333Y-73928571D01*
X80357142Y-74452380D02*
X79785714Y-74452380D01*
X80071428Y-74452380D02*
X80071428Y-73452380D01*
X79976190Y-73595238D01*
X79880952Y-73690476D01*
X79785714Y-73738095D01*
%TO.C,MA4*%
X49761904Y-70452380D02*
X49761904Y-69452380D01*
X50095238Y-70166666D01*
X50428571Y-69452380D01*
X50428571Y-70452380D01*
X50857142Y-70166666D02*
X51333333Y-70166666D01*
X50761904Y-70452380D02*
X51095238Y-69452380D01*
X51428571Y-70452380D01*
X52190476Y-69785714D02*
X52190476Y-70452380D01*
X51952380Y-69404761D02*
X51714285Y-70119047D01*
X52333333Y-70119047D01*
%TO.C,MA3*%
X49761904Y-49452380D02*
X49761904Y-48452380D01*
X50095238Y-49166666D01*
X50428571Y-48452380D01*
X50428571Y-49452380D01*
X50857142Y-49166666D02*
X51333333Y-49166666D01*
X50761904Y-49452380D02*
X51095238Y-48452380D01*
X51428571Y-49452380D01*
X51666666Y-48452380D02*
X52285714Y-48452380D01*
X51952380Y-48833333D01*
X52095238Y-48833333D01*
X52190476Y-48880952D01*
X52238095Y-48928571D01*
X52285714Y-49023809D01*
X52285714Y-49261904D01*
X52238095Y-49357142D01*
X52190476Y-49404761D01*
X52095238Y-49452380D01*
X51809523Y-49452380D01*
X51714285Y-49404761D01*
X51666666Y-49357142D01*
%TO.C,MA2*%
X77761904Y-60452380D02*
X77761904Y-59452380D01*
X78095238Y-60166666D01*
X78428571Y-59452380D01*
X78428571Y-60452380D01*
X78857142Y-60166666D02*
X79333333Y-60166666D01*
X78761904Y-60452380D02*
X79095238Y-59452380D01*
X79428571Y-60452380D01*
X79714285Y-59547619D02*
X79761904Y-59500000D01*
X79857142Y-59452380D01*
X80095238Y-59452380D01*
X80190476Y-59500000D01*
X80238095Y-59547619D01*
X80285714Y-59642857D01*
X80285714Y-59738095D01*
X80238095Y-59880952D01*
X79666666Y-60452380D01*
X80285714Y-60452380D01*
%TO.C,MA1*%
X77761904Y-81452380D02*
X77761904Y-80452380D01*
X78095238Y-81166666D01*
X78428571Y-80452380D01*
X78428571Y-81452380D01*
X78857142Y-81166666D02*
X79333333Y-81166666D01*
X78761904Y-81452380D02*
X79095238Y-80452380D01*
X79428571Y-81452380D01*
X80285714Y-81452380D02*
X79714285Y-81452380D01*
X80000000Y-81452380D02*
X80000000Y-80452380D01*
X79904761Y-80595238D01*
X79809523Y-80690476D01*
X79714285Y-80738095D01*
%TD*%
M02*
